<mxfile host="65bd71144e">
    <diagram id="d4J77t6GzpoWWUk30mbU" name="Page-1">
        <mxGraphModel dx="1044" dy="621" grid="1" gridSize="10" guides="1" tooltips="1" connect="1" arrows="1" fold="1" page="1" pageScale="1" pageWidth="850" pageHeight="1100" math="0" shadow="0">
            <root>
                <mxCell id="0"/>
                <mxCell id="1" parent="0"/>
                <mxCell id="2" value="" style="shape=image;verticalLabelPosition=bottom;labelBackgroundColor=#ffffff;verticalAlign=top;aspect=fixed;imageAspect=0;image=data:image/png,iVBORw0KGgoAAAANSUhEUgAAA3oAAAG3CAYAAADiuic7AAAAAXNSR0IArs4c6QAAAARnQU1BAACxjwv8YQUAAAAJcEhZcwAADsMAAA7DAcdvqGQAAP+lSURBVHhe7P0HtGRJet8H/u9N75+39cp7191V7c247h6HwWAAYhwGIMWlOYK0WnGXhGglUNKS1PLsnhV09khHBCBABAUMQDMi3Hjb0z3tTXV5+149b9P7zJv7fRF533tVXT3TA9QAM9n/X1VkXhM3zBf3RcQ/I25cJ3DgkQ4IIYQQQgghhPQMbvebEEIIIYQQQkiPQKFHCCGEEEIIIT0GhR4hhBBCCCGE9BgUeoQQQgghhBDSY1DoEUIIIYQQQkiPQaFHCCGEEEIIIT0GhR4hhBBCCCGE9BgUeoQQQgghhBDSY1DoEUIIIYQQQkiPQaFHCCGEEEIIIT0GhR4hhBBCCCGE9BgUeoQQQgghhBDSY1DoEUIIIYQQQkiPQaFHCCGEEEIIIT0GhR4hhBBCCCGE9BgUeoQQQgghhBDSY1DoEUIIIYQQQkiPQaFHCCGEEEIIIT0GhR4hhBBCCCGE9BgUeoQQQgghhBDSY1DoEUIIIYQQQkiPQaFHCCGEEEIIIT0GhR4hhBBCCCGE9BgUeoQQQgghhBDSY1DoEUIIIYQQQkiPQaFHCCGEEEIIIT0GhR4hhBBCCCGE9BgUeoQQQgghhBDSY1DoEUIIIYQQQkiPQaFHCCGEEEIIIT0GhR4hhBBCCCGE9BgUeoQQQgghhBDSY1DoEUIIIYQQQkiPQaFHCCGEEEIIIT0GhR4hhBBCCCGE9BgUeoQQQgghhBDSY1DoEUIIIYQQQkiPQaFHCCGEEEIIIT0GhR4hhBBCCCGE9BgUeoQQQgghhBDSY1DoEUIIIYQQQkiPQaFHCCGEEEIIIT0GhR4hhBBCCCGE9BgUeoQQQgghhBDSY1DoEUIIIYQQQkiPQaFHCCGEEEIIIT0GhR4hhBBCCCGE9BgUeoQQQgghhBDSY1DoEUIIIYQQQkiPQaFHCCGEEEIIIT0GhR4hhBBCCCGE9BgUeoQQQgghhBDSY1DoEUIIIYQQQkiPQaFHCCGEEEIIIT0GhR4hhBBCCCGE9BgUeoQQQgghhBDSY1DoEUIIIYQQQkiPQaFHCCGEEEIIIT0GhR4hhBBCCCGE9BgUeoQQQgghhBDSY1DoEUIIIYQQQkiPQaFHCCGEEEIIIT0GhR4hhBBCCCGE9BgUeoQQQgghhBDSY1DoEUIIIYQQQkiPQaFHCCF/QXRuc72G0/1WfjzzuN36P0wKfxi/f162p+3uxXunUNX9+XlrqG898vaOEELIjw4KPUII+YtClFCn68y2PfpDoBdqte073f9h6EZ8i/vzYrvsruMg6Lhwu5lyZF/+/xghCXNud3p8uy3U3W7frt9uPu8u3bCNocRe5tMTp/F4xtntHzZePy/bnSv33a3OHv/z4Kd/y9n7W78l5ZtxBbZtb7lbbe27t0uTzcMP9kcIIcTHCRx45IdtQQghhPwZ0A6w32k33VSzqVs/TKd1u98fpvr+fn7/7J1mFSIasisd94B8dzwVJy1xbXtWOvltBMWPlSy3okfEGbtsw1fCd5U7xONj4tuOCglFr1HBJd+babo76VJrqLOSRW2oaVPnSz3fXhKfRml23knc9qo7c3v61a/k75ZgZect9ng73hrX1qW6oWH527KxPdju7vZDlreGucWtAXw/n4QQQqTWpNAjhJC/KLR3261ydbPbcdVO/Y+ebXH/QCQ977izb3FFzsWDQCLoIeRURdq10Gy7KDWCqHoRNN3QHfKpaeoKqVsQ+fNDxv+DeYf5N178ESMVQXpAvk16/jwjSTZu3wYBCTMRdpAMdsRWdTnaFnt1UG44Yq8QWk5IfEh8Jn65ylyu1/6g+K3/W7x1r7X/trDy8ja/uvNObd9N2x0xYfjO51a//pl3GNstfJ+YCSGEdKHQI4SQvyC2V7Z+F/gvtgKW2N4idu6Qgk1R805Q8eAh6jZxYLIPpw+NYCTRRBhNzK9W8OKFZUyvd1BzYyJl3Nti89Oz/ajE/UPF/07x4/oB3BK3+u+KvTsKl3eKhqPOjuHpZzzi4r4DE7h3Tx/SgRLcTg1zK3m8dHEZNzYc1J2ksZcVwp4k4YeJX+Lanlezeadru+nafngznnfApkjfFpdca8WsuFvSfLu/rTO3cuejd7r+1j1CCCG3E3AHp/5pd5sQQshdxJ+A53d9rYBQZzuz+mklhXbk5YjxZH1aH/Y6lUdbYfjjMn447xx75e3/VHiou/2fnwZ75Z0wXW855UqHPxZo494Dw/iZ9x3GE8f6cM/uFGJB4MbMPFayNXhOVJy9zg/Xd1sWUefHfuuxO7Fp2444MaBvoy3nH9PzesUW9jobl2tSoMesLfRT9+wkSj8s+8/uvRU/7u15Ud56jR7pIBUN4YlTe/Ezj+/GQ/uCODEVQsStYWZ+EUu5JppOTHxJaN18+c/x3RqWz9Yxmw77z+ZDj9nrrO6SD30+rhue/VRnp5Equu9/3oqfR5smmy49bo+aLSkL8709Hj3ddWa36/SAptKGag50t/RoFw2u63fLn/VLCCHk+0OhRwghdxntmwakgx4PqmuKCKpLJ75lpjMG0UZEBFA85CElLhlsI9xpIthp2U6ydI61oxsS8RQV8ZSS8+oSgRaiTqPrz4N69cSv/5SX6XRvbklH2Py3XWMlIFvRgKQn1JbvJqKuh7i4mKv7ErY6SaN1kkbxG5LzHa8tckficcwTeJvhKbqtHfaIHE9JmEfGI3j4QB+mogWkkEc2u4ELV+ewUmjCc6PiWSd4arpN4uB22gg6GrfaSW3i2O+AjhC2Jf42AuLHiOBuhJoCXejDle2w25H0t4x9Y24TYQnLEf8BsV08qLb15FhTLhKndjJ5gMTZMeEnxK7JUMdMN9V99RuWFIZVuMqxmJyPafp0bE1tbuLuGKdp0WxoOYfVlpJmnYap4WncEQnPPJloylSuc11jR1O2kgYt+3v3pHF6dwjDgVUkvSyy62u4cn0Ra9mmxBE2abYW17RrGWikIj5NGiRbeszVPIk4lX29v8KOpFnsqelIBluSFrWPlKfYKSR2UJvrFSYLElZQgtZ7MSHlF5N7QMsdnuZV0tqNU9Og4UflwpT4SboN8d8w0089Ue/tTsD4jwUcJMUOcYkrLnHqvRowaRJ76z2s97u4uMQb6jTgyr2lGTH/unZMyHUZSXNa/MelTIOduoTcEB8dI7utDcx/zYX5JIQQcmc4dZMQQu4yrnRa+0SxHJhMY7I/IJ3aCqqVGhaW1lBvehgbG8VwfwrJsPSy200UihUsrJUws1pGrhZAIBzFSH8MU0MxjGXCSEif35NOc7lax9J6CdMrFaxWAqh0Ymg5KrOsvFMZpJ1fsyVpMDJBOtLaDR9MhbF3PImhhAi4Ttl00u10QMU2A9qHVjS8lhPEeqGOq/M5E1fTTZjjtyJhSad9NBXC7r4WHj+UwCce24Pd6ap00Ks4N53DHz93A2eXOiigHyulDhYKLVQ7YbGRK2KnjZFkABP9UQxn4khEg4iExCYiNKr1JrJil6X1MpZF+OTqLmpOCA1xKjpVkO0YjBsbJ8NWAG9kS5hfziISi2FydACZZBTLG1lcnF3HRi0sciEqQqeFwbiDXcNxTAzE0CfGVbHTbEp8+TKWlrJoiC4cHhtGf19c0tJCpdLAtcUcZrJ1VFT2SRo0/frUYVrKZrwvjJ0S3lBK0i9Cpy0CplxrSbqlXNerkCyg0JK0u2ERM0FTpvuHXHz4/hF86J4MRkLrCLbLOH9jHV98fgbnFl3knEEslV0sFTqoeGFTHlpcZvRS4jXWlzSoANSVTkNoIhVuY6IvgqnBGAbErvFwB0ERbu22h0qtiY1iTdLUwFJebFVz0JAAR/oTODDVj6G4CrMm8uU2Ls8VsJATm8i9paJc441JuRyc6MeeoTDiKOkdghvi6dJiBUVPp+UGcXDHIA6OJ8RCZWPn6ZsiWsWmo6OjGB/pRyohdpP7rl5rYHU9j5tLeayWIOkIIpmIYmI4iR0DUQwlg0b01ZstrEiZ3lzOSZrbJp46IhKXkapdKxBCCHk7KPQIIeQuE3TaODiZwc8/eQJPHB9EEjlkV9dw+dIVhCNRHDy4D/2pCCJOUzrubdQbHVyfL+BrL17Ba1cWMTQ2gccfPIZ79g1jLCmddRGKHek4tzwHi+sVfPv1GXzttQXzLFcZGeniR7sxdwWAfhhN5hgRoKN39x0YxiefOo57dsUkPRsId2rqQXyox+4kP/Oh1+sYShgvX1zE737pZZyZa6Lq9EvHPyznup4E7bQPJAJ4/6k9ePreYezLFLAnI4LDKRkBmK9ZoZJvR5FtBvHdNxfw5RenRcBEkU6n8MChUbz32CiOTkQxmITE2DCjcZr+VscVsdTB9FIRz742g++eXcTNUhBlJ6FjRJKnFp48vRef/tBJ7Mi0EOmIKL16E9dvzGPn7p3Yt2tUBEoTz7x2CV/41gVcWxOhFIphx1ACH7hnF95zYkIEpot4SEdZm2LfDorlFq7eWMLCch679+7BgX2TpnyWVnP4/a++gi++No+8CNaWExch4mIiE8SjRyfxnnsmsX8sjP5wXUR0TUS5J4I0aEYyX7+4hO+8dhNnblaQbYmwzGTwkcdP4ul7hrAnsY7JWAFxpyjxtFCsOlgtOsi149hoRfH1V2fxxZfmsFQRgaNCW0Sdjuaq3bUUtCxUnIdE+gwnHDx8bBzvvW8SR0YjGIhJCTo1Kf+2+NLRMBf5agdXF6v42iuz+Pa5ZWzI/n3H9uGTHzqNEzuCiHbKuDaXw+996Q1893weJSctojZofrgY7UvI/XMKHzw9gcFgFq5Xx598+w38u29exHw5hk4gjp/74EP4ufcewHAoj5BXwXefeQFrItTuO30fdojw1pFkXXRG87EiIvjFN2fwzCtXRVy2cN89x/Do6YPYNRJGIlhHQMrT6wSQK7VFAK/I38Y1vHqjiPVGAjUk0HbNTxViha37kRBCyK1w6iYhhNxlVKyMiQh46NAgTk60MeIsYDRcxIGREI7uTIt4ayHj5pE2roS+YBVTAwHsGo5i53AQj4lweOxYP8ZFBPRLpzoTKCIdKIu/MsbTHnaNiipqN7CwuIJy0zUjL9sF2Gb3V1SAfodEeE4NhSU9fdg31MKAu4a+QE7iriAZqCIl3ylXv8tImmN1M3VxPZvF2UvTWMk3pcMfE2en6Plopz0d7eD0oWE8cXIEkykNo4gI6iJOO4iEAkjHQxhKu0hF2lhbW8dlEVLtThgP33sEn3nqJB7ZG8DO2JqIhw2Tx4RjpwWmxSYD4YrYJIRdY0m0GiURYGuoSH49iUGnwB7dmcRjhzPYFd/AsORpNFbDkZ0pHJ6MYShaQETysrCyiovXl80I2+E9w/js0yfxiQdHcCiTx1BoHWknJ3kuGTsMxNrYMxrFvvEoJhINDEeKYvsCOvUcLlybwcX5ImpOEsFACHuGY/jEY3vxycd34d7xJsZCWRG4ecRQEds1kQ41MZ4CjuxIYrI/hFJx1UxlTUQCeOT4FB49lMJYeF1Ed8FMqdSptZFQEKlkGAPpIJIxYGFpFZenV1Bo6iqcUsYq9ExJ29JWQayTYQdF5D19/058+n178cAuYCK6JmUrYl7HH526OJFGUr6ZiNg17mBxdQ1XZ8WWDQc7xwbw8JFhHMwUMeCsolHO4vzVWVxfqaDhxuGJ0IOIS73ufrmfT+10MRZYRgY53JyZxjkpz0IjJDdDCKcOT+DhA3E5v4hBZw07+zwc39eP3XLf94eK6BNbp5yClHMRo/Gm2Dkh97ODh46M4emHRFiPiGAN5SRsuRdc8ResYDjWxN7ROPqSrtw/a1jNVUToRewIp1jB3uGEEELuxFaLTQgh5K6gXU+dNhnstBEWQRbxREiFm+hLSXfeaaFQqZvpfNlaGOV2FPrWuaB0yg+MBfFTD+6UznoEyfYGWtUSsiURSJUQis0IvE4Q4Y6IwlQTTxwZwMmpOOJe0Uy589G4N7u+ogR0+XxdG7HedpGtBLBSimCxksBiOSUuiYVyHLPVOG5WY+J0O4HZSgxz5TBWJX2VTkI61To1T0XerZ1qFRo6XiQaykz5q9REdnT0CbSASUS91UZOTq5JXjeqYeRbMVQ7MZQbwPzCihEyxVpb7OBhLu/h3LKDN5ZCuJpLYbWehlgOQa+KXX0tfOCeMbvAi4g3uG0RnTYtOhoX9cpihzyGVZwlPQRkv1qtI1/yUKqF0GyHMDHUjw8+cACPHxSBFVxBwluDGBj5moO5Yhg3CxEsSxrLXhCJZAT9Ek4EeUQ6IsREWgTMlMkggiJ2R/rjePqRA/jow1PYJYIx4ongrhdxRcTR89M1vDwfwI18QkR4GPFgGw+LwP70+/bjvp1RxLwS6vU6cpU2Ss2ApF6ElJF5si0FVay2sSH2Wi8HUayLwBO5Zp/b1PjV2nbE0+Rf/keCHZw4MIYnH9iDg0NNpCRfXqOMubU6XpW0fOdqE9+7GcKFXAYL9UFclWxfWygiL2ZsieDWuEXTI+y1xY5N87yoTruE05HYVEaaO1miCspx+ZRzYU+kltzTYX1+ThLjyTlP0uno6J/4DngN8SMiLRNCJhFArV5FVu6PtWpQRGsEDS8ksYpAjdTxnhOjeO/JEYyJSHdqRZRKDWxUgsg3k2KPqPkbSrtlnNqTxKPHhswPHRHo1GA7UkkIIeTt4YgeIYTcZXTMaSQdxn37hnBwOIB4JyeqqC0dfwcX58v45pllPH8phytLTTTcFJLpFMJuU0RFzUzD02eqZlfLeEb8fevNNZxbaEjXNoVUut8sXBJCHdFwBGuFOs7eWIXIHBFj2mn3xze2OsDmPWn62XaQL9ZwbS6LM9Lbf/VqDi9fK+KlTVcy33rsFXVX8/Kdx9XllnS6I2bapkgoCcvGoBjxIbuepLeUzaMtHfqhvoR5NkyfKZxdr+C7Zxbw7PkcXpmp442bVUxvdFAScVuqN/VqETJBnL26iG+9Nocvv7KMb765jnPzdRGYIaRSCSQlWzGngVQyhjVJ/3kd4WpF0RFRcWAqg9MHBjAcKUnnv2QkUL4RwPWVBl69kseLl4t49XoFC7kOTh49gA8/sge7EgUkRETXJP6zcxV848yauA28cCmPa8sNEd4h84xfPKyLpjSkLEXEVjrGXhcWmnDCadx/fDd++qEpHOgvI9bJYi1XwLfemMPvffMyvvDsDJ67VBTh6iAciaM/HUEsUEMmHkZNBO70Qg5iFqwXqnBdD0OZmFlApdPRMi/i2bPz+O6FvJRDDW/MiGCTtFc7USOmtmwvllfDi/jsi7l45PgkHj2UxlhoHaF2EddvruLff+Mcfvfrl/AnLy/hGbG/2nSu4OKC5Pl1KdfFUtRMQd052o/7DwxiZ6omwq0i6RLbyf1xZcVD1UnB0+cRJb6+aBCn9o/g2ETYLLQT8uq4MLOGV3Q6ZTONlhvDyYOTZoGZjJNHVMLSVVYXCx6ev7iGZ86u48xMDes1sUdqAImIa0Ycw/oOQRGV2XITr0u8z7y5ghcuF+Q6KYfEIJLRkJmCGgm1UWm0cVXst5hvS8nE7Gjjpk0IIYTcDoUeIYTcZTaF3v5BHBwNSpe0gLZ0yq8uVPD737yEf/vcAl643pKOvHSsqw7GxkcwlAogKp1eXd1wMdvAH35vGr//zBy+e61tRNJywcHI6BjGBpPm+aeACL41EQvnpzek8xy2z8+ZkZ9bJ7NZmeeiUmtjdjmPSzMbODtTENFVxus3K0Z8nZmp4k1Jyxlx+n12uozz4ueGCKacjsA4uu6kijwbvo8KtaaIvPVsBbPzq2bq4YFdoyI+2tL/buHyfAFf+M51fOm1PF6b9XBzQwShZ8OrtFwsbkicV5bw0vkFnJ8VEZgNYb4YxA0RuYtrWRFJMewaH0DMrSMk+V3aKIuwXcNqLYROIIz9O/px+tAABkXo6XOMVQnzpSs5fP7rV/GHL6zguStVXF/tIJEZwRP3H8T9e8LIeMsItms4d7OA3/3mdfyfL67ihWkPb8638Oa0CNv5HGLxDCZHB80qlJprfbbtlatZXJiviSjvxyMnduLRfVGMBDbMqOBL5+bwH75zFa8vioDzBrGmI6IrJbTaLewYy5iFUUQqi7hs4dKsiF4J68pSGX39Azi4axiJYE3UchOXRIT/4XPT+PIbObw21zFisawvmxfJqWWolrfWV6Fn99NRV+6zUdy7K4aBQB5uq4Ybc+t4+dI6bhaiKDhDyDaSmF7THwVWcOlmEavlsIi4jAQTwu6xJO7fn8FUUkWX3I/FNl67so4rqyr0kkZMqaDviwVw375hHJkIISlCTp/ivDCzLkKvJEIvKUIvKkJvAvfuTSGNnAmr1HTwdRHwvyfl8c3zNbw03cDMegsDw2PYMZJG1NFFWxoSUkgE7iJ+56sX8cU3CnjxhthpsYlosg8TIxmz2I6GV2m2cOFmHjfWWqh0ktBFcSj0CCHk7eHUTUIIuetsdckNHQdVEVpXpGN87kYB2eYAshjBUiOFC8t1XFuTzm4gjaYbRt0DZtZKeG06h7lqHDl3GKutfrw5WzEjHqVWBCo/9DnAVCyIdCIkMbWkK+6LOsXGraN5uqUVfTgYQCIeQToVNQvBDMj3QEpHnHyXMK7PuLj5TsSjCOqSlI5OOb3T6IljRnzq0g0vtUOodkLwJA+Kil2d9lfTc04CRS8ueRNB6gUg2hCdThANEQJwg5icGMXJQ7vw8NFxPHZ0AA8d7sPu4aAI36qdRtjNmArJWCSMoGMXmbELk6g1GrLfEcFZx3Ovz+Fb50RIVZJY9jIoSSipTAajA3ERW2VIrKg1gdcuruHF8zmstftQDA2iEMxgzUvg8kobZ66XsVrUdT2TEq++V0/ikbh08upAWleHTCAV1VUqa2hVqgg0m9g/1o/HjkzgvZL+J4+m8OjeBEajTbgNOS/JD4po3DWexJQIK4jF6h1JtRO3UzPFjjots633STsgtowYQVxVexmRZ5+NtGV7KzoyubSWMyukNiWHwVAIp0WI/vWfPYW/9tQu/NypJD56NIon9iWxdyAmotJFICAiUW8KuYf8qaA6VVONbKdD+neNftvjuoqrpyOP4l8na2pq1L31jpBjHfXXwVq+irPX1zG97mK9M4DVTgYXVhq4uFzDhtzHdRGHzUAE+YaL169ncX7Rw1pnGNnAKKYLAZybK0L0suRL3ykoAjOeFBeXe1/tdSdrEEII2Q6FHiGE3G2k92u6oSI+9Fu7xvpahbViHRtV2ZYOvi6133RFHImOqYm6c0TweOKx3gbWc2VsZGsiiMJoeXJcxFRVri9Wm2jpu+BcFV4iQFwRPKrDNju9djxPYzVHjEBzRBh52DEYwocfmMJfe3of/uaHpvC3PzSO//RDY/jlD47iP1P39Cj+867TY3/zg5P4qdN92JkqIt5ZF1FTlZD1LXjb0F6+hK9xqdTUUUtP1+L3kyOoFNCnqdqSXk/So510fU/dYExfx5CUNOzGr37mCP75XzuMf/5XD+C//8WD+NVfPIJf+fQxPHlPBpnAhsgXHW3S99vpM3kSpYguKzjEFBJfQESTTrRczVUxv1pAraOjhklxumiHCBu5SEcE/fcPNloeqg0PDU+fQdNlXURIib+OlEFLwik1OihJmbSkiWxLnJovzaur76gLQURewEy31GfR+mLAE6f34j//zGP4R587jV/97FH80184hP/6c0fwNz6yC6JdEe0UJRYRpCKWogEHESk3TbGUnuZG8qIG64omSYexl2x6XfG1ZVBffOmnFWhlSefFmTW8MVPEYk0EdSchQbg4OtWHzz11EL/yyaP4rz+zH//0c/vx939+Dz71SAZHh2rIOAWEvbpoPZ02qtb0xZOdRmrvWhuvvas0/91vs21TvoVuWxvbZAexul7G0kYNZRGudRHcLZXa9Y7cy3KvyL2g74HUb30NxZL8YVTaOjJtX5/QEgNUG23U5FuXqlFpGZT7PiwiVVcBtVhbEEIIuTMUeoQQcpfR7udWF9R2SlUA1UU1NDwVFbpioJ6Rf3LcrGTZFUza6W6KqKs3RDrJAXNMhJG+tlzFlHbIu5JAOtS6ZTvkW51u/daRtq0jKkomByJ4/31T+OT79+HT75nE594zil98zyB+6Ymuk+2/+sSQcb/0xCh+Qfw8dSKDHYkKou2cCJVaN65taNpNJPaF2poH3TaiyaTIt4Qes2JPhYw+//bAkTF87oNH8DERk6fGytgRXkGitQSnugKvsgGvVkSnqa8H8ETIaWOlssgKDYN29mXHHBVRoSM+bbFtS0cVzfOEOg5nrdEUMdMQFe2JsNbjgaCkQcSaLmSiI4bqU1OrqdZFQmJhIBKWq526pFuEj6TdjmHJIZMAFVldMS2fXquOerWIRrmAVrkk30XUK0WUKzWsFpqYzQKz+QgWShGzqA50OmS3cH072XtA4zDjh1uuW45bThMgn7KjedfVOK8slPAnz13Dl19dxhsLDqbzMaxVI6i2VOQ3kQ6XsTOZwxMHXHzuvZP48IkUdsZLiOn78CT/nqTFv9dcV2wgBhc9JcLUxqEuJCIrEgiI2PLLQH13sQcEm0LfNvlCGYWivm5Cy8e/J/Rvwfo0VpSNRr2JZkuvUX86/rkVis2/vVajMWUkF227EwghhLwNFHqEEPIXQrdDryNeftdVOrnaie507DvBzAIbZr87omMu062mfIvMk9Mahm7Yf1qFb6/Gtfu89a2fGqKRKV5DgqrAaZYQbOURbW1sukjXhdvrXZdF2NNl/8WvV5WOta7EqCl8Kzo2pZ9mFEgFg4nNTjU0aZRM6tRSK6bUBh30Z2I4fXQCJ3ZFzesj3GYOV24s4Pe+9Br+x997Dv/yf/8e/j//+ll87aV5FJoJM3VPFyMxeTfhqriz4evUShufOBEUjhnds2lSc7ZFVegI6UpOxBj0ZedhRMMBHN6Txok9MQyFK8g4ZaRF1PUHGphKA/vHIhhJeSIdKxKTnRarqW9JFqsiwKv1lohHFdMhFKptvPDGFfzWH3wd/9/f+Tb+5b9+Af/iX7+Cf/Y7r+Cf/87L+Bf/x6viXsP/83dexf/079/EsxcLKOpiMpp2+bR3ghV128tSz/tOR7703rD7ii0Jk39JQ82L4o3refz2H7+G//e/eQ7/83+8iN97LouvXABeno9gphQ3L13Xd/xNpnSly0Ec2yF28EqSsRbabRFUYkclGgkhGRNRJwJRV3MN6cqxcjf2y7FM1L6YXe9OTYfNgyL5kE11ugBLW8rc0x8nulM4tRwc2bd39NZdqZvmb8BmSo7YO8T66R700cC7560jhBDyg9jeQyCEEHJX0I6odGq7/Vl1OoXSdmi3d1Jtl1WfZdOXQ5sRDRErbdn2p7bpeROE9qA9FTd20p8KHF3yXqcsWvEj6PCIXGFQMShOD7XkO18Hbqw1cW6pg7NLIbyxGMbrixHrFrpuMYrXFmN4dUm3A7i6HkS+lUTTSUhubn1ZuqLp0E68Pr9lRr0kTWY5fkm3IwIrHnSQCrURbRcQ6xQlhDICngirmIuRdMgssqITJ1cLdXxRRN3vfGcZf3QxgK/eSOG5uRRulPtRcfskfhVCdjTT5FVs5Grejc00PiswrJSwNjOWkA8VYwurZZy9soLVvE5MjCEkLd/JvYP45Pv24yP3JPDozhYe2dnBB48m8Vc/IMfuHcZoqCxCSEWuXcbfCBIpk1xRp4fmzCsi2m4I0WQK6b5hFJsxnF0AvjsTwNduhPGN6SheWk7gRnUIV4t9eHE2gO/NuLKdQtHpR6MTRqulK6zqVEm1pYdoyEEi5CGOKhJOFTER91ulq831bd/ypSJap6UO9KcQiSaxsN7CN15fw//8h5fxD/7X7+Hv/Nq38L/88TTOrSbFlgNiqyBGh9IY7otIWdTRajTNSHPb1XcxBtCXiJiX/e8fAMZDJQwHy9idaeKBA0nsG3MRdopiWBGHYn8V2F1Li5O0aD5U7Iuo09IyyTQCVf6JHU0JqRCX8rO5km29z+U6M6qogRh0Wy9Wv1reekzvZ3Oq+6GlTQgh5PtBoUcIIT8CrOgQpyJItvStZKbzK59+h9aOTBnZZvZM91U6yfYa26G3fk2P2Wzpvg1BZY/Imo46OWvC8UPqVu7mMgdNOXd1Loff/ZNX8T/8xtfxq//q2/jHv/E8/uFvvIx/8Jsv4x/+5kviXsQ/EvePxf2TX/8efvU3nsG//solXFlzUXUz5tkpm6ZtmFGaljhJs3TI602g1tQRKBFhrofRviDu253GAztcPDjZxD1jHkbCZeh70DTdomiNyNFpn4moi75kEKkoMJBycfLgOI7vH0E0oH512qi+K1DsqLYR/9YuKgdUiGkadMTTjiBtClINXPaa8nVxZgWvXFnFWiuOmhNFPOLg4SND+OWPn8Df/+Rx/MOfP4y/93MH8VceHsDeTAlxL2feLadLsaghVairSMqV27i2WMRC3pNcxEziD4lo/MRTR/HU6QHcs6OO46MlnNrRwEfv68ff/umj+NxTe3B0vG1esxHo1M0zdJqmXKmKUrUp4YbM1MiJ/hju3dWHU5MdY68jQ3UMBEQk63v8THlvoTbQ8tcFYXYPh/GJxw/ir3/oMD50Mo0TY23sGWhjR78rolosUyuhWauae0SvarRaaDabJsS8KNZsqYO6F5fiCJnXWXzg3h34q0/vx8fuieKjx3W65yg+dv8g9vTVkNAXvDv62gm1rX4GJDHde7U78qg233Qq+kyZqR///lHhvHW/6nmVgfo8pL2ruz96aNjmGr8UTCzyaZ36JIQQ8vbw9QqEEHKX0RUxRzIh3Lt/CPtHA+al29VaC2en83h9uoQi0uZ1CNpZ7Ys54m8AJ3bGEfXyaEsn/Mp83izBn2slUHekpy6d5KjbxLGd/Xjg0DBSUMHQxMJ6BS9fWcdcQVdwTBiB5XeHTSfadLrtXttzUap3kK142KgHzCsZ1mpRcRG7XfVdSI4FsV51kasHUe/o+9b897i9Pfoc3ZCotAM7hzExEDQLqCQiAeybGsaj9+7FY/ftx0hfDCvLS6hVG9gzNY5942nEnDJiwRbSiSAG0yHsGIzg/sMj+PBDu3Gf2EQXDdH3C6oNrq+UJb8bWCiF0XbD5j16Dx7ow3BEXxpfw9xaFa9eW8fNfFDEXEJSJflXsSeiolpvoNlqmnfzpVMxhHWBFreFVLiDkYSL0SSQjuh0xSpajYpZpCQcsIuA5MoeXrm8jvMLdZRF6uhCLvFoGKODGckjRIy2MTGYwPGDY3j8vj14+sF9eOrUDjx+OINj4wEcGIuKsGliemEduZoILSnTliQrE3exf0cfJjK6wmgN6XgIe3eN4KF79uLhe/fL+QCWlpaQL9XM/aICyIgc80OA2ryNVLCNBw+P46cf3oXH9kfx0P4EHjk2au69e/b24X0i2p66f7fch0HEXMmb55hXVHznjUXcLIRQ9sLo70thz3if5L9lXsifFrG9e6wPJ/aNSlmM4eTefoxnOog7JfOuPX1ZuT4Tqa/2ePW6riIbFxNHca++XmFPXO7uLEIiaG8s5My7GBcrIlXdtKQ/LNfWcc/+UZzel0HGzUuOGljasPfxzIYj/pLiT9/d52HvWBKn9kncyRaikq6K2P21q2s4P19BuZOU+/Kto8yEEEK28H9eI4QQcjdxAtL5tStmem7EPBtmpjWq7tBpaqaz3JLurC6GoSNidiRDV6a0UzZNl76LFW+Kjoy0JNyWG+pO79TrxN3e35V9Hf0wU+lkS1cy1PeV1dwoqiI0qiKEqk7crABad0VQiqu5cVRd7ZQn0FCny/8bkaeCx4qLt6AjMx079VRf8v7m9XW76EinD51ABP1xYE9/Ewf6Sjg62sKeQReVYhaXbizjxnobRS8FNxCzq0S+fy/+7s8ewt/6wChOjdcRqa/BE4HmSDraIoXstExFtkTsqIBVAerpAizi7POPXWt1E+vocKEbRKUVwQsXs/itP72IP3q1hHPZfsxWMkbkFmptcU2slVo4N5PDSxdXsZCH2CtqBHJD0tBqNkx4KkJm15v4o2ev409fWsa1XAr5Vho6QDkYqmNPsoz9qQ0cSK1jR2QNyeYSQo0shtMxDPSp2NGFdTpmxc9rEsnrInAWRbiWkTT3R0bE1q50Awf7yiJ0A9gzJPKoI4JIBJJ5XtOMomrm1AYiFhMx7BwfxICIVV1cZSRWxeHBGt6/v4NP3BvBBw8BRzNZpDtraDRqmF7Vl9jP49JiHZVAWkS9g6+/eBHfeHXarNpZcTISegCJQANjEtZkXJ9hLKJVzZtXOejKmU25J1pyX+viOvpbQkAyr6LTPMcp94KKQB2ltIsOdcfiuqN+Bt3V+1au1/tSy1WzpGfN05VaeDoSKP90pM+ufmrWLZV99WXGwo0jhBDy9nBEjxBC7jIqQvpTUfMy7LEBESitBrJl4OyNPM7Olk2nXsWaqpFkNGj87RpNodWomlG3C3NFvHo9h1wrLp3qmIaISMDD3skBHNwzLH38OqqiO66vNvHytTzmiq4Z+TPT47qjeOZb9YA4FQTmkOxYp+JMD1gP5ku623bBDD1vut5y3Haq7XQ8y9bUOYsJy2x0UK/XUSpJRoVINCJaN4im9NRrTQ/lZgcrhTbOz5Vxfr6GxXzbPOcWDMcRDEYkjbqkfktcGxulBt64vIQ3r62jHsjAiQ2i1ArhylIFr1zLYqkiIkIE624ROAd3DiHmttFqOSJimnj1Wg6zhYAZ0TPpthk1orjZdrGeq4rIXMOluRJmsx3czHq4otdNV/D1N1ZEwN0wC8AcPHBARJTmrYmFtSKeF/F3fcOVcDNGAObLLcwtbiAn4rAlttdn3FSM1CTDNX19Q9vBhoioK8tNPHNuHV94dhov35DydfrRFDGtL4qo1RrI5fWZtw4iMTkWCJtptroCpb6CYKXUxoXZnOSrYV5eruF3S0RNLNdpObURdPW7hXZT0iKKvyOiV8PQl9mr/Sti54V8C2duVvDFl+fwDUnPXCVtnhWsiyCr1Goolqtyo4QRiiTN6qRNEaJ1Lyj3YwA31+p46cIKFgsu3MQw9IX35XZY7uccztwoIttKiA0iOLRnDAcm0wi0qyb+y3Ifv3K9hKVqzPxooPekyrUDO0dwcEdGBGwN9RYwt17H63If6+qkOtqpuXFFOE4OJ3FoahB9Mcml5GVNbq1Xrm/g0lIN5Y6+g1DuA3v3EUIIuQNO4MAjWy02IYSQPzc67Ww4E8HpA8M4NB5EHHlUq3WcEZHymnSM8x2duqkvOod0YgM4vX8YJ3cnEPNyRhReupnF9y6JiGjrqJrt+EZFzBzf3Y+Hjwwj7RSkM93CzdUKnr+8hum8ChsVenahFivc3ooKBHvq1s6xXnP7eJ0VE9afbm3t3Ql7RkVHRGTQYLwtHXTppO8ckPx1EOpURQQ2cH2xiDPX81gohiVfCSTCDnYPRXDP7j7znr+QWzWjm3OrBZy9sgg3EMehA/sw2h9DoNPA9GIOL15exby+zFyExYGpATx4aAijkbIRDXNrFbx4SQRZLoCyk1LpuplmHRtKRV2MJEUstaqolQrotJsIid7WvDV1SU3JwUAqgo+/5yh+/vEdGAuvwm3X8N035vEbXxKhtpxE0R0ScRSWcNsiM5qIuy0MJ4CjuwdE5KSQCLYQcBvwPA/r+RouTa/h+nIZG3URRyLwVbjrqK2O7Or4lKZ7INbCsakUju7qF9sFzPTGarWK60t5uV9yIuSD5jlJjdGUzFamTBhRp4m+SBvjmSD2T/RhlyQoIfsBs2KrCL16E9fmRSCJkloWXVn09Kk/TYuOkor46jQRc+oYink4PNUnLoP+uIegXK+vR7g8vYSZpQLGd0zhwJ4JxENWWJ6/uoiX5Z7eaNqw7j04jgf3pdDn5k2+Lt5cwwtX8lisJsVmOmIZMOV4z/4x3L8/g8GQvl+wgaX1Ml6Scru2BiNo7d+Gh/3jCTywvx9TKV1Cp4qyqMKXrqzgzdkKCp2UpCAiuXv7u5IQQt7tUOgRQshdRqdmakc45jbNwiMBr2qO6/Nu1U4M7YB29m0HNSCCICKd34hTNq8y0NHAZics/uLiT18HoKsbil/PiqhkoI5gW5f915cuhEQ8REXkiV/XPp+nAu3thN6PFpsfMxqoy/KL+AgHrBhyRbio8NHFPvRVCU1Js5yFTtELiV+RfQg7DREmIpAk7c1OEC2xgY7IaXgqDnQkSKcU6mhaw43LeV13U0Jyaggbe7SNrfS8TkfVZ9rUDFbqiY2DDdx/aAQffPAgnOo6zp89h4WVAooNoNbWCYMBZFJRnDoyiY88uAvHh2uIOxsoVj380TPT+J1vLuBqeQjlgAounZIowlDSrwvh6LRFFWchEUvmReqOTtD00PICJp+6kE1Lvu0rIrTkNGW2kLS89F1+Koz0OcywCHoNz9N3/3UCZqS2Lteb5y83Fd7W1ep0sqR536DEonaKiPhU+2u+PQlLNexWOvRdgpIOMz1YnISpKbLX66vJxadcG3Hrcrxlpq42PbG0lIe+nV/jcL2aOafh1KUsdIRPRVxIjsU6ulppRURiS9IfMlOEm64djTTvz5O/jZDYKIoKQl5JrpK8irCrdyImryrgVUbqAi1hFaCdCsIanqTLCYRQEX9l+TtquzGTfvuDBCGEkDtBoUcIIXcZM51MalZXOvw6uudIJ1qnrZln3XQ0x/jR0RYVZbqioE5V0/eT6eqRclT8QMSOjjFpUPqt3XHtmtsnmuxYVVs6zS3xq51s7RgbkWfC1Bi2RMFfHDZO06gYkaY7mk9Nr6bNTAi1eyparAf9MJu2065b6k/toE7zYyxnRJV27j3XPqvliHhUgWfyK/70amMBETHWQop+exhNdfBzT+zBX3lsN8YiBTTLOazlGljK15GtiIiOxDA+lMHkUBQjkYpZIVNftH5mpoLf/cpVfO18DWvumBGRmgaz2qjEqQJRE6rCz+ZBMPY3h63rntlaYVX39AoVNPaIFcgm9SYQPy/Gj2zbHMmW8WPj0WiM2BF7mIhkT+8rnaqrwXbEPnqtXcVV7xH1I+f0oAlZPekx68xh2dQtvXe17GxsKlD1hwRF7tPuS+b1udK2xi3h+u+H1Of17GvpVeqKHDQCT8/Zp+v85/bMi+rF2fyKbwlD/euu+TAZUBFtnsIUf5IXU+4qOtUmtlw1HkIIIXeGQo8QQu462n1Vpx1W2yXVDrVZZt6csR1X2zXWTqsVNt1ervFh/nU79RqeOl1wxV6v5+xRE4rxZIWAFXmKOfiXgqbA9O0lX1ZU2HybnPnJ7R5XD7qpUs74lz0reKwX32Z6xu2KCbtMh1pBbSf7RsCI0+tEDWoYJgEmDvElouXQZBKfe/IQnj6ewnhgQYRcXk+KNw1D3+emQloXFGlJMC3UWvb5ui98dxpffW0d87UBlNyMxKXPhWnAImDNM40qTjTtFpsuP/WSUkm/SV03LRZTUva7m3//nJ6xR0wuDMa37Gxd3d3WHxDknI6zqYgztpB/Nm5FfJnjFntrbMZsw9jcs+LJP2rLRS/Qe02tr+ckbJMR62vLh8XftvvbfagTS5kva+8tv/a8+ScH/HyaGMyGbvk+xXXj13961IZJCCHkTnAxFkII+VGw2TM3vVX50g64FWP2qHag7Xf3vznaPdLdN13bbftCd8MXTH5H2Syk4ke55fsvBRO7nwTJpE7RtPmQf93j5khXoNnPbXQ78/bbP6efVtgpZjSqu70ZqInLdv59UdE9g05bRRwQi8YRCEbQEFWhkxvbXnd6o4i7equJshxcqYbw5mwDf/z8HL715gYW6ynz7JhOe9TRJz9Fllv37ZYV8Sa/3X/2jO8094okSDZ0pM+GonJLR6nsefNtbOdfaUPSrJns6bXGr/wzNtBte9b67YYrYeiUSROG+NOXlFvbbKVdf3jwr7dHNG02HPWl6bLjqDaNVmjJtqahKwTVn7nGZmvL2QC7PtSnfvpxaXjWn+7ZdKlP60+PGjFsL5L/W9fZeKwvQgghb4UjeoQQ8iPAjjxs74Tq/rZjppO6Hem6+gc2z6l/3d7ae6sfHz1765G/VCQpdgRJN1VE2C0f06nX/8aPzYzt6Nt97cjbLUVPqhX0vB6xPu2WOSXYa7cLAHutxfVaSARaGEkFsGcsjgNT/ZgYiiEdbSMW0mvaqNUb2CjWcH2xgHPX1jG33kKxra+biInEUZGnAknj8WP34/bRcGyqbFpvd4oV/IodhVPEt9nQ67anWo8o9nr93H7WHpUj/kE5YIWwOvW/dYUNWfcFFavmsPVr47TSzYYqe5Ige6UNxQpn37/dUrau8Y9uv0r3/GN2f+vbD8H36Y9xb11p7WRFng1Bz/jp1U3rnxBCyJ2h0COEEHL3sX1y7abbDrr5L110EUJmdMkf5rkDb9co+RJgC/X59r5vx4xhqRDrPjeoL02PBHUBFH1DG8zrCGrNDhqdsC5JIuIugI5rxqkMd5om6IsQPy0a65b40jE5f7zK5F6+xZnRXUWP2GPWSrot37eqxx+aO11tkmPO+Ge7abkNc/S2AMxVcsL37Yfy1qu/H+LbqtlNOp3tI3zd8HTEUf7pFFS1ii8wzeivJGzLhvbLbhBCCLkTFHqEEEJ+9Pj98R/Q4vh999u96eW36YQucvD2E28z0mMlhBVXZgKieunoAjjdBV30Gl0sZ1OE2m+94s5x+9yaBg3dpkGFjEpIlXFbC4fYkTwVgWbPnPMxUtEImh+MXn+7KFP0kJ8c/7QJ9y2hmhDsZpfbw9welh6/xbfs3CnUd4qfJl+8mbDFNlZai030BwHZsp/6XJ/d28JeRwgh5M5Q6BFCCLnraLfdyJXb++bvAONdr9vG9xdaPxh7uRUVVljY/Vu3NFKbZivW7NRBc9ioH99tR6/r+vG3xelza0boiXAJBzzE3BrCqIk3B412EHUvhAZCaN+m1KyYuVM8b8XE9H28bbfZljf/oH9kmyfB7N0W5nahdwty/J1JUqUbiHrXTf+7u2lHPz1ExFbxQBNBYyt96buDWktfrhCXs/paCONZzujFviOEEHInKPQIIYTcZfxmRXrl2zr0P5Cud/X/1kveLhC9wly1jTtfrSNpKh42X2PQvc6Kqy38o+qsoFDfbxeP75StcG1MQCQE7J/M4OBoEEnkjWiaWS7h0nwF+VYMdeh747ZW7VS2pnv+YEzMd/LqJ0nYOq0H/RN3Dt/k951F3RWA6vkHXSB2MV7UPmIXuc4Itm45+EuvhETkHdiRwv6RAJJOXs63xVYVXF6oIdtIoqWvtpDrbA50aqfyg+ImhJB3L1x1kxBC7jK2A6odWJ+tLXvu9u6pdq/tkbfrtvrX+bydP+vzzs5Kj1uxR94a2p383upP0qy75pCVNbppp935ocq3HLT+jEf5tsfU6VVbyJ7umtM2LP+8/eymx5xQTzraZs/Yc75Ttn/bbRuWhKyRmMtsLOp017/CbvnhKt2ROXGb+d3Mgx/qlrNY/zoddCARwIcfOYzPPX0EHzgxgIcOjyLg1TB9cxGFWgfmRepmuqhe76fo1jC3jt/qNK3+6waMM8nSf/a8WbVz022NTm7aoPu1hb3aKjg/DrvlYy/rnutev+X8uPzrxQryERJzRNw2Ik4bISk3kxbJsInLfIoHz0Mq6uCjjx/GL3zwCJ48mcEDh4bQaYqt5laRr7tou/pqC6WbF4OGQQgh5E5oa0QIIeRuI/1P7dDaju9WZWuez+r2TW0312KPW9/+8VvP3+b0WNfph5UW2zvZtkPtO3/ZfnVWqFihdicnF1hu6/DrtmJP20+Tu65/k3odpeloXLoUv130RLvlpmsu/myIfnh6oU25CcKz11sfvi8NVbY2BU03su5okF6tR7pHt1AhaESF9ROQyE0ZyLdJnRMUpy+w12f1fOuJ031zlY1ty/nv77PpsrHb9Jvtbvmp+Nt8+bccD3RaSLo1DAULGAksYyy4hCGsIN7OIezpi8e7qfenepp9+fQj3mR7Sra2/X3d8vPgh+GfsWdtajUeexdo+uVf916wJ7fi1kVQrJP70bwnUJx+G7cVhz7n6MsuU75icw3XvPNRXDISwv6JPjy4vw+P7YvhwZ0R7Eq1kUC9O46pr0MPSkQBBBy1VRWDgQLGnHWMB7Poc3OIoih+GxJq25aB+Tvx7WXR1Nx6hBBCCOtEQgi5y5hOpxEW0tGX7YARP3pGq1w9qx1V6R7r6o/mOTC/i6pCo9t5Fmc76FZ2BLodb3u17USrswc0DBVV9ortotE6K2ZUeqlPxR5XNIDvg8Zj/KqA0bBtHCZa6fDbl5jbONviWpKNtqvx2GsUPxWaRl9wqj1sWtWnFYXqx+Z/e1xd4SBndeRLpzmaF5xby8q2xqWh2uO+0LFixZ8UqGHZ+NR3QGyuzthTD8oZK3i2pgPafxq6FauKvlLdhCmeXDkUkET6OTTTL30RJH5sOBYVrxpfUMpbXQAq8CQAzavZ0vKx+fDzoPt+6IrdtiLNv8aWcfesxGnTq2nV/MielLl19lq1hrGHGkO+t8Lz7apXavI1JD0WlO+g+BR7d8NX3yZVkk97PiT+5Vo/LRq2bJvQvQZ2jUTwix86hv/mP3kQ/91fP4m/96mDeP+REPpFxAW9qvizd4r+U3RbbRTqNOW7KfHZ+9qUv6RjU3CabZsne5UNyb+/CSGEaC1JCCHkR4B2xVvSYa0j3KlKp7UuHduGGcWJeE1EOw1EUUMMVcS8CqJezXRubaVsO+BbnXTtBNsOvNnchnZtXREobqclYqJhO8gSvnHdznJQjgdkX9Nj9s15ERxmVOxO+F16XwBoh1pSJR1wV67XPEUkT1GvbFxEOux6TEWRJs+kXQWAjtRIx99VkSNxRiT/EclnxFObSDjiPyj2CMu1+rRa2JF0GsEHSacnYdbkXAVhNGRfxZIeb8sxtaum34oOmwfNi8oTnQwptpUw1b4RcZo2tUFQwtaUKTrqGDThaJnUJB9VyVNd9tVOKju6AkLsr6JLt11Pc9WSsKuIoyRpLklaasZKVjzpNSpAbIpuQaLdEli+MLH4R/3prWpHLcugxBORe0NtrTbSJUmsXFez2jCs2PbtYu+1kNxTer8FxN5q95A4Pafpjog9I6iYfFuxa8PwuwMmBUbEWSFlba52Elt2pLw7JROGLiUTMPeDpNXEIXGLHdXOfho1h1Ep06FoHRPxMiZjWYyJS7ob4r9g/UoaVMapsLdXaaxW/BntLU7zp/eF2l7LKCZlFVW76N+M5FFHTdXAGob5gcCEQgghhM/oEULI3UY6r9Ggh+FkAKMpB4MxD6mQdFRV5EiHeTAOTKQd7OgPyLeLgag+v1QHWnW5VLv/OkLSFRraa7XDTqZjvyUGtAPsIex6SMckjISD/nAL/RHPuL5IW5x+d11UvyHfkLSIjGk30Wm34bnarbad/C1M6EZM6FZA4o8HW0hHWiYvY5L2yQwwnvQwkvCQkXhDjnS2RTzqO/L0WpMH+daFT2KiGYYSagsXQ3FJr/hXIaJCr1/SPpaWc+KCThONhnTkw655sflIQs/rKowq8tqQIOSY2C7jIin2bYtfMYGJLRbsiF9gON4xtp1MdzAm6RuMdZAKighy25K+FtpiXxVuAclYJmrTNBxrynVtJMOS/lYDLRF0OgKq6bfTOnXcqIOk2G1MynM02cRQrI6ElKnXapmVITuOCtuuHW0R2WvCHZzYO4gTOxNIuyU52sbluQ28fC2LtXocTScucQSkWK0g1mfZ+iIdjHdtPJbqiM06SEh+VehBhGhHM90tI1M+UoJpKdsRSduQ5KNf8hwLqpivip1aGE64ElYIk32S16TYI2TFOtqt7v1lR+Q0MBVY/oicvkkwJWWlZTbe18GOjKQrJfeQ3Fsqyt12Q9LVNjYclftgIKbHW3IbiAB0g5J3YO9gEA/s78PefrnHOwXU63VcvbmG+dWaJDyBYDAsqe+gLQmJBoFT+4dxciqKlFuEJ2V1aXoDF2eyaDtRDGfikg9XbKM28eR+EOErArMj5WpFni0rTbs6Qgh5t8NVNwkh5C6jo0pTQzF84PRe3Lsng7hTRi6bxfnzV1CrNXH44F4c2DOBsaGU9Kk9rG7kcP7aPF69MI9zM3msigAou2nz0m4r+LRj73fubRdWtV9Q4hnvD+GhY1M4MpVBytERproRRda/dtqNd9nS8RX7PNRqoY4Xzs7g7HQOeacPNUcUUhfjvTvypJ8ht4NBEayHJuM4PBHDzuEY9k5kMCKqUUfIWo0mltYKuHgzizdvbOC8fC+XXVSQ0vEXEVRt7BiI4f2n9+C+fSnJURGF7AbOnLuOYq2DQwcPYv+ucTMq+fXnzuC5N65j5559eN/Dx0TQiXTqNHBtegUXrsxjsK8Pxw9MYcdYPy5en8cffusMFgsuEpkB7N85IGlMYs9IDHtG08iIIHRFOFaqDcwt5nB5NofXb6zj/FwJG9UwAqE47js0hfed3omJVAXBdhELKzl865UbeHWmjpI7KOnXhVJUrOrIVBOnDgzjSfE/mRGBIYL9/LUVfO2lWUxnXVTdpNg2JGZTO4vd5b+OQqnY/NyTh/ELjw1hIjAnxxv4k+9dwa9/6QYuFoYlnmGJI2Rs2Rd3cXBHH+7b04+jU0lMjcQRj7goV2q4uZjFpZlVnL2xgquLVWzUw1Ju+sqBkNi4ifsPj+GpB/YYYRjoVHH9+gyu3phHf98Ajuzfg71TQ8gkg2jUa5hbWsc5seerl1dxeaWJfDsmYSXkftNRPCNvRZx72NkfxsndYvPd/dg/kZB7LSzn2lhczeLi1SW8cfEmYskMTt9zFEOiNNudFs5cXcQ3X74OLzKEY/uncN9UAI/ui+LgoNwNcn8Wam28emUN5+ZaKHUGsVRy8MqVRdxYbyIRjeKvf+QYPvtIBpOBBRHddXz1xRt4/mIOqdEDOHhgDyakbKMhF4VCGVdmVvD65Xm579YwU3BQ6OjKnBERr28zqkoIIe8yOKJHCCF3GR1hUXHzAREFTxxNSSe3jJ3JCvYNOXjfqV146PgIdg60MBItiZNzGQ/HdmawZyyFZq2A1fUsai3HLBiioRnRpaMsHdd860iOjhbp9LsdAxE8+eA+PHV6AvftCOLkhItjk0EcngzjyGRk0x2djOLojpgIiQQGUgEsLC3hxsI6qp2oGS1RbaejOToCp9P1TCwivnTVyPef2oNf+vAJfPC+Adw30cHedBWjkRKGIhWMxGvYPeSKGMjg4M4+M3Uwu76KekMXzhChJCJptD+CD5wSUXVM/AxKmpM1EREOHj05hSfuHceB4TbC7Rymp29idn4Fu3fuwNMP7cOpnQ72i53GY3Ucn0rhww/swqndYYynK8iuzuHS1ZsIR2J4+j334bMfPoL3HRFhMtrAzkQZQ+EyBiJVEVpNHBgL4Z49fSIC42hVCtgQYd1sdjAykMQjJ3fgkUNaRg0RcAEjQqfn18QuEbRcHW1SW7cwKMLxqdNT+NjDkzgx3hER6mB2YQVviLApNINoOiLKtZxU4ZktpYNE2MGJvcM4sTOGtFswYV2b3cAr16Sc61LeItZCriP3QwAffWgKv/TBw3j6eBKHR+oYi5cwKDYeSzawfyyM+w8MYd9oDO3yhgidImpNnVYaNCOuJ/aN4kMPTOHUlIODA02MSfmc2JnGk/fvxcmdUexKyr0WzmE0VsXekZCkaQCjmQhK+SxyhRLqnkrNiJS5g2SohROTMXzmfQfwmffsxqN7XBzoq0iZlzEcqWPXQAgn9w5KOBHslXv69L4kjk8GsEvug3JxA9euzWDH6DA+8eQ9ePxIGmOxHBJeTsRsE+Ggi8nhDI7vG8G9h4YxnHYwN3sTC2tFhEJh3HtgVP4WxFZOwYyAR0MBHD+yHw+d3Il9I56EVRSblDCaknKVNB7bMyAivI41uedK1baIzZDcy/o3Y+9n31ko/ggh7y6680wIIYTcPbrjZ07DjOalsYEdqTru25fGrmEg0skBzTw6rQoCbX12qow+N4t7dgTws4/vxSMH+8w0P32ezqId1K4zo22K7cK2vQ6ajQYa1Qpq1bK4qnHVbc4/Vhc/dflu1nTanj4H5UjHXpsBvyO8DYnG0SmbkSBGB+IYSjnmmbRAq4imxFMqN1CotFBpeIDXQFI65oeHWvj4wxP4wIl+DISloy75Ms9riXjUZ7oSKCLT2cCuRA0PiS2OT4TQh3VERQQEOjXx1/Ur3zERjAkvj3RnDQeH2rh/dwTjiQISzobIx7L41/GnDtLJKMaHkxiI6/NbeUlKHuVqEflq07y+oNYUqdauGvue3uni50W4PHIog1SghLWVBczMzqMu9tBn7SZTLdy7J4U9gwGEvbJNj5hChfvu0TRO7MpgJJRHvLWC4uos5m7OoVRpSg512qYazJa7X0KKlRm+1JAtyZ+ZYKiiXUIOyjUTIoR/6tH9+PnHd+LYYAn9nQUEG+uoVUoolmsiYBrmNQP6bjm1w1/74CF86J4BjEfLkueqEecaQwh1Y7OMt4rjY0HcvzclYrGKSDsLNApyr+kzi+JH7DQq+XjicAYfeXAHRPNBn7PUfIZF3B8cz+Dn3nsET5/sx87oCvraCwi3NtCql1Cp2Hsp4NVxUsTao8fGMBkvI9leRlLKNtoRwabPCJrnLdXVJX1NSZ/aUp9l1AVpGlKG+txhWcpan/eTstQ8iDP3YndEWW497JrImAVdEkH9WykDrZp86zOudWRQwN5MAx8RgfveE2MYiUm4Uo5bzwhaRwgh71Y4okcIIXcZHW0bTkdw34EhHBxxkfSypnPbko5stuphbr2B60t1LGY9NLw4gqEwwgG7iEg8Kt3kBnBlPo9sLSBd4JgZtdEeqxnMU7Gg2/Kt/eFQwDWuVCrj5sIGri0UcXmhiksLta6ry77v7LELc1WcmytjVvr/Ov2vrc+XmTBtHFY2WAHYrFcQcesYHUzA81q4OrOCVy6v4bUbVVxYbGC1FkYo3odEJCAioopM3EGrLf5mV7Fc7EjYEfSl4zi9bwhHRiG2yCHm6MItQFlEYrbcxErBw401D6/fKOHmah0To2M4dXBYOu4Vu/iHq4u8dJATw6wUPSwUQnhzpoY3bpSxmGshFAljaCApokvydmMDL18p4LWbkt+VDorNGKLRJOJBD1HJRzoVMVMhr8yuYSUv14YjIiYGMZYCEm4VsWgUK7k6roodayJNdVqlPsv3xIkdePKE+AuLKG2VcObSIr75+grmSklU3Ux39NXasGtJY0Ud0Tu5dwgn/RE9ETpXxfCvXCtitR5DMBzCIyem8PFHduBAfxlxbx1FKcuzN3J45twGXrpWxrUVuU/kPkjFo0iEWhhKuiKCXMwt57CUk/tK0rhnxzBO7e/DeKyEeKcgZdFEo90Re7VwY6kiro6NahCdYByhoJSVlEE00EYgGMSNxQ3cWK5KHBEMJIP46CMH8ZFTw5gMr4pwFIHXbOLmetOk+dVrBdxYbaPSlnIX28VCLmLBhhF2EhquLpXw2tUNVAP9SPcPmSmp+oxmLGTtUW92sLRew/RaG7M5B5cWm3j9ehFzeQduOIp7Dozi+FQcaadkhGtLxGFeBPtitonrixX52/FQbsXgSj7CEq5ZyEfKpyrhXlvIYznfRtOMUNtRvS1smRBCyLsJCj1CCLnL6DNOIyL0Tu0fwYGRIKJewfQxV8odfO3VOfzeV6/iK69s4NlzeVxfbSHRN4ah/rQZ2ZD+O0p1D5fn8lgQEdNw7XNYdmEUK8HUqTDTRTxULM0tZXH+yqJ55urFywU8f6UsroLnr4qT7xfUXS6JK8j5PF6dLmFaOtlFETJmyqFVkILfGRapKl96XBcvKVfrWNko49ULi/jyCzfwrXNZPCdhvijhn79ZFJETw+TIkJnyF3KaqNZEKImYmV5toukmROglcK+I3kOjrlmtUkd3cvWACIc8vvCdK/iPz87gG2fWcH6pjWI7iqmJEfE/jOFETcRvDR1JzKx09L/y6hL+7bem8cfPL0ncNSxU4si1YxKWi9mVMp57fQ5feXERz1woS54beFXSd01EbyTej4mRASP0Qm4D6/kczk+vYaEYEBHhIJNOYv+OfvO+O9HZIrTquCZCe73qwnGD2D2WwVOnJ3HPpAjVTg7rGwV849V5fO9aExveIOoilrVUfOz2W4VeSoSejmhdmdXFWPJYq0cwOtyHpx/eiwf2RZBxRCDVqvjGyzP4379yHV9+s4bnr7Xx8o0KZtZbSPUNmummiYBIsmBH8pzFlcUCql4Yu3eO4vSBAYxFVRxX5J5xcWG+hP/wzHX8h+/O4muvZ8UmBRRacQwMD5uXkwfFttILwLXZdVycLZrpm4d36RTQnTg+XEemsyIir4WXr2bxu9+cwRdeWMe3Lup9VcLZmyW0Q2kMDQ+ZkTcdYe24YRF6VclbCReXOjh3fR1rawWMjQxjtD8uKWoiW2rjy89dxee/Jvl7PY/vyT05nQ/IXSECNBQ0UzePTyWN0FP/hUYAz51bxh98/TL+6IUFfOvNDZydqcCNy/0x0IeoiMyA20K10cKFmxvGTnUj0K3w3sK/twkh5N0Dp24SQshdx8ox/XZ1+Xv5bjYdXJ7O4asvzuKFaemUbiRxfj2GZy6V8exF6fTXkuZ5Lel3IxUTl3Ch43k6AmTfk7c1vVJDVzQOHUWptV0Um0C+GUCuFUS2qU62G0HkZDvXDMlx6/LiSuKnJp36VkcXZ9HxRxua/ZTQdaUXCVlH0TzpvK+XXbx+aQUXrm+g3hLBkhyUTvYAhvrScNodrIrQzOdEkIl00BUhQyEH0UgArtOS0DTtkimzhL/da0jcl+eK+MPvXMUXX83hpbkoLoo9VhopfdkEmurXTINUXOQrLTzz+gw+/41r+NalFt5YjmGmrBNBE6i5McytVfHKuUVcXyyjFYgjLekaGUhgMBVBs1rB0tIaChXPjC7q4jaxaBAJcfq840a5hYsiiOZE+NZFbIRdFwcm0zg4HpfQyyL+6tg7lsDe0SjibhWe18bMSgEX5grYEPs2HF07dKt0/O/tbEkMf8vPWRu7xvtxYEdGxFtFrNdCKV+T9JYknihGB4YxOTSEkUwGlVIDcwtFFHWU1xNxmgxhYjCMVFhfuyDCp+O/1kBsLCInX3fwzJl5/MkLc3hlKYTzxT68LN9fOytCaaGNitMv/mKIh8NIiy3igTaicr9NDCYwPhARgV2SzLQxt1HDV16awdfP5nC5EMd8M4Obcq++ONvEHzxzTYRoEWUd0ZT7RG4GyVVLvh2UWwEs5DuYFzFd8JJoByIm17oqa67q4UYWuLQexI1CFFkRn+YHB/vrgviSu0Tueb03by4V8PUXZvDtCyIus0mcy6fxrPz9PHu1jNlS2IhsjU9X+EyF5N4z99ydSoEQQt59UOgRQshdRzua+qyWuK5IqzdamBeBsLDR0gmOKDtJ43KtCOZzTayV29JF1ulmIpfcNiIBDwG51l6vYUkn2iyrr/hCwUMiBOwaTeLk3gGc2pvE/XuieHBvBA/tE6ffeyJ4cHcID+wO47Rsn9odMwuzjCU8xDo16LvJNDQVCOa7+6yU3dbn0/S1BUGc2DOMDz+8H5/74GH8Z584jL/7yUP4e588iP/7J4/iE4+MmWcQ9f1qKk4jARF64YBZJMTawncapmOem7s4vYwzInzXvX7knAERCyp0o5IjnaaqAlnjtpdtFCoiDHNYLAZRctVvBlVXZYkrvvU1FpK/w2P4+BP78Ysf3I9f/vg+/J2/sg9/91OH8H+T9D19uh9DMZ0KWDViKBIKmPRp4A0vgBvLZVxZqqusk7MuJkTonNiZwni0jhFxh8aimErr6wHKqNSbuDSbx/W1JqoiMlqbUwQ1f5tWNEduZ/No14sr9ulPxTEQD5l3w0XaVfNqhPc/uAu//KlT+DufOoJf+dRe/Fef2of/4hMH8Z5jKfRFRNSJmAm4DmJS9mFXraDPckr8YtuulZEtVDEvAjjXSqAaGEQ5IPec2HhNhOJG1RWhHxExqT8miDgSY+u95HhNREWkR4J6vzWM4F+XcJZFfJY7MRHVKdRFSDcCGmZCBHIWl26uodKwGfLvG93uiNhU8advS1Th3hFx6j9L2JJEqjxtmLBiaLgqcY28k7OaA/1Ufw5uLhcwl62J7EwZcVoL9CHvxeVYExsVnRosCk8uCcnVUVefi90eih+SbhFCyLsPCj1CCLnbSG/Xdrl9kSYd0rZOgWyiUpMOLMIiEFxxjnSEpUstHWHt1OpUSfEpHea2EXkqBGx3VcLY7ETrEe1UOwiJ8NOFPD762CH8Xz/9KH7lM/fjH372JP7JZ47iv1b32SP4J58+LPtH8I/F/YNPH8OvfPYE/tbHDogIDKPfzSOsI0FG3Ema5VvH90w8Er5KmEzYw4MHB/B/+ehx/O2PHsRnHh3ER44F8J69TTy6u4WHdnVwbFzfV6cLdFQkDJtu8xY9Da/buVesDHLQaraRL7VQENFRF3HXdLWbbpsjKxls4yRa1wi+Sq2FYqUtgsG8plslCNoaj9hqJOngyfsm8Lc/fhR/68M78elHUpI+4Il9TTywp4l7d7exb6SJdKgs0kJfbt4WMSBhq30lHP1cWC/j7E0RkiWRTE4EyaiLI1NJEXgBHBx2cGJHFEORqlzfwvJGFRcXqlirxyTdOq1Wc7RVNjb1ttQUPz/+eT1unRzR0U/JqApjfUG8Tn9MJxzs35HEvXujIszF9ntqeHBXFffvbmLXYF1SW0W52UGxHRGBlIQTjEpodmEX/dZRMTE5GmLjuigqya0ZuW2LqGuL2GrLeU+FVzdFdozVvBBCi9w4xb4PUfOmJaHOz4G9wpH7V6e1Glkl96u+gsKWs/305HoTsl6m50x5+aFofP4/8aWj1rKlTu9Bu63pdFCue6g0A/K3om/1E1mq6ZezDbmkKXnSUDVcW6Y2pXq95kPjNvlRRwgh70JsnUgIIeTuIf1U27+03WntLmuPs93Wjra+nDooTjqpRsjZTrbfTVbMdSqQup1t25E3oRj0qHZgtcubEDWkL13fL4Lk4FAdRweKODaQx9H+HI71Z3F8KIcT4o4P53FipITjI1UcGKhiOFpApFOUDnprM94tbJc8FGjh8O4MPvLYbpzeBUwElhBrrGB1aQWvXVjGs2fX8Z03s3j5ahlLpZAIn5R5TktX8jRCz4SiNvD/WVRE6GsXbLx6XnOvYkCO2P/mqDp9W6COPIlukTzrvg1FP+MRBw8c34WPP74HR4cLGOzMIVhdxvzsEl4+t4hnzizhO2dW8OaNMrJVEdeISZgBE7IZwRLpoHYs1Vu4ML2Cy/NlVDpxuIEgdo2lcOpgHx4+2o9jUxHEOiU0RF2cubKKV69mRWgljGC37zncwqbdpt+341aqBdmw5+S45EcXuGm2PQlLBJmImULNkbRk8czr8/jWG6v4xpk8vv5mTtw6vnZmHV85k8VX3izhy2dLeG0ByDZTkouoDdFE3BV9YkudRmsOmfuomyLZVlEWUNc9ZoygX3KkXPNQasCMlKloHOyLY2o4gb6QLtVSsS+6F0EaE6G8d7QP+ycHkRJhbKSjiUaFm0oxta1+S7okeFuaduXNzftC/OmPGnqtvtLDlfhMPsxVgrFP29jIiEW5XkWhWQ1VnM2XYr+37jD/CCGEvLu5tYUihBByl9jW1ZRN7ZN60u9tibOyRru3Ije0k206serfdxaz1+3MGm9my2JG4OT6VssxC1wsZMXlA5jPhzFXsG5WXT6EGXGzuRDmxS1kg1gWf4W6Lv0SFbFppx76HWyNw3bPO4iEHOya6DfPrCUDdlrmtfl1/PYfv4r/9l+/gP/2997EP/uD8/jtb87g/LJnRph0kX9omCpkZU+n/2l4dvRGR266nX9x+s42HZm0WdQj3S89JhuaZ8WkSTz50tCR8FU8pBMRHNk3hr0TMZFwBXjNBl6/uIz/3797Bf/9//Ea/tnnz+Nf/v45fOF7K5gvRreEnlyrJWDSIuG2vSBmlgo4N72BjUZEBGsEfakgHjo6iseO9GMsVhVx0zAvVH9VhN58MYi6axf86EqlHw6TACNvkC/WpPwaZoqjPuNYb3h4+c1Z/NZ/eB7/0+efx//r82fwzz9/Cf/D5y/g1/79OfzGH13A//p/volf+/wr+OLLK1iupVB3JC3GjmpfFUBdEaTmsiazSLRqQ1Mu5p8i3QBJj257rtwbGyLaNxqoieBti50nROS9976dYoc0Dg3UsStRwp5EGafGgc+8fz+eONKHZCcvQq1ubLk1IrfNMrorok9j1ncz6qzZiNwXIdnWdwjqNVq+/lX6bdBjxtkgTAYEu9/9J387uu/nTf1vxmvQk/ZqQgh5t0GhRwghdx2/Y6ldTuv0iI7g6T9zXjv7RuxpR9f62NbFFey29e1fZ0Pz0fGRlUId331tBp//8jn89hev4je/NIPf+NIsft13X54TN4t/Je7Xzbkb+HfPLOLNeaDQSYnACJowbRp8dEdkh9NGNKhTCyVtnRaaXhMr6wXMLBaRr0dQbMbRCqaRHhxDOpOBLhxjBZSEYISMGYMx+b4l78Z1t4zI6DpjE98peky/u6JMUH9m1EpO6Aql4YC+xa4huWij3W5hdb2MhdUGCo0YSq2keBgw6YvFE/7V5lodTbNxuiJogijUgOtLZcxttFEXkRMOBrB/Io29I2GEvQKarSYuzqziykJeBG1a7BaTGFUk+2m9je7ht571j6jsdXFzOYer81mU22EzipZJJXH6+CTuPzaOob6EGR1VQZhKpHB43y48dv8J7Ns5Zka5yg2g2tHn4IJiXztOth1jcaOCBDml9lV/9mcF6zxjBz2vtghgdjmLczdWsFoNSz4Txsb3HxzB3/zoCfynH96Fv/HeIfzyB8fwX35iHz52XwrjkSxC+p4+EcIao48dXdMfIjpmNNa8yFzyEQuHMDWcwmQGGA5VMJFooT8sMleu13vH5kA/zd1h9iyaTptHm3bZ1pvD3iDmmGJz4193+zYhhLy70FqTEELIXUQ7uSom7FCDdLa3+qOmD2tHVFS4+F1WHd/zu98W/daRDq2kt1fUGqLvR6/KVtp49coa/vSFOXzh+WX8wfMb+P3ns8Z9/vkcPv89+fadHPuD59fxxTN5XFoLmgUuWmYkSULsBmo76DZuTaKOMNVajviTVMip3ZMDeOj4GI6OOjg20sYHjvfjpx7agQOyH0HBTO3TDrvJuZ9Qs2cxtujubx21otDGLv+611l5Z+SKPeBjwhAR2Za0VRto1OWYFxLRF8T+qT7cf6gfh4aB42MdfOiBSTz9wBTG0m3oS7oDIkZ1iqC/CqhJp3w32gFcm8/h4mwZxXZahEkEsYCHuFuH6zWwXqzi8lIJSyVdaTMlAinsJ0Q/b3E+W/m/DTPqpPeFi3kRpi9fWsS1lTZKXhJuIIR794/gb/zM/fhbHzuKT9yfxk/fF8ff/she/D/+ylH8J0/txCceHsU9uyJIBmsmPyYRGp4JfCtS87yeiUesqEq+i8ZuBJ543X7P6R24XmrimTdu4LvnV7FcTYjojZn37R0ZA372/n78jQ+M4RcezeDxvQ0MB5fMi93VPjYeve8lzK5NdAZnpdo0q6bW2hERslHEYyE8KEL2px+exCce7MenHt+BUzsjSLlluRP1iVW52Pzd2NK34k/3NUTr7P2hxwTNh9mzn+pMnmRT/3p8cWgdIYS8u9jefyCEEHIX6MoV0wkVjYSmEzCCShfB0LOmO6qCw9GFQbZEno546OIZHSckPoJyXBfpkKOedFdN59dHO622E6ujUZVOCPlOFFkksSEiZN1Jy3caWeMyyDl9yMt3XvbzTlLkWBxVJ2ZendBxJRwJzpedNmT9DqDedDG7XMI1ETgl6fA7IkL2jCXxi08fxN//9GH8w0/uw3/501N4dFcDKW8JoU7Z5MXPoxU0Ep7sqPDVp8LsmJ+clxOO9MZNp9z4lU/x7+qO2E1HntpdZ9+Jps+d6Um1kxU3ZREQN+azmF1rotZJIxSM4eS+Efytj9+Dv/+po/hvfuEIfvlDEzg+UECiuYKwV1OL2TSpKNGUdJ/9UlsubTTxxvWcmfJad9MmTp2cqRa5sVzE+dkiNlpRsV3E5FLDsvm9FWtFm9ZuaXfzreOOwe50XZuHUsvFC+dX8MUXl3F5PYGilzGjeJPJOj5yMoa//8mD+NXPHsRnH3BxMjOL3ZFZ3L87iAcODmI44SDk6PqVLcmHfSbOjJ5KXGbhEmM7HU3VNS1tCkxZaMxqY/22ybPXy5GGCNhLizX80XM38ZUzBVzYiGK5GUdNVzYRQRfqVI1grleLuHpjHjMLRTQ7+ooDuT86AXFa3hqPtbOumHr++hJubjRQkftO0zQxFMSnnt6Lv/PzR/GpRwdxz0Qbg6GihFszaTRW0+h0e/O+12+bM/t8XlvCkj1dsVNfcSHh6n3j29u/k/VvSp3NNSGEvLug0COEkLuMduFr0lPV99XlmjFkm0lxcZRFjKm40i5nQM7rt3ZL614ApWZE/CaQbSWQb4kQ8yISjo62qRCzcsjv8t6KhCPnbUf2+zmNSzvO2r3vOhEGNgVvReOttx1cubmO77wygwsLwHJjAAUvgWgyiYN7x3FozwiCohym59dxZaGOlUYf1poiKCXPdU9XFhVxKyJXRUelFZD8RbAhdthoxVA253Vxf9uB99FntTTefDMkNkuIf7FHU8RVR6c2Sj5EHBthJmkvNep49dIMvvn6LC5vhLHUTKGEBDJ9fTiyZxy7RzNo12qYmdvA9FobK60MVpsiftsJEcci1kQcGPEjQknXQi23O3jlyhxeuDiPooiXhhsxk0L1XXvnpzdwfaVmXsatUxz9NN9u5U2nAkVsrfmpSX6KzTDWpVzXJT8FEc11Ea8tUUVtN4S1MvC1V2/iC8/N4MWbwPVin7FlUfw3xG4tSVe12UGuHsJcLoDXp8s4N1fFRi2IpsgjFY8Nz0W5Ye22LmI0q4K0Y+1v7zSLjvLVRPcVGpKvRlTsGxURr2lRUaT3mJS7pO+MxPFvvnIJv/OtBXz5UgDPLvbjpdVBvCLuhYUMvnimjf/ti3N49lJd7ok0WrrIkIiverOFVksFmf1Xrnp4+fwcvnlmCRc3YlhqDMp9kEJd89VsIB50RPhlkIlHjEBsqK0aYeQaCeOKntoqLNbWfKhtNZXyN6b5lTCykv41Kc91+bvRHyNa+q7EbtfGLws5QAgh70oC7uDUP+1uE0IIuUuEgy5iEQfVSgWzixu4ulDBmzermN7wRAQmpEMalA6ojpt1EA8HEA44WM/mcWMpj4tz0pGfrWO+4KKmz4KpsJAeq+m0Gja7sJZtm2+PCkL59C/dvMbu3HrYjjzqd6PpIZstYi1XNq9EWC82sVpo4eZ6DRfmK3j+wiq+/fo8rq15WKtFcW25hkvzZZy5WcZ0VkSDCKNgKIZ4NIRatYSby1mxRQlvzJRwIysiSM6b1Ss1Nh0Jki59LBJE0NijgJllfTl5SYRNBctlnTapo0I6zib/xH+pVsfSWh7rBREcNQ+rxRaWC23MrtdxcbaA587O43sX1jFbDGFBrr+60sB5CevsbFXC06f79PUEdqTIKAKvgR3DCRzZmUEq1BShBlxbKuPrry3i3EIHJaffvIJhC2u77ViJY+WGPuOWkLy3Wg3ML4tYXCrh7EwBl5bq3ReFR0UkhVGudzC3msN1Ec2LuSZWSh0s5DwsFRzMi50uL9bN/fOdNzfwJy/M45XphgjmNGquCk8XiVjYvA9P76HppaKUTdnkUaeaNsXGOpqoo22hQMe8zL5er2F+ReJbKeONaSmT1baI75Tca/ric1fu3yBqtQquT8/iwo1FvHF9Xcp6Hc+eX8N3RLR9V1yx6eLeew7i4M4+xJ2yeX3DK1c38OLVoghaXSRGF/sJolprYmk9Z+6dbBVSRpIvydv0UgUXbuYl7CyuLLdQasUQjSfRFLG4sCJ/C8tVvD5TxmU5pz9+GBGnQ30inqPhIKIhF4ViEbNLWVxeKIo4LWEuL38zeo/ojyRaMOL3rSVECCHvDpzAgUf4WxchhNxFdLpZ0GliIFJH2q0i1K6IYAig0IyY0alGUF8Obkco9BmruNNAf6iOOEpwZbvZCYrfGPJtHVXSzrKOPGlV7XdY9Xt751XPvcOq/LY+r3+VioBbQ7ViTz8DnQbCnSoSbg2ZcBuJsCfipCUdfRE+DRdNL4RgMIBooCV+zQNzZnERHelpukkRbUEkxQ5JZCWcigYunfqwyV9ThIq+VkAFlT/lLxrwkA41EOsURAirPVwUWxGURSA3TSdeha+KM020fVVAVOJNBRtIhluIuB46nmdeh1BvB4yYgqQhqC8aF1nZFk1XkfQ15HgsHkU81Ea7IWXU7qAvEcTHHj2ATz06gfFoDtV6E195aRr/5uvXcTGbQNEZlPD0+bwtW91mUkGtplJU89NCWtKVDlQR9MoitEXoS5ry7RjKKnIlLNeIKxH9kveQ5CPqNiRNTcTcpuSlY/LXaDVFdANVLyp2iBsBrYKzLZGrOI4HNI4yYijC9epyPCh5lDjExrpCqHmJgYSj92VCbJsO1BCS9OhIZrUVlPIQ0egkJSTHPJN3ePcQRlIe8qvzKOSLIkT1fY86Ih1BQNKajLh46qF9+NnHd+BAOo9kex35WgC//qeX8HvPrWIR4yY8TZ1OP3YlXxFH7p9IC8lQS/LZRkfEb6PVMfdKEX2om+ciW0hJPvTl9DqNt6y2akVNWCpCja09KWNJY1rCSTglCasmos4xI55FyXMzcLvQ09FKQgh590GhRwghdxntdGpHXxcm0ReSawdeu5u6gIeOSjSlE67jR+a9YeJXxY36U//63JedTBg2gkKnN1o5ZqesWXRra88//4N563X6Tw/5Qs/ih6XPXPndZB2hskJMBZZ99lDzZJ+BUj8q8lRIQZx9Hk9Fqi9iVCxK/kT4aET6zKLmzz5DJQdEhOiXfT5QbdcUYVQzwkhHNPU9czoqZV7fYK7QqZOOETq6J18StsgUCV+vsTJV7avXyfUavqRdrannVND0JUJ4/327cHwqivzyDdQqFUyODODhYztwcNiTEijj2nIFv/v1y/jjV3NY8YZQFcGhadY0apx3xreYbIlhbV6acpVOVO1Iml0Rmbr0iITTzbOmVkM0C8WYvEk+5FvTap9x7ObX1efR9B13ajeNwz4LZ0vB3kOioMyV+k5DzYV5zlF9i+jxww6JHy0h8wxfR/3Z0Td9qfzeIRd/5akjeOzYAOrrc7g5vYDFtTqytZCIsTAikRD2TvTh4SND2DdQQ8xbF+3VwnfPbeB/++oNvDgfRM4dljxGJMlSBpInW0Zqf/tcoyMFt/k8psSqC7UYse/pK/H1PpF0mvtLX2KvzxvacPQSzbX+nQQlD+rM35fxFzJ/L37pa24VCj1CyLsVCj1CCPkRoBWr6dCaLq6tZrV7avf8I1sdVz2i/u2V1o/tsP5osbF9PzSNNrWKv62fxqlSUT9GRNhUK9aXza/5b0ZWrNOz222xHX/Pntmyh1rSnvV92Bh0jRD/2NaCNRK+HPJ92qEdxdpbhZWO7t27rw9/7cPH8Ni+EJIiVty2SC8RPhGnKX5qWK928KcvzuP3vzWDS7kUSoF+I1D9cBQ/xu+Hn2+bd3uNEWLGdnLcHN5MbRc9eLt1lK5NjTMyvetnexwmwO7erfeQ9f9Wfxqunom4dTx1ahc++8GDOD5SQ8ZbQ7BdF40YtM9diijTaZ36Djwdhws5VTTbHVxdbuDffOUivvhGASvd0TwTiwRtVqA1cfhx+vHptpaxpkYluB63fzNb/uVTN2Xb2snH5sF36t//a7P434QQ8u7lR9+LIISQdyG2m6rSTccwuqstyr7fEdVP20HtdmZlz453qF9/VOJHzw/uDlsx4TvtTG91qFXgyeemwNLjdmxJx5jMef00p/WctYcdmbPCwoay5Xw0fN+vfvtCZAt7hY52qVVV5G2FoekyR0049oh/TvPQQTDoYGQojaG+OMIi7KJOA4lATUReRc42sV7p4NlzS/jqK/OYzodQc1MmLZpiPxw/1z8Imxcdg9Ly1Tx1bWNstz1l29Fjfh62O0U/rQi+/R7SeKzdtBzeeg/ZmGxZbJWV70+OukGUax0srtawUdLXasQQkGPRQBN94QoGQwWkkEVMX5IusRTqLt6creE/fm8WL1yvo9DpF+tFu3FrHrdi3MplN9VywDo/Pzraq6Nzes917ztzTq61WdzG1v3k/834cVpHCCGEi7EQQgj5icV2628VEVtSTLH79phVC1ZCtBAVsZdORMy5aq2NXLWDlTJwMws8d3Edf/i9mziz4KDoDqHhxLpCwvIW3dEjeG0PK6vruH5zCdWGiFMnjlIjgHzNQb4K5OrAhi6oUnYwm3Px/JUCPv+NS/j6mxtYrveJIM5AV1vdXiI+t5aK+hAnCs6fkrl57C3OXkEIIeSHg1M3CSGE/MTid//v1JAZmbCpD2SvO+qn2zqepe+f64sBOwdjGMuEzCIwzXYT2VwJc6slrNcCqDkp6KInOlKmosOnlxtOtZGOlOpI52ACmOgPYyjpIh4Su3W1brXewlq2gvn1GrINBw2zOmwY+symnWZ7O771brXcdp9+2Vj8bz1q3a1X3rpHCCHkrVDoEUII+YnFjgX53f47SAE57Z8zk07N6JH+86f5iYTrNKEvWtCFYtSvmRJoFvYIwS51Yp1+3hpDLyJ2EtPYtXF0wRQPAV1MRkSxLgijs3Qd9aB2FVu2OyLsZF9ls36bRV9uwxxR/1t7glpTPjU8s22P65ZKOt3zffp+CSGE/HBQ6BFCCPmJRoWClQZv5ZYRPfXTFXpWTthRIrtlnzzcDEXFi/j1JYe95t2CtYp1mnfFt4wd0jPHzGnfZr6vTQvegjlqvQh++HZz83AXf//OIRFCCHmndCdhEEIIIT+ZvJ24UMyIkXEiHzp2FE9922vs0jJ2zy5kYid1qsiTw+aoXnG7FOltNL9qKWsJi1rCOvtPR+48MZK1nrWg/ns7jB3ltF8Wm9v29C1oKOoIIYT8+aDQI4QQQsj3QRWZzuW8zVGOEULIjzUUeoQQQgj5Puho6LtrVJMQQnoBCj1CCCGE/ABU7EmXYbu748RLQgghPy5Q6BFCCCFkE/8ZOd9tocJuuyOEEPLjDIUeIYQQQm7hzmLvzkcJIYT8eEKhRwghhBBCCCE9BoUeIYQQQgghhPQYFHqEEEIIIYQQ0mNQ6BFCCCGEEEJIj0GhRwghhBBCCCE9BoUeIYQQQgghhPQYFHqEEEIIIYQQ0mNQ6BFCCCGEEEJIj0GhRwghhBBCCCE9BoUeIYQQQgghhPQYFHqEEEIIIYQQ0mNQ6BFCCCGEEEJIj0GhRwghhBBCCCE9BoUeIYQQQgghhPQYFHqEEEIIIYQQ0mNQ6BFCCCGEEEJIj0GhRwghhBBCCCE9BoUeIYQQQgghhPQYFHqEEEIIIYQQ0mNQ6BFCCCGEEEJIj0GhRwghhBBCCCE9BoUeIYQQQgghhPQYFHqEEEIIIYQQ0mNQ6BFCCCGEEEJIj0GhRwghhBBCCCE9BoUeIYQQQgghhPQYFHqEEEIIIYQQ0mNQ6BFCCCGEEEJIj0GhRwghhBBCCCE9BoUeIYQQQgghhPQYFHqEEEIIIYQQ0mNQ6BFCCCGEEEJIj0GhRwghhBBCCCE9BoUeIYQQQgghhPQYFHqEEEIIIYQQ0mNQ6BFCCCGEEEJIj0GhRwghhBBCCCE9BoUeIYQQQgghhPQYFHqEEEIIIYQQ0mNQ6BFCCCGEEEJIj0GhRwghhBBCCCE9BoUeIYQQQgghhPQYFHqEEEIIIYQQ0mNQ6BFCCCGEEEJIj0GhRwghhBBCCCE9BoUeIYQQQgghhPQYFHqEEEIIIYQQ0mNQ6BFCCCGEEEJIj0GhRwghhBBCCCE9BoUeIYQQQgghhPQYFHqEEEIIIYQQ0mNQ6BFCCCGEEEJIj0GhRwghhBBCCCE9BoUeIYQQQgghhPQYFHqEEEIIIYQQ0mNQ6BFCCCGEEEJIj0GhRwghhBBCCCE9BoUeIYQQQgghhPQYFHqEEEIIIYQQ0mNQ6BFCCCGEEEJIj0GhRwghhBBCCCE9BoUeIYQQQgghhPQYFHqEEEIIIYQQ0mNQ6BFCCCGEEEJIj0GhRwghhBBCCCE9BoUeIYQQQgghhPQYFHqEEEIIIYQQ0mNQ6BFCCCGEEEJIj0GhRwghhBBCCCE9BoUeIYQQQgghhPQYFHqEEEIIIYQQ0mNQ6BFCCCGEEEJIj0GhRwghhBBCCCE9BoUeIYQQQgghhPQYFHqEEEIIIYQQ0mNQ6BFCCCGEEEJIj0GhRwghhBBCCCE9BoUeIYQQQgghhPQYFHqEEEIIIYQQ0mNQ6BFCCCGEEEJIj0GhRwghhBBCCCE9BoUeIYQQQgghhPQYFHqEEEIIIYQQ0mNQ6BFCCCGEEEJIj0GhRwghhBBCCCE9BoUeIYQQQgghhPQYFHqEEEIIIYQQ0mNQ6BFCCCGEEEJIj0GhRwghhBBCCCE9BoUeIYQQQgghhPQYFHqEEEIIIYQQ0mNQ6BFCCCGEEEJIj0GhRwghhBBCCCE9BoUeIYQQQgghhPQYFHqEEEIIIYQQ0mNQ6BFCCCGEEEJIj0GhRwghhBBCCCE9BoUeIYQQQgghhPQYFHqEEEIIIYQQ0mNQ6BFCCCGEEEJIj0GhRwghhBBCCCE9BoUeIYQQQgjpWZx36AjpNSj0CCGEEEJIz9J5h46QXoNCjxBCCCGE9CRGxDnvzBHSa1DovSvxf7eyv2HZf7rlbHNa6dlv8uOP3z7ZcvRL1S9Td5tjmRJCCOlhpO/iO23zbAvp2M+OHDFOPW5vM7fazd7H2uVWR3oVCr13I6aG6/5ZO57d1zpRd82nv20//Apg8xj5scKWia2o7a+SWp5dZ1CBF5DjLryu2NssSGnwCCGEkF7AtIH6bZy0iyL2VNiFvTaiXgNxr45Yu45Ip4mgpz60MfQ/1f352kQ/nB9LpE/g59F8y4c622+g2OtVnMCBR1i27zpE3HWrIke29c/blYrQjPnI3WArSjkjwqDtCwPj18Ib5scPbab8MTxbjq3NUtMjpqRv+XVT/cq3/DfXsVAJIYT8pGN+4DQNm2np0GkjGexgciCO8f44QmhhbSOH5WwF+WYQVTciR4Ld66SFNG2hufLPjF7949Wk2h6CIz26oNhDt/0Uav+g5QTQlv6edv7+fDknP45Q6L0rUaHnmj92V/7oI6LuYgH9dasu1V1b7gpH/vBDKDYcNJyYqQS0itiqAO50y7B6+MtDbe9IiXpSibcQRhOJYBupRBSxaNj4qNWbKFZqKDeBRkdLOSDCL2TK2tMyV3VPCCGE/CTTFXravwl4LcTDbZzaP4T33rMTR6cyiDgNTM8s4PmzN/Hy1RyWalHUtJ8jvR9tBq3Q6zW0f9BGPOghjhpCnYYcaUt+XekPOCi1gqg7Ue1BiF9O9Os1KPTehWjXXgtdR34SYReHdg7j0EQC6UBRKoCq3hVYL3fwvbNzWCxrBRATURDoigG58k41oTlHsfCXgVpdR2KjbgujKRf7xxLYMxrHxHASmXjICMBytYa51QKuzBdwYa6A9aqLppNA24h4vR9YuRNCCOkBjGDzEPJqODSVxl/9qZN44mAcQ4EcIp0yau0AXr9exG//6Zt4eaaJfKfP9HM6Ruho/+YOfZyfYBzps2ViAdy7fwx7+h2k3IqZ9aOztm6u5fHK1XWsVcOowxd77Mv1EgF3cOqfdrfJuwatxPRpLQ8DqSje9+BhfPLJY3jviQE8dKgPp49MYHQwiQtXrmK1UBMxEJYrROiZP35Tg2og2/Arhe9XOWy/5i+3EvFTsj0Vuq0Ng9rEbHed4uiUBtnT67Zf8+NCQNKcCrVE4EXx5KlJ/Mxju/Ch+0fxwN4Ijo55ODLu4MTuBI7uHkBahN/07CI2inWp5MMwU3NN/t6e7bb4ceXHPX2EEPLjw49Pe/yjwc5ACnhN3HdkStrFHdidLCHjrSDZEbHntBGMxHBpZhkzy2VUPWkLnYhYxRd6vYT03tw2Jvoj+JkP3IuffmwPHj86gAcPDeHeg2OIBD1cm1lCttyW/sD2vh7pFfgz/rsR/RvuPnjbkYowjBJSgTzS3jL6vUX0d5bQ524g1FxHUIf4xaP69eQ6WwWaALacOajbt6KDfGagT7A+TYxd53OnY1vY626fN75979Yz/hXmwWLZ9OM3SEbsQiV63PrRbZ3SEEQD0U4Z8XYeCXFJr4iYV0agqb986YI1er31r5s+JuXdsLbisynWTXX+8VvS8mfGt5UNXWJF0Glhx2AYP/XYfvzcEztxeqqFicAC+tuz6JOyTEvjlmqvoj9QQDIg+WlXERBxZ57X2xSx1t0JP0aLv7f9qE3LW7F+zOct9tnCHnu767djy8463//WdX5KfjA2TVs5tvvbnQ3VhksI6XVurwPeijlzxyrBP3hrnaK1qq1ZfWytsv3I3ceP/86x+Hnw61HTsKszZ7Zjj/lhKX7dberxraNdP9b/Vv28PTw//Ds5Hw3Pd1tsD/tW/xZz1Fzit7Vd/9sWmPNk23XtYw06jTPYaSIE7fM0ZL9ujumcFlte+iOvPtbyZ8fPgW+v2/HTuOXeisnDptN9+8+G7jvrz3fb/ftsLzOz6Fq7joTbQMbJS79A+3rzGMSS9PdWEWllTb9Ap3OS3oNC712LrTC0kghqxdepIuqVkOiUEJfvaKeCkNcwUwL1NrEVvK007LiXFQq2qlJ3Z/zqZ9OZike37ZGtiqp7fjNMxR5Xtnxa33q9+bfZsGx3PpI/U9v6aVX00y5Ao05zkoq6OL2vHz/z8Bg+/Ugan3skjs8+ksRTR4IYi2wgiqIVvOLXxuqHc7uTGO2XYDdsXrfSbcSyn70/K3K9Nke2SWojEQWO7xvAe04OY0+6JBX3sgjWDWnMKhJZCy2vg6ZEXqjVMbO0grVCxTyDqdNx/Wbt7dJk0n+b0/gtmxuC5s4vj+3+fT/2vF8K9lrrbBkp1o91Pnbf7zxs2XLLpn9W/Ji0TKzbCtMvZUJIL9OtBbR+MXXMVr20HXNks/KzztYVfj3x/eqirbZS/fjb3x/r81Zn2QrLhncrbz26PdXbT9lQxbf/o5/1sYk9v3WJ3ZZPYyd/b2vbj1e3tC7tLvPWddvCvzUawV63hV6pC4Zo6yTntrcpcnSrXeke3KS7LZdoiHp1S/J2cymLuaUSis0Qaoij6sRRbEekLSxiOddA3QuJ/6C5SFPs5+OHxaRIPran6HasHbZjrhLn/yywZUWfrXvsTug5cWIjvw0z7Vg3mu5ZY1ElgBbCXg0x6ePFvIL0+QrS9ysh0KmbvpBNA+k1KPTe5ZgqRD70V61Ap20WZ9G52yoBbPUst0h3MRZbCVnnb8vH98H6s34lNBOODdUIR3XmnN02o4zdS/xK3Vb1NhI9peieObL9gHxoSNa3fJtN9bDV0Oi3XqRLLZtfuLorjer01ace3Iv/4pP347/6zDH8o8/sw698ch8++74x7BLhFJWK0NFVLM01Wplq0CYCG2pHqlHZVWeP2hTbs5qGLecfs6LC9//DYcLw0yBupD+G00fHMZ5sINZal4q7YsJcLXXwwuUs/vDFZXzpzQKenW7hlbkG1lpx1J2IKeGtUUqbsjth0+j7EIt1rD0tetZvkM2BLX/G3vawMZewdc6GJx9bR0061Om/LurF7Pjh2TBt/mVj02M3gh+Af529u+V+1BFNOdDxnezbxvKdhkgI6QX8Omm722L7trJ9X2sKrfO1vdLrbF2ltaInbUZH2gfTJkgl6Nc/1vnxfB+6dbxGZ/1q/Sff3fZjOzZOG69/Tr+3+9NUG8EqdfhW27gd48M4jcMzaTapN2ctsm1GzSRf4lWf89oUi37mNsOxcfj1tjm2eX47Wym1Yfqtis2zqau79fWmzSR98t/48q82aRD/+tlR2zshTC8U8aXvXcPX38zhzHoKr62k8OWzZXzh+QWcWwEKThoNV9chCG6maiu8H+yUzevkgH/sTmj6bBlZZ9Pr0902X7YV9M96xhrb3a3Czoa1Fd5W+tRWajfb91KMNeWeVNHnGGf7L8ZfR/35sZJewf/rI+9q5K9c/7ZNhW4bJT1m/uClYtVTAanBAmjLd9Os7Gjd7S9f2HKm0tHGxDQotsJSQaTXqNPw9JjtWNs54fZ8y4hN/5yN31ZKAWjcNn4Voqb9k/CNGFVfctFWw6NxavWnfq1/I2Tl24ob6zQerfQiElg80EYCVaRQRsqpIu40gJY4E35Q8hQwcek1W1WwYo/YHIkzp3RP47R5Chl76bZvL02rXGOc+n6nqGcbgmYhKKYbG0zh0M4RxJyamZaiFBtBvHy1iN/60g382n+cwa/90QL+zXdyePlmEPlOP5q6wI7mS9Jk02pz1C05Yye122Y5mzKxqdxMt9nWi7QgdEc3tRy794tcY8pawtHpsVsdDPWsn7Z8XEnz1pQRmwLTYRJvmjofG65/D9m0mR8mrG/xYe9cDdU/sh3rQ8/bsDUVms6QhBmScGwZyb0ixzQum0pCSK9jn8/WuqghTuojR1ckVKHQ9WBqDVtX+W2Rtodar1nBY/3aulFrUEVrMnuNzghRp9fpMa37TA2jlbh8315XmXPq/DZ0W72ptZtpU0y4Nj16zPxQZuLW9k/bQU1P15krZUOcfqp/Wz/L9RKWTc9mCyZOtsUmfl5tmy1x+O22uULjsgLCtB8SiR4JiU3C3SmSmneTXxWG7wBNpw1TV8AU4SX2sbHo4xV+nrWO7rZJkiaNeDOfmjjxb6xgMhJEqeHgmTcX8NtfuYLf/Oo8fuNry/hXX541Ym+2mkbJzZgfPk1LYq6R3El634lz1Ykl1BrGaXo0CP2QzGwv1y3LWTuZPonmR+45dZvtoNhY0ZBM6HqPdNNlnFzrl6mGprlVbJjahnXvC+PUTuLTBGlK1YRr7dQN1m4K9jzpPbgYy7sRU1nYP+tkxMXxPQM4uSuFtFtEyKtKJRDEehn4zmszWC5FpKIJSUXURKRTRcSrICrf4e4SvdpIaAUjtZ6pJPyKwn5r9a/VUEsq/rpcV7PXijOddFMxSgUlTsPSMNWPVlI2dVqBacMh5zoVG7/6ceoISkPseRqvNgiSgm6e9BqNWSs4jVPj0pVE9TtsGlppwOVTmw+NPyRxDcSA0/sGcXgijCSy4q+mKcPCehXfO3MT2bouvRyRUOUqreAlBItNo1/R6p5W3pp+k2ZJa8SkW5zYVZ8LUDFhGwZJpfzfspPZ/YFoTKbJl/wHxKVDLdyzuw9PnpxEH+yKYtpQLGUb+NpL0/juhTyWmoNYLgexlG+gUA90l1EOmfBsB0bD1EbHdkZ0gotNty1vXYtLy0cbWvO8olxhRbif4u63fGkzog1MWESyud6EI+XV7Uy4Uk5G0Mv9pPYJi6BWe+kPDN2rNxs2G5YeURFmn6vww9TnKbV8TbpM2GJJkwy90LpuMJv4p/XeMM9pSDlH9J6EhKd5FpEfNGnVzomkx7/AsD0kQshPPlKPa13k6CtptG7R+sC2E1rXmfpKnBVVddv2dOtFrTtCUldo/WlaA1P5mJrZdPb9+krrlajUK3qN+tcOvdY//g+d6n97G7CFH57FduK1HpR0mrpK6mWpA7W9NPWz1Ge2rvTbJ3G2QuyGbD/9Ns+2TX6aVCzaH8xsO6D1o7Zffv2t/qRNU9Fgc2vbXNnTEDVeU5+qjcSvtkHWRvY6I0RVbGyz0a100yvOT7GGrvFpWZhykXYo4km46iTtelzD1jLSnG3lUcPQtsDu6ywNuw0Ui0XMzC/i5twK1osN1DoRNNw4mq59BZH2ZUzbbdKu5Wv7OGqjd+L0tUauXG9LzdpGhb9NmlhL22xjJ+3P2DJUW+k9pbYzYq/blqmtbL9GL5a+iuZDg5VzVuSZQM2n2lbTre2hac9MGej9oenS9lGEn8Q9EHPw0JEJ7Bt0kHB0uqa0u04AN1eKeP7SBpaqUdTdhLkDSG/B1yu869BKxHaqtcM9mg7hs+/fh8+9ZwwTzpx5tstzQ7iy0sK/+K1v4GqhD8m+cQz2xZGMBxF2bee71miiWGtiJV/DUsFDtibyoBNF0xde3WpJfwnsjwewfyyO4YjIJamA2lKZlVsBzK1VsVFoIZVMYygTxEDKRTLsIF9u4uxsCWsSZjASxf7xBEbjDcSkUtRGSKeSbtSAN29kUdJlkd2oxCcVvvmZSpz87491JM4YhqIq9iqm4Wi1XSzmm7i4WEcnmEYmHsZAtIWdfR387BP78b5jfehzVqTSLaLZCeLMdBG/+Yev4WY5g6rTb5q+UqODtWIL1Y5U652QqSg1Pm28IwEPfVKZjqYCGEoHkY52zHtrQpI2r90Wm7WQlbwt5dtYKXeQb2r3Yftyxn6Dp9t3Rs9oYxyPAsNis+FIDR84PoxfevKwCL1VsW9B7NDGzHIJX/jOVbxwrYlsZ0jSH0Hdc0TAS1nVw2jJvi657HrSGZF0p6MOhsT+g+mA2M5FIqQCWxudNhpND4VKSxrHJlZLwFo1iFJbwpAG0m8UTIMrSdcO0pCEoWWmSzhrw6O3W7bawcxaGdWmi1QqI+UdkfJ2EBG9uZ4t4/yNdRQ7+stqHG1p3OwCOU2kpQ0eSgYwIvfpQDIk6fIQcbVT05Ly7KBca2O91DblulEBSmLThv46K/ewt/mzpYpLTaOUUbAjZdTBsMQ9IoH3xwLmPZIaX8eT+7LWwoZ0AlY1rxUHhYZ0Ycw0Vzulxb+vTWPc3SKE/CTSMasvTg5EsGMohHTAihOdvpaT+mp2tYx620F/OoGRvgj64i7iIRVpLdSbUq9WGljIeVgsQOoJ7ebHpDpwkAp7GJM2YLwvhMF4R+osFUhSj7Y9lKotrBbqWJb6Sl9xU/VEaHTrFz9NViT4HXsVX00JQ+rBhIsxqVsHkw6SEc+0xdquNVsSbs2T+rmNNQl3rdJGyRPZIOG2tD02YWt730HUbWP3SByTfS6iTlXONCVlAawXGlhaLcKROn2gLyXtfVTaBCAabEoSJO0ND7lSC0u5JhaL0h60dNxO2mdX2zlH6tMOxvrEVnFHrrGisdXqoCj5XcppflvI1UOSX32lj67sqKOgKpI1lyJeZF9z7HZEOMpeIuSI7aSOlnCHpK5ORxyTXx1V1R94q9KW5sttLEueV0odFOpBaUulTZJWw7TJrthQxaX0VaLSvO4bS2Is0ULMKSLkiMCRU6slD9fWpF2rx0xeBpNh7B6OYTAiQklEmI4Yastg+zO2zjdberHZk1ZPBZnZgpSvg5vLBekPAWXJp76DWC2hz9GrEE5JmQ12y1DbMu3rhOT+0x/Cm9I/KEobuyrlsCL2XasEpI9hf2C2oWs4GpMdabb3h5SspDEt4QxLuKOZEPqT0r6ae0N/CPdQqUv7KPfbSq4m90wQf/3jj+E9hyIYCkg/xyuZH/G/8+Yc/sc/vIzX1/tQcEckBhW+bNd6CQq9dx1abWhlYUe+xlIq9Pbil54YxYQ7i5iXlYo4iOsrdfzOH7+A8NB+HNi7FzuGU9IxD5tKUwViuVZDtlTF7EoBb04X8OKFVVxb9VB0kkZEaDddiTgtHNmRwWeePoFjoyIgPBGSIplWROB9+6WLWFmv49jhw9g/lcZYf0AEjItL02v49T96A5dXpVEbncSnnr4Hp3dJg9LZML9QaSf+/FwJ/8u//S7mqgMouWmbH2kkVOzplIqD4zH84odP4MRYCwlsGHFaqTv47rlF/NaXziOQmMSpY3vx0MF+jEWyODoRwe5+V5rqslSpdUm/I2ls4Oz0OnLNpNgkgUo7gkvzRXz1xRtYrMZRcZOmotRfLFOhBg5OZnD/wWEcm4xi51DYNMipiI5WSqPXqKNSa2A5V8H15SreFCH78rUsZjak0eqku429j63E7R/m7RWuCDBp8A6KvT740C5MxYo41N/CyamEiKqSpKVuBFyh1MSV+TIW8gHUnBSq0tTMirD+1mvzuLjqmrTrc4fpcAuHJlM4tX9A0i8dgAERj9JJyUhdr42F3iu1pjQW+Trm5fqrC1W8ej2Pc3MVbNRFPIow08bV/nSg7/Jr4oEjI1LexzAZzSMpwrMjDfPV+QKeeeUynEgKhw4ewO6xBMYHAgiHQnjpzRn85hdexEJjBGVJqzb/sUALu8SG9+0bwrGplDTAYbk/pPMhjZi+3F8bx3qjjUJZOxI1XFks48z1HN64nsVySfIcSJnfvdtyX2gTaRracBuHd6Zx+kA/9o+FsHMwJp2IsHTetHMheW03xW41LG2URJRWcGamiFeu5DGXdyQsyaf8XejfhmlmpbG3XTEtKULITxr6l9sX7uADp3fh6QcmsSNZQryTl7/tAK7N5fDimesIRNM4vH+n1FciflKuqX9UHFXqdaxKnXh5sYKXLmXx2pUNrFdcDA4N4J79Yzi5O4P9oxGMZyB1rEqptohDETvlJubWqzgzvYHvSVt0eQUoehmp/6PiQ2sqrVNsO6aCJ+DUzQ9wJ/cMmgXDDoyGMNGvggpSb4kwEhFWNeG2sLBew7X5HF67voazs0WsVMKoSHvc6L4IW9PQF2rh5953HO87OYqBUEHaphLaEte5y3M4d+kmBgbGcXDfDuwYSYgYkfZY2gfHa6FabWIlW8XlOR39WcEbNzZEbAUwOTqBE4cmcXgqjj0jImIyDhIRqRulzdMfCLPFOqZF+bxxbR0vip2ub4REBCXND8KtrmCxLZ39uTMk9eq4iOp79w7ixO60CXOiT/oBKrKDWueKKGq1UK42jIC5sSK2vJHFq1fWMZMVgQVtS0VMumo9radbGBLx85knj+GxAzEMBKQPIa2httsvi/H/3Xeu4dJaBA0RVfcemhLbHMLRwQpSnq44rjNNVMyZn5d1S2xof9C0eyLfpbh0uqf+NJmtAP/x22/imfM5rDT6UHWlLZNrdZaIdA1w/4FhnNiVMvfFZH8EmVjQjCbrKF6j1UC2UMP8akXasgpevJzFxUU5pm2s9EpaIo61je2IMFSLaRrCIljHM0Fpu4dxz64+88P2uPSh0jER9CK2PbFTsSwCfkPCnM9jYXENj586ilN7k3If5BD01A5BfOfsTfzaH17F62v9FHo9CqduvgsxXVPHdlOTkQBO7OmTiiKBtJM3Uwq0oWlJrRKPhvDIfQdxXCrc8XgDA8EKMsEyksEq+qMNqZAd7BvXl3OnkAx1UKsWUarU0GybJkrikIrMdTA1FMXT9+/C0fEOJhJFjKZa6Iu2zQjdyX0jeM99ei6A8aRU08Ei8vkNvHb+plScLvoy/fiAnD+9M4ydyQrGEw2puIPSaLbxzEsXkG9G0XClIZMOvcmZduwlYxN9YXzk/t24V+LcEa9gOKGjVi5WN0SUvjmLRKoPj963Hx99dC+OjEiF6Y8YSqXrv3IgIap259gA9k+KCJpIYdd4Gm0RA2ekQczWRd5JvBrZQLwjlXgfPv7oLnz09DBO7XAkrVWMRIrGZim3LHarYCTexlR/CAd3pLF7og8xabgqxRwq5aoZQbQiwgpw25ro1q0Vrs7k0JHDY7sy+OSTR3H/bhEsKWkKdAqkdEB0SqdO84iGQxgfymCvxHNwMol9E3Gp/B1cmV7CQraBTiCAoUQHDx8cwM8+utOk+96pIHZJWKORMvoDJfRp2oN1Kes2xvqC0ujGxRZ90piEpZGooJTPoV5vmiZaV/HUtKs4PDSVwUce3IMDfVVMJWoYTXqIB+oiHpt49OQUHj8+goODLYzFykgEG1hYXsNL5+dQautoXsD80nmPNIgfe3AnPvbQhDTQEu9AG6Mxue/k/ksHKkgEakiH2hhMyP01HMUBiXNiMA63VUO5UEBV0qUTaPW+CIrwH005ePhIPz7xyBQ+emoA904AOxJ1DIYlnwHJr1uRTl8dw3EPu4dC5iW7u8fSiIuorpVL5oXzLbGref7TlJEtJ1+O315OhJAfb7QdjEu7dZ90wB85NogDg3Vpn8oYSbSljathQjrRjxydxAMHBrC7r4nhcFHqihIyUvcMRD2pEyPYNdaHncMJRL08BiM1EVAT+KlHduPB/dIuZqTui0rdIm1a2tQvDTOTYNdYUtqSjNT/bWRzeZSqdSO27Pic1itau3hmiuLuoQCevG8SPyN19AeOiegcaWM8VsJgSNoUqQdT4jIRFYPAzhGpB6WunxyMmFcHlAp5EWP6brSgERzaLsYDLTx+cgceOdSP3ZmqtKdVjCZaSLol7B2J4RE5d8+uOCZTNQx189sv7f1grIHJgZC0J0mMSf3v1takvW7hKRHJH35wF07tjmJPXwMj4bJco/2EKgYkv2OS3/1jCeyUPoI+/5jLZ1GqiVgTMa3y1z6Dr6JW2ggRLvukLv/Q6R34xKM78J4jCWmbW5iIS/wSrtb72vdIh6QspM2dkvTsn0xJPZ2UNsNDs1ZAXQRgy9PxU+mDmD5Ox4xMvu/UJB7aI+UlYn5c6v2hdBgb+SLOXl3CSlFil/Ts29GP94mtT442pc+g/lpim47cDx6GpQ3TPsSw7ic75lv3R8QGo+KGkw5i0pe6cm0G1xfLKLZUnAWlre5g/3gEH75/XNqeSTxxMCltXxsT0pYNhLT8SmYkuT8i5SqCft+YtHU7+jCSjqBdL0tfSPLU0vFOsZcUoApPvUt0/HjPUAQfun9K7g1pUw9puE3TpvYHpU2T+y0t9+lgzMNO6X/tl7yNyv2swrBfjkWcuoZo2tuZlTxeuLSOpUoUdScpodsRYNI7UOi9CzF/wptCzxWh14+TRugVpGvckFMuQqEQRgbS6JeOtM7V12eudP55QASITg3U+d068TAo5zIREVYjGaSTUaysZbGWr0slFxEhFDLvsJnoj0onexg7RPwkvHUzfTMmgmQ4HcPUaBqZaAvRTlHiUJHZxFK2gpcurGK1HEYy2YeHjoxiv1RiqY5eqyNuHlYKTXzzxavItzJ2Xrl2wHUahbiAZGwsE8ITx0axO1VG3MuKMKmhLer1+oJUaueWEIr34dDecRFMkm9vRRrqivkFT681FhJxYESTaTLEScWoTebcmo5eLmKjpqNFUaRjAZO+T7//IB7dG8SOyDpS3oY00vb5AcWMdkn6IHZzOw0RQ01k4gFMDovNYiGsrK4jW2iZ8PQl5iq0pd3fLKPt6PMGIbeD3cMREUyjGAzkRaDqdBRNp8QkukNlqk5V1Kk6IaclQqcujXxTyqWCVy8tYXajjUw6jvfcM4VPvvcAHhKxOBrOItHJmudJ9BrzLJ2aQSPt2OdU9NkCnYY01h/BxJA0CK0mllc2UG06aJrpszq9po29o3E8dnQEw4ENJI0tqtKhAsZFiGknJCnCN+bpKytq0uA7uLpYwvcurKDUiiAUDOLkngH8/HsP4v1H09IwSyepsyH3R0nuOWmcpIx0xFI7CHpv2YUCqoi5VQwl7T3banuYX8miLOlSfxlp6B8/MYlPfeAATk+J6AuuIYWS3G+STzMdSLJoOlpqO32GxT5b05+Q8hzpQzwcNPd1tlRHU39ZFVFrrSyYtJgNs0sI+clAu81R6Ygf2dWPE9IOjEQKUpfmzHPqibCDMamvdDQo7uiUzrJp77Qt0I62kWVaJ7otDKZCmBqM4thUBqf2DWJnv4eEPi8NrZf1eT/ppksdqs9Um+egJZykVPPjQ31ot1tYWhbxU21Lm2lH3rQm0Tp7vA/46EO78bGHduC4iI+hwBoi0pZpG63ySDvk+jy9qXv0fXBSb6UCTenQR6WuTcNrNswPm5WGzsvQH+JEjAQ8nD44gqOTIRFkWWkb81LXiQiNuZgcSphp7fpeXX3cQac4aptiFvWQelbr36iEPyINvk5LPba7D/fu68dEqoWE+ZG4JHWxfW5fpxQGJVbTbkhe0jEHw/1JFIsFLIiw0Ec3mvrjoKRfWzl9nmz/aBQfe2wvPnp6BIcGRfw4a9JO5Ez/Q23t/6ymdbR9lq5uBMtQIoCdIrgHUnHksjnkSjXUvQBaIt6UVAx4+OgoDg2L6IO0R1KW2hzPLOfw2pU1LBb1IYWQhJEW2wyLgNVJoPq4hz66YEfs9DEAV9MqF+o94Og7+KSNCKqTdOgKn5WWi1cuLuDyUtv8aKnsn0jhZx47gI+cGsbB/gr6sY64hK3p1ymoKvDhBkwzouGqreIiZCcG4mKvtAi9HLK5Amptx/yYan64lHtpXAT0Tz92EB97cFIEXhV9zrqxlfattAxM261B612iZSACfzAVxkBc22hNu/ZPREAaoZcTobchQi9GodejdHsr5N2F/0es1aY6PWJFkjYGWumEROgkIvrrUQu1ehPzG1VcWKjgwpJsl0IoSkXWkipL59THpeLQpf0fPpjGk/cMYSJekgqnKOekMtusL2zjqE2OPogelQ72YDKIlFRqIRFZLa+NSjOAYiMijUBUKmp9Bk5llq1odZ67XQpYn9GTBEplp2rIVEpSodvn82xu7JLQelr3pGE2gk22jRe95eU6CVR/+atJg1Nph1CThkF/NdMpeRqrptU8C9AESk0XBXElqcirXtB09tWX/jp6dEdCGuOdeGhPEOMiIJJtffFoA7lyG5cXGvjelSq+db6M52+0cCkbwbqXkio2LJ2AOnamW3jvsQE8ee8IxhLauEiDpuk2qbX5uR3Nkcmj2KYmQqbcDJr024ZcF5nR66xo0WdCKtI+FiWPeZN+SOMH6cRAOjZ9+KkHd+G+yQCG3Q0ReTqNR39Z7iBXc3BjrYmz83VcXPGwWJIy0fLuhExjnwkUcUKu++lHpvDooTQGw0XzkLxOYdXUafpMR8hYVBv7pvnFVac+RYPaaFdNeZdaQbFrFOVOwtxLIWnwdo8m8fSDe/DY4RR2RHPIiMgzzxJ4TZQaHuZyTVxcqOLSchMLxYCky64eqkI+HSjh4HgYDx8fx66RmGnQM8E6ju/K4EMP7sY9O4IiPnNISHiOxJ+taBnV8PyVEr59qYIXpz1czYaRa6ckrxG5voapTFMEdR+eONaHsbh9OF8zqOVj7jHJKyHkJxXzl2xqXCPG5A9aW4hoUEf7RFA4dqpgTuqKtZKHjXoQJU9HPnSRMldq3TaSUm8fGA7j/j0p7MnUkRKRF2iXUas1sF70sFKW9kPbNOgS/mHTUY9KfTmWaODRI0PmsYGEU5G49Ucs6fBLeyWaC0+cnMJT903g8GDdiJ6o1NFeW9rfbA2vTmudJe5yDa/c7EibHDfPv6ETlPTUcHQ0KPX7TklT3MyCUCGlP/zJf+PMiprmB1tdgERqX9GL+qy2isVms2mmgq5J2vO1ECr6HKG0WFrhaf2nz17rFMTT+/swkW5K+19Cp11DqdbGatnBWjUs/YOoeWZf5Z4+66bPA+4acPHI4UHsMUK4JLaT9kLtLWnR0dEnH9iHD0hbuCdTRAYriEt+VRjXmh4WpN6/tNjAxcUWpnMuNswrgmJyrSO2rGIi1sR7jg7jg6fGsGdAhaeGr3W1RCCNoX1GW8tWy9rPuy/a7dFyzcPNpRLOzdbwxlwLr815eGW+I87B6+LOLHRwdVXirtkldjRv9s4JoiH9lbmVqpRNS9pcUZYS+1hfFE8/sAfvP96PPckCBjrr5l7RZxdn1xt47UYJz1wo4rnLdZyZdzFfSaLUiZupsulAGaf2xPDxR3fi5A5HRHnRlKGueZCKuHj0nt146tQk9vXV0N9ZM4JdH09Q4bheA66s1qX9ruHyaksEXBDVdgABubFDrq7yWZX0taQ47Wqx1jK+I70IR/TedRhJJ1/2247oDZipcmmpsIMdfcm2/tIjQkIE1KJUsM+dW8HXX1vCd89n8fK1Mm5I5VGRznksPYhwWCoQqTR0pEoX1kgkomZxDX12T9cpcwMigPqjeOjICMZTDTNyZ2fPa7vhoCFx6AIh52aLePVaHq/eKOON6SrOzUtj04gimU7hgaOT2DvgSTNZlEqqJWmLYDHfwddeuo6Ndp9U+Anb6e7WU1r16jSFx46NYSqtK1GVTRVWawdxdbGMZ8+vouJkjODayJewsLyKUDiKvmRCBK5W/m2JxcFitoFvv7qAF69V8PpMzThN3/n5lhGiO4bj+Ogje/Deo0mMONowFc0D0HN5D197Ywl//PIyvnomj2cuFvHadAXX16XTEEiiv38IIdGnKqxiurhILGYWtZlfk85BJ2waEBWzd6p61XL666FW2o16HfMLK2hIwzE61G9so9MUFX0W5LXLq/j22SxemqnilZkKXrtewpX5ClKpfnzwkUN45EASg+6qSKyiEbgqvK4s1fHNMyv4xuurePZSQdJdxVxWLBrpRyyZQVBaTP1FWkf9olLgbiCE+eWcGWHVEVz9pXTXWBqPiu0HgiIAzUI4OlopwtpVURqQxrCBszdLeOVGRdLVkE5LA5cX60gmU3jv/fvxwfsnRORtIKW/rouN6m0XMznPlNvXX1/Cd87n8Mp1sedKC1UniajkJyxpUbttVDxcW6zg/M0iVvMN7BwbxEcfPYTHVJBq50FFo9woM9Igf1XC+pMXFvDVN3J49nLZlO/N9Ta8UAbpfgkzoCHK/ROSPIeCWN6QhlxaUR3v0ynCfhnZ2/n2kiKE/Dij7Z8KuqO77arTg2Fd/bBqjmvnvy118XKhg1evZvHM2WW8dDkn9WNDX76DaKIPoaD7/2fvv98su7LsMHA97194n5mRFumQBgkkfHkUqlCOLJIiOeJQ1IhskuInUm7+gPl5pKHsaL6P4lDSSGQ3xW6yust1FcoXvE+Y9C4yvI943r9Za59340UkEqZsA4m7I8679557/Dl3r72PpfCtLjY340F8Tp2SGxS0LxDPnie/eoGY+fZ0CcvlMMKpQfL6pCly4tVSgCLhKBbI969Twdioa/OUuCkoDxwaxDcfP4iTo230BrQ2vUqsDOPCTBHff2kG33uNvPAdKQkFnLtVxHIphETPEJLJlPEtrd/KpmJUXqq4NrcCsi6bZRMNh3Df4THroOwJaeROHW/keUGNsMUxTd788qVVPH9hFa9e2SDWN1EJ9iCSJO/vrGW2EUorI3WoUrGgAnzuxrrx5xcv54iPFazX48wvMYl8U/KB/IlRJuIp3Jxdw63lMhXTBDE4gmSUSu2JCVNMD/eXkW0vsx40gyaEpQLwMsv/x68v4RfvEMuu5nFxroINKlPh5CDlD3UQCpOY51AA2Uway+s5Ymmeyo0d9IB0PISHj47i4HAQaSqAWuIAYtHUQtHyOF9QbHHUmMTl1Rwu3ljE61dXKetsEPsLeOlqwWSTCzfXWIZRDAz0IpVwipOWpwgPrsxX8O3nruOFK2Us13qJg2E8fGI3vvLgOO7pLaCXSl48UCOWRfDK1U18h3X49Btr+OV5F/47LLONRgzZgTHbp0ChqpOhvy+DMnH+5tw6NsvEYcZ3ZHII3/zMIdw7yvdYpFzEQiIWlSiTXGI6fvzOMn5E/H7uUp6YVsLUWgvBeA8SqQzCIZVVhXUnOYE1GIhgirLai5fWO1M3KUux3H08u7vIV/Q+gSQGbYoehXtT9Pb24bQpelSkWkVTJDRNYJ4g9/TL0/iTZ6YpCFfxzkIIF+YbBJsy5jbIvAl2A1QwoiGxa/UUka1GtaNjFO9cW0ChRoUlGMNob8IY7YQpeuqlI5Nh/BUK/bdW6lQq5ilwz5LxrdpxAO/M1LBa025kcfSkE3jo2DgVvTYVKSmi6omKUtFr4ccv3+goekkCLBmT+zdFTTtbmaKXoUKikTLmuUaF4cpczgBppZEhg6vg3MVZ3FrMY3RkAnvGhxALaFStZrm5QID+5986hz9/o4BfXK7heYLqO3MNbNaTVHLiuI9g/I1H92JvuoBUK2dxrJYD+Mmb8/jDn5Hp32zgai6B6UKMzLZJBaSItXwdQ8NjGOgneJKZq4ctEo2gWA3g0tQiNqtB5jvmMmJ1tZMEry1KE+u5Mi5em8Xl6wtMSwYnj+4jkFBQCWgaCTC7VsWfPnMT//Inc/jZlQYFAio/0xUUCZBHDu7GU4/tx+500aZrSpkRKF4ggP7Zc7fwrecX8eLNNi4sh3F+voWLBI+1Shjpnn7096QZh7ZsllJJcSgcsV3ktNlKmSWtaSh7R3vx6LExKno5wmxJKTbRIF9n+5kt4wevzON7ryzZAbbPXizggk11iWDfeD++9tghHB9uIN1agtaoNNtBCh8t/ODVBfybX97Czy+X8fZSlH4YFtvh9AYzmxhAi4ro9cUKnnlrAT95fR7nZyhtRZI4e+9eG83blcy5OqKQtVxsUmGcxx//YgovTbVxI5fCTD6Om6qjuQLyVWBkfJh5pdBFgSkWbLFdx7FeaOLq1LKN6mrHUXWGuhFUIb5PPvn0cSJ9ubFwgIreEO6dTNuaKSk+Ukq0ScVSroWfnlvEH5Pv/IBC+QtXy3iDPHRukwpD3wgGyQtjQR3Zo+UOLbTJ+7RL74tXcviTZ6fx7ZckbJfw+o0qrixT2E6PEC8HEY9ovEc8tE1+RGVms4ZLM3ksFYmiwrxkAE+SZz1+uAfDYTcdrxEI4tpyDd959gb+/NUVnJsP4Xo+gal8FDdXG7i1VAQ1KwwNDSCdDDF8TZlsIUBt5MqtFcwQD2pUCcLhGE7fM05FL2kzIJRfpV07YaqD8nuvzOCPifc/eZvC/3WNbNWwUo6hZ3AEPdlUJ7/ajVIDZUHkyGaffXsF/+6ZW/g+lc/nr1bw+s2K8dJ4dpCKStrWInrLAcKRKNOaw5XZAjZrMZsdM96fsPzeP6kZFyu2FCHAclmlcvzzt5ZZ/lP46fkc3pyjAr0IKs4VXFsiRocz6O0fMkUubNMRG0gQl8v1Fq5OL2O1SMwniiTjUTx4bBSHhoLIqDOb6C4F58ZiiUr8GmZZ7pVgCvlaG3OrRcwslSz8q8vEb5pry3XbJCWRiOP0sT3YN5pAOqz4WoyRitJaHd9+9jrlF5ZzqQeVANtSJoovP3wAZ/fGWIdr1oGgXbrPz5bwf/7sKn745jrxNUbZIIXpfBhXl8q4xbhjySyGB3psl1VNr1SHsJTSK1MrWNyosz6jePT0Pjx+rBdj8Q3KROushTqRMmYdCv/2mRv405epcBO/zy9F8PZsjXIMy7oaRrZ/kIpwAnHWoUYG1f61w/rUQh4vXF7FfFlTNzOsW0Xq091EvoTySSVxavvUvYum3KmXx16g2gAu3lrDn790ExdXwlhpD2EjOIRNmoVGH16+VcX3XprBpeUgCqEeE3yl6Ghb/n1DKezqi9pUA9dz1CVFpRg0xWAlX8NPX76Cf/fzK3j+Sg3XNnuwVB/CerOPbFE7XXq7P5lq2iF3vz21Nv1AZot2joZ50xnlU8ptu6UpC4QFgqrtSBnsQzWo3UKjNvLkpol6o5phlEK9KIQHkQsNmtt2KEOmzzyODlCJjVK9KRE8qIBSKVnZqOC1t25gZY3gHySwhsLGrLWeTNtgT02v4I13bqJQCTJ8KkaMSes1JodTGKFyqvVmNj2Vv90cdMlsgvQbYtqDTHtowEYntbOalCLlTdNytJagxjophZJM+zCvw3Tbi0i6B7t2DWGoT2cjaqSzzpSzLojYOjPw5+fmcKuYwnpwAJsMO08zSwD46flFfOflm7i+HqBamGEK6Z9lPpiJYP9Ej+0CZ2scWW5iKtbZqbTar1pBAPOrJTz9wlV8+4VZU7Cu57NYrPfaNOBwNIGJkV6WQ7yzTqZEFGqiSPB98/oKfvjyLVxZizBdI2yDrAvWw2IjjZduFKlUX8O/+OFV/LPvX8W//Nksnr/exFKVCmmyB5PjI7bVebJVNOW0SSV5ZmETb7x1EyvrVdZBjPUUQUjr/ViutbqUuQW8fXmeCh9rleCsttCXDFod9aeUzwo03chN2+nm1CeffPp4kUOKbUQY0bT+ejOIt6/N4+lXrtuUvcX2KFbCE5ipD1KZKeKXby9jNh8hbqhDUtxfeBKzEf+fvTaF5y7ncavSh7XQLqxgDG8vBvH06/O4uNAgWqTIdbXWVz3tbVvbnoiHydaFY8AEcWXfrn70JGpUkMpMUsOUlzfeuYVzF2aQK4r3RMm3yLOILeFwEPliGa+/dQlXiC+lhjtSQVMUJwbS5FtpZKNa/efWnGm00ttOSrxNo3KFGvDcG1P40ctTOL8cxnx7DKuR3bhZ6cEvLm3iFfLZ1WrclEXxfnF4jQ1NzeftvF0pd/Msm/XgOJZawzh3q4lfvLmEW+ttlhH9EG8VdyTUwmBvEikqZ9oRUx3E40yjNgzJRqiuaISRfF/r6y5MreJHr9zEm7Mt8vpByh/DxCTGEejH+cUm/vwVxkvlZq2VsKMkpHrGghUcGM9ioj9uI2hSlmQvcjWtCvaenI0sJENovZpkglIgixLxpRToM/mgyToeHx/F5x87hRP7+5lOTbNVvbSpTNaZf+Lm26tU8rKUD3oZljZxG8CBsV70RnX+cNWwbLNYwyvnbuASlbYK6ygQpswUYj1oY4BgCMsrefz0mdeopK6j3NLykDDjaWGM4LprQMplDb2xltVnvzZUoXrnlO4A8pUQfvHaLTz7zjqVf+I3HEbmieOLtTR+9uYifvr6HOZyVGrZ/tQaulISWwEvKhZvVpRPdxf5it4nlryP3JGYlhiibIJEj1y5jjevzOPmWhtFMr4KGaAATUcbaOONzUYc1xaquDxbRtnWWGlhdQDEHAJUEMM9UYQCZLLGV42zdsjFq109Z5YL+MW5aSoPYTLvQRSC/ShbXGLcmnbRVRvElDzGpPBaGrbio63Hs79t5F51yBJgCp4NdXVe6k49kpYfKngNpl1huTLQG6cw2YJpulaPajOo3cuYHv4nYgGMkAGnIy0qtFr8LOWwaaM/B0ayeOL0Hnz55CC+diKDb5xM4OunEvjKqTQ+dSSD8VQdweomQraAvm1+BtIhDGXDiBk4SdG7M7lSUDqpjhKY6ky/yspNpnHQ7bnRr44XaGitI68a9UylYxQkehAPqedam9+0UKfEMbdexDs3VrFUihGsqDiyjiUWCCaVotVSAG9PrePSfIHtQcKN6pvloE0L+hLoT4cperj8WNmzLC0dVk9UoBpB3KJQcO7qBuZKGWwGhpyCSrhq0kkqEcEulpsURh3ma73q6gygAvrWtSU3XdgUWq0NtUlSTAMFnEYIb93K4Tsv3KJAUsH1Qi/WdG5gMIVoIon+HvVgav0jw2R9MklsqVTahnrwmRO78OSpAXzlZBJfPxnD107G8RTr6KH9cfRHqATXijatSYJHLNhkHoPoTVG4Yn2rrl1rsZaiHPvkk093Ael71gZTV2c2cX2phs1WxoT/SjBtZrMZx83lMhZzTU3sJjZIQdC4ShjTizmbhrleT1rHWjmUpkmiQGXk0vQGpldKqLYi5kf8mP9U8iI2DdStJ29heFDnykbJp8ijqSRohoqOfslEAjixdwifOz2Bp+4bwDdOZfGXTyWJMUk8eSKLe8dCyASKCDfF60z1RIr6jzbB0qZhdi6cQYeHIOLRAsMgNqnpXby+QkW1hWJbCkvGRrmkyDKruLVaQq5CLKQM4DCZHLodxsxCDlN0sN5IUDnqoT+tEIwj34rh+mIRy7k26m133qryKpTKJGPEDS35oMpI5XaUTF9nBCYCWoNGxKG7Ei+SPy7PV2zNdJkKV41cXDKBZhupY3OGSvXlmRxWK9GOMqnc1DGYCWG0J2Zn2GqfAOtsdhlW0DQdjNoivew4YN4ccimP2uyrhd1Usp56eD8+fbTHjgxKtTYMA3LlGp5/awY/fG0eVzYTxLRew02FvXu0H8PE83hAdaE0sF01m8x7FKcPjuBzp0bwpZM9eIqY89UTUdZhGl+8tw9HhoKItfK2zl/b7GjUN0u9eowYq/MZdU5vfyZixw/ZyCT/VCa3Fjfx9rVV1pXUvx6WkY5rkkzDEqF8s1YO4u0ba5hdb9mU2abw21KlnHt5d7Tzyae7gdSaffrEEz9tE4LJGPntazRIB1FfubmEajtJpuoYgzi12/FQrCEI8jksr1VQa2qiiFOCpByFqbjocHX12BkTuY1ziMHo8PLVXN3W2hWDBJaOcifhvRkkHDAu9XjaVZ7Ek+xZ/tWjSWXIWq8CNxdbpDwELa1b3uhM7jyW5vLhDmwVKSDdK5xuYl04unNKn7F/+hGkx0JNKrQhWzthxxrQjZS98YE4vvnZ4/i7Xz2Of/SV/fgnX9mF/+ypcfznX5nAf/q1PfiDp/bgyfuyGIpt0i8ZOv3KXzzStikoAgUtmn9vUukxnfSjXsg2E2hlYl683Fqi+dt168QXMJ6wHRQfaVEsoQIjWNPo6jqRVWcbVpFmXbodNF2bcKOLVEdRqobsQNcKRRBNbVIBSz7R4nBtthJqSSV0bchLp9Qg3qJUaWGWAsH8BoGGQlMNSb5xO8xpF9ckwxjoiVPRlbikaT5aUxJkfGVMLa6jSrCqacSVMSiztgMsn9RWBWqaclIJahpvhs9RazcRKqExCjra1lttUbuoapOhfeO9+KtPnMQffP1e/OOv7cd/+dUJ/JdfGTXzn/H+H3xpFz5/NIP+aMnqV7lX24hR0FJPtOrMFFjlUt+DMuiTTz7dHUQlrNIIYIMKjs5OrRObNMVNHVbiauKa1UbL1kaLdxqvlCHPyRXLyJebVG6ECuRktGNQ9B9EqdZEudqCtvKXyiO2Id8a0NHIno1w8ZqMhRELazzH7XQpdE1FWnjk5Bj+r185gb//9WP4x984iP/i65P4v39lHP8FedY/+eo+/MGX7sFDe5PoDZWpIGgjEnWJUTnIxJGMklEbL9c0ekXtME0kLK/WdTZui0qodpPWId3Ma0u8W7yPim9VZ70JQ/QnP8wX87FZbthmZZo6WGNKbS4Mo1J+dYyCdvy045ZoqXNuNWgZD4eZT40oukmC6VjEpioqn8IMTdvUwfLzK2VsEnMUttRWkeGw0sSwqox3nTKERrPqbSk2Uo1UfkFkiM12oDzzHGh5NaSrcqZw9Czq5EggatTBePqLEGNG00E8eWY3vnC8F3sSG8i01q1DU4ejv3ZpCd99YQrnl8LYbDslr8lUULVFX1ZlLkVNO6SyXhl8HzP5mQf24u985ST+4dcO4z/56m7KBeOsw1H8518dxz/52j78g68cwandcaSDqkOdF6u1hy306AxjtoFEtG1G7SLA90IeYeLU3CpWCnXWgdpqnHmQIs12ZfhEN2y/awVtKtSmTOdwVG+0TKdt7cCe5NSnu5DU5n36pBO/b6c86aMXFBDA+O3ni1Vew7RT7w+NAIrvHdQJsMg0alLmyMUIaOIpUlLEjIMCRTLYLov1WAn/6FAjemUqk5oioymapqyQwXpKiWdcujpp69gpRMUjpUJKgiMXj4wxOQKJHQXBtLqwbie9Uz8j4UFhKc0dhicokIri0u7SrV+XN/c2zFcCK4GnpauTwVg0jKG+BEYHo1T6wtg1ELHzfvbovj+EiYEQBrNBhKjYVanQFgJxFMictb5N0zGVK4vVK7A7kCsLu9nmRuXi8umsHSC7kmf5WVlIcdWxBNoJTds0a3SKtvTWpDTCquStSkQQQdbAOpVx0MhcsyjrdKQycC5cWYQEjNuUSbWDDnwa0blNW82XGnbkgXfo+FZK6TAcIjCzUCk+0L/alEb0tK6SimFdm7koJpcbubKxS8VjdaKYlCK9lyVdMj22cYxZ097yIRctU9bGBlLYNZjA3oGYnZu3j/WiM6smB8N2ULt6Y+VXq0/LgSSKgRTKBNB2WNOJlXOXevtVQnzyyaePDXW/X0eOZ3WIN3UqORXyHu38LN7hOq2kiDg+J+FYRn6kvHjcqUl/mgUibmuY1olJ7nTX0AwRi1hh6k/8j3zUDJ9pQsQFdWDx1t5LlFeHWpbC/shgEuNDUfKuEPYYvwpickAmQqyJozdJv1SytCuoNqrSCFs7koY2zTIuzuCUFsWsZ0sXf5SuGt9ZV50pop208U4OxPvbLfrgvbE7pk9KbpVlpE5eTVeUtSlWnTJqsCwUruGHyQ4uRse7GbrKlk/B0Pa8Wox27IQOXNdUe4WokSmlUy7kRCmTHqodLJss0A50G8kdRQCXWVlagjsvO6RYXJ3rT6OdmkqqlCm9SpU76/exEyN44vQgDvRoMYlb461jFM5d28D3XpjGm7MBbDayTKNwQeEpUGIisUz1qZZhcTCBMWr0/dkYRgcSlAPirMMY6zBiuLN3KMhrEHuGYuhNaVqubXmGEpXccjiBhmQDZorFzvahmDo4bGmmol2pWpsVTro4txnaafOwutozjfC4S9ZSO2Xhnn26+8iajE+fbHIfOMm+cfcUIaMa6E2xgagvTSCnN2K27r3uIwQUTbmLqOesA3QiAZl6/1xvp/OtN46FOsaiP23lb9BJkHCQuZ3JeD5cXO6Vi0EuFWKc6CclQygh1myAwrchPqeiESSYBxv14Rs3MujF0TVOeVSaLHfmQtRhf/aFOJcWCsNxKdA6DvWC2jRCgpm4p9xsFGt489o8Xro4j+cuLuGZi6v4xcV1/PzCGn5xYR2/PE9zYYP3BTt24afnS/gJzXNXC5hep7KlHjmm2pFS4xmPFL8jKxf7ve19x4tS5NzrweW/wXSK2Tt/6mFVeenYg7BNp1E9iutb3gXMQk25ZTARPqbiESqIXn07BbzJ/DeI7c5W9aCw6aHjVymwumbQOq/OgKjTjixtfG4Q2MuVioXlUkwljelKxxO2IY8nPHQR3fnbqndZsTbaAU3qVLqcIKCzE1U3TiGUmyA2ciWcuzyNFy7M4ZkLy6yLDfzsYg4/v7jJuqJhPT1zYRXP8fqLC3n85ALriVftErpQEAA7hdy1OwvUJ598+piQWJBnROILQg4ZZ6Vv2nVkdtQ6/onveNThO3QsDmCGXozT0VKjJR3U4a/4JEMxnuq6LF14cutCsyVa4ofCKPI/44EMxylCShFxgaA6Nb+KVy/O4MXzi3j+/Krtgv3LC5uGJ7+8SHwh1vz88hp+fon87FIBP7lUIl8jr5uuYbUStg5VpV183+XBpVF/li7mt9XSSI9GxjolsZUOZ8yu86vRIIM+hWOalfzorWf4S/9S6iw0uTX37p2rgBDxSIq1ytnFqbsowUajkJIttBZcbwxxtuG4Rt6izFI0rBKXJCHe32RZEUsaNYbpxte85R2dVGwjPTujUUTtKWqYSBudF3v2yAi++sgkjgxVkQ1uQOeuaomKdv381jNTePF6HSt1zSLRsRnyy7CUNcoGlRoVVeavpQ5yKYGBiB0TcXVmGS9fmsWzlA1+SZngZxc38FNij8kGF1ZolvHseckKm/jJxQJ+zPoT9rw9V8daPY5SM4yKcM3KlGklRqrG+rIJJCKy0QwhJkJJ6ZSVyky1nqBMlIqGbVaLq0mX905tuDasBymG9k4P3lufPs7k6tunTxSJv3pmO3mftZhjmgrc8UMTyETVr6RDymt0zzfmh4yD99lUCLtH0rauTD158i2/lUYbm6U6WkF33pwHKHrvTf0UH7G4OszIMZbbiA7aFNTrRAIbTdxqrk3EyTs1cqbdyxys8o+J08hcJgLsHkqjLxkiZHWh2qY6KtCO2Xoy7iazjZQcGibPmKl6+yTcKz9SxDS1Z7PoGL+eLY9k9iu5Gn744hX8z98+h//p+9fx335vFv/N9xfxT7+3jH/6/SX8N99bwH/33Xn8D9+Zw//43Rn8v2n+p+/N4F/9fMF2FSsii8bWiJeEi9vT1kmYGf5uvXLP7yYHCDJKY6lSw9pmkSHHWDIO0DVdqF+H4A4kEAu6dSGqFUcqV02KqdvBwLsGVd+aNsL2QDdScvMVnXHX7Cjs3Xpy9a5y8XKiNHYEDRUs/2Wnd4VyFUtrBTsCQ1OHmCrrSBjsSeLAxKBtJhDR1FCmRTmSMKK60F02FsIu1XdK487aYVXnMwVQrrWQq6iO5FaKmVpOAPMbZfzgxcv4Z99+E//Dd6/hn7IO/l+sl//6u0u8X2QdzeO/+940391iHclM4//D6588u4xLK1GUA1oDIQC3IEnb68cnn3z6+NAWlyJPc1dxK93btDa56OCGe9IXL1ficY4TOR7gPXW6wMjfnPudPNzZOWP3/Jc/F6+UvBbyhTJK1TYaNsXO4UutFcSFW2v445+9g3/2nfPEj5vkU3P4r8i3/p80/9V358jDbpF/3aD9Dfy3350izpB3fW8K334jh6miO3dOColi6qZk+6/I5Wu7cTn0cilyLr28SXlzVnTTwVKzsztSx6tDYWcnTJAiog3ENks123TL8WkpLwFbx7d3Vw8GUlRQiPGaRmlIIX/GxRt2DMEIMSsTlzJYY6hudk2ZWJQr1GxDOXcYBLFP9bE9C9vJ0qJwWQ+8SVFh0jq6rz56ECfHAxgMbUA7d6vP8NZqHT96bQEvXG9ivjaAYrAH2iVb2G/l5DKGlbVNFIiLtqSFxhS9RhhvXlnGv/7RBdbhZeLLNOUC1h1lg//6e4uGQf8NZYP//jsz+O/5zsx3pigj3MQP3sxjrpSy3a/d1GBKPVLIGJ1kscmJAUywLFLaURM6PkFKrrVkZYx2TUwMZjDcE7czjF1t2CuS2l/319mR7LHryqePL3mSs0+fILrTpysGq+F9syfYpOMBnLpnFMcmYkjrDBgdyNl2c/+1m2ZftIYTezM4uiuBeFs7GtYNGGutAFapAC1sVNDUVDdxCzEMIwcaXvze6ODtaRE58AOVvAbW80VjmLY+i661k1ZfOoyj+4fQEykh0VynySPRKqA3UMQ9w2HrjeuPi827jTPkb3uc7pl/ZGQtKg9SWLTG0K0LdCkMhwgykSDzrfn6ZNd0owN1JQRUqEQsrpZQrGq9mnYi46dE+0QiiWR2AFPLNbxth66G8OpsHK/MpfDqXAKvzcXw9lIMM+UsZoppvEPl7q3ZEC4sR213rEpIu41KEVJEAraOsdSLmMD3KTdnK+PlU9Qt93yhgqmZFeRr2sglbutHwsEGQSCBB46OYndP086v04G+OhxX6xESgQomeoAH+f7wRMqOoBDQqs0Uq8DscgFrBZYhAc8ECYta6VRKXDq8VBnxRoKAPZubIAqlBqYXclgtaLpkmnVCTZ4O+pIRnDowiuPjKdZtAUm1wVYDmmarDQcGEm08fGQAf/Nz+/H1syM4MdJEP9bZJksolcuYXyui0NQaPq2fcOWayaZZR/2YWWuy7Jt4jeX/8mwML8/F8fJ8gvXk6uhWMYsbm0mcm2nh3GwQF5djWK5qU4YMw3LrQTq58Mknnz7iJE5khp+sd+99w9tQif8OG3aQeXA+fhPqxknqBOdx5w7sYG5pDXMrJds0Q7tAij+GwxEMj0wgFO/FdWKLDvR+ZTqEF2fieJH48tJclDgTxJX1OBZqvbi6FqYb4LVp4MpGAhstbWQl/sxILSJiomHLbfn8AOqWSweT+G9YLczaIs+Nw3CjTjw78SBAhYX5Xc5haaOGMvm0OiA1k0SjU2eO7jIZYyCcR5ryR4K8X5ikXY9jKOHQRBbH92TRH9Mepp0D4Xm3uFbF0nodVYXH8tN6ci/eLnkpcHdO7dEa7hqO7ErjG48fxP2TUQwEHZYoL/ObdfzwpRv42VsrmKPirA1iDAdUpPQvTHLtKIip2WUsrKkO1Q1NuYIyVTyqjdB2o9aI4+p8A2/PBigfhPHyDLFnJoFXWI+vsh6vbqaxRCXy+loEb1M+eGMujJuFNHKBPttUZXlDZ8tGKCdQ9mCcmlc7MZTF2aPjGE/XKAdp12rJZCorlg3LbTTTxv2HhjGegSaDMkXaZk3r/Jl2a9fby0d56F52vvPp40i+oueTvnRTgLpsyu0EeWA0ia8+ug8PH0jgQKqAPdE8dsdKONzXwOeP9+FrZ8ewN1tGkkxYQrfm9uscuMuzm5hd10iKtjxW8F02eztLMdpiKLcRwaPSaGB+NYdSWxu1uJ2iNGLTlwrgkXt34TP3DuDeoSoOZTZwfKCMxw/F8bUHx/DA/pSdmRNqafTJ5czWcmlkTpdOFHqw9WPluq3HMGWAb6VWagTr+L4BjKWqGI0VMMHreLqJVKiMWrWCG7OruDFfJuRkyXR1vEQDw+kAPntmP7744F4cG4tiLFnGYLSEIZqRaBn7ehp47Egvvvnp/fjS2XHs6dNxq5sECS2sZsJYDyqfTv8gSYnVnXvyLo6UC8/ciTzHfM86UIjaZOf6zBquLxRRCqRsgxPB3GASeOz4CL7+0C7cP97G/mQee5jnyUQJp8YC+Mr9w3jyviHLT5zAIVDV7nGzazVcuLmOjVIIOorApbqbHteiXEp07/WSe07swjxrcfv0YgGXb22yrjOE7YRNvbQDjff04KsPTeLR/TEczBaxK1HAONN1eLCNL56ikvf4KP7aA0n8R58ext/7/C48eTyBPZkKasUNXL+1hKmVOgrQJi0RlmsTYz0RfPa+vXjizCSODAcxEi9iMF7GQLyCYZp9/cDjx4ftUNonzoxiT0+Nym2RaW2iFXS99cqQWoqMtSuffPLpI0vGf8hszHTut/MgU1v4wmEDORUt3bREkfmwP7vv+NtOxhL08x7kfDJkBWwBdALpBOlund3C8iYu3VzBckEn9GkrfG0s0sSR3X148sFDePzYEA70tTFGXjUSq5Fn1Wwn53sn4vjy2Un8zc8fw2NH+zCSdFukuKVqbuaE4vUUEi++D0fk21uF1lHyOv63SkY/W1hFO947w8c7kKyFt3MrOVydy2Fdu2cG1MkXI25L/ujBl4mjnz2axpHeMvEoj4loEfszdTx6ME2cn8DJ8RD6AhuItXQeYADlRhQXptYxQ/mjqg2/gpodok2/bldEXf4tpcR9VbhGBfcMRfDFM2M4uzdMvF63s3vRatislXOXpvHqO1PIFetIxtroY7kPETdGKBONxksYjpXRGyrZcpJ5Kq8Xp1awWg65kVTGo/PrTh8cwlMPHsBDB3ooO9XN75AM63I8XceJXXG+342/9rlDOHsg7TYEYx1q0aEUu3IjgOtzG1grUlVrJ1l+6nBsUSap4/GTE/jyA+M4NQHspby2K5bD7kQex0fb+NpD4/j08V4MEzsjREPb6MVrB3dstyoj2lt9+vRxJ//A9E8iGed1DDgb05bNfTixJ2UHpkfb2g6YHzf/Y9EQRgey2DXcjz0DSRzZ1YtT+/vx6NFBCsBkKLvCZLJrSLR1HhtQaUdxabaEb/3yGi4vB+0cGgQjGO2P4eGjI5ggg0608mSEmt4ZInMv4oWLK8i1e8nENP1hJzMWfCiNPckgTh4atdEbHTxqW0cHQ8hm0pgcH8Te0SyO7c7iwSND+PSpcZy9pxcDBIQElJ/O9tTMU7UVwpW5Ap47v4RCQFMutBVyyNYBjPdFcWL/AHqpjAk0pGjFoxH09/WiN5vGvokeS8OekTRyG0vIFajs1RqIx6NMwwBSUQKFRsACdfSnY9i3awS7BtLYP8Jym0jiFMv3zN4UPkUAfvL+UQPigyOMm+WxtryAUlUjZFKU3HRKB0wek+1cvcfOjZi0ej4PMW0PM+8ZrHdG29oEghZev7qOC/M1lIJZ69WUNxNgWk1b8K2yU7qtl5RKajoRxcRIHyYGmV/m8zjL9Mz+Hjx+7zA+c2IAB/vqyLYJqqgwhiDWCGIvXFjCj1+bw3w5ZSNdoXAYe+n30WOj6AtvIsa2obrMV9p4++YGzt0sohjsM6XLtUNnlKNWo4YEk7l3Yoh1HmZpaGdNbRGuzVN6mLZe7Bkm6O9mO9zbQ8V0AE+cGsEJKqLDkXUCZgV7RnuRzmZwa2Edc8tF2+UuEY8xzEGkww3XwxloYCCdwOQYlfj+OCYHY7h3kmFOpnH/3jQ+fWwAT90/4epoKMw2VMT62lpnKk5nx1FSd2MDn3zy6aNM+ka3OGrng9Ulzk/5+OQATkymTKgWvojy1SBevbyES/M69y5jHXkeT9bkzPG+GO4/NIB9/eTBKJJPtahURHD+5hpeu5HDSi1hu3WKT3o4FiM/u//IKE7sTlgnpI7lEefTMQ2vXFnBzVUqKlR0tN65Xa9gYqiH/CkJHVKuqfNaWzXUl8Lu4R7sJh4fJJ+9d08ap8mzHtifxudPjuCJk8O4f38S49kmKrkVrG8UUG0oxY5nJUJBPHB4FMcnYugJFsnNdB4csFpgGsjLr6+GiBfKr2bPOJLv/WMZ3H+QPDhFfGyXqByooy+Ed26s2AHmq/Uk1RF17Cq3zk+Wj2ePjOEe4lxaB5WrM5hKhY5FePnyKqbzOqg8gxozHAvWMUnePdgTN6VWGK8lBcP9aSuHiYEUDo73UFbpx0P3DOCL5M8PUdkbi+eRxoaVj+K/Ml/CD1+6iXfmmths9dIugTTx4+FjI7hnOIBMIG84rc1jbiwV8drVDcwW4vQdw3BfAl9+5BC+dLof+9I5Yt26yUPSg/KVGpbXKFOk+7B/cjeO7htmWnpxejJLk6H8lMaxPVnmuY1cvoxSpcr0A5PEncFMlJij3bmZwlAD40OUqUb7bPOce8aTxJ4M7tuXxVmW7xeIZ58/OUgsiqE/UcPGyjw2KWtUW+p6djufo1EnDvZa29AxCzrqQeWVScWxm7LIOMtqH3FSMtF9B3rx6RPD+PzpEezrI5ayrDQaqvYq0m6cU4t5vHRpFfMlHZieYh1pvaH3mXTvfPr4kq/ofeJIPTi6SMUBMtEg7t3XT8aSMSaoKRB6b2sMaOLkLWIcxyb7cHJfD+7bn8XJXWQo6Rrhb8N6vMQ0tJLv5loDP3hlGj99cxVr7X5j4jqTb7QvjkeODlPRI9tt58jwpOgFcZmK3kuXpOhpREyKngMJr6dNcOEWczcYRooKSBbxkBP+bdQx3MZgNoKDBCFN4biHCtXuvjZ6I2VToLQ1vps44UZhKs0glUsqeu8s25lsmhajUmg3WwT8Jg7vHcZoT8TKQDPrqedioCeFQ5NDOE4F9+SBfoz1hjA/P43pxVUUazqGgoDWk8Ug06fRp3BLJytVkE0ECI49ZOJ9OM0yu/9ABmdpTu+NYU9PFb2hTfQlW+jrTWJlY5PhbaLW0iG6UiScwqtSsJJwhcJ7ZzwL/ap+Du+iondYih6ZuECYrtaL7S1FT+fiCSRs1JamTmBt1+vo68mYiTEMN02ziQzBeXKU5TnZj9MEn9P7MjgyFsZIQsf85qxs1HY2qmG8fj2HH7w6g7fm2tgI9qIRTJgSv28kg0eOU9GLbDBWre9sIUdv56Y2aYoUJKTYS/GUGNTiRbmkOt6kcFKpIBqJYmigD+l40MBRCh91Zyp7VPL29OEE2+Hp/RncuyuG8VSVQpNTKKXQlxptXJvL4fVLS1jISWALUIlmXnuzGOhNsI4o8jCvOsZB6z/2j6ZwfF8fzrBuzx4g2FJgOr2byl+2ir7gOvqTTWRTMaxRYJpZyltnhjtqxCqiUwudB5988ukjSeKJ4jfGUb0r/2LhAI5TeTgxmcRgtEjBXh1ljm+8enkZl+yA886uiuTL4p/Co7HeKM4c6sf+/haS5HG2EUgwjHduruKN63msVnVcEBU9Cc1tbZgBCvs1nD08RuVMs00cPonXL2y28OqVVeIniBxp2kVt2rlGhvr7MujJJBAOEMfoPh6qYbQ3bDz/5GQv7peCQFw5s48YPRrASDxHHFjFUDbEvAUxv5TDer4BHfcgPNUGZmfuGbElF1kqepZf5klT76XoXVsNkj+nTNHzsEb4fmAsTcW2FxPpimGMRpGqTeb3+iremq6aoqfz2jqIZddsHHjAFL0A0gE3iqTymF4r42XmdyYfRoWKRZ14UipS9qCs0N/fg0wibMsJxKcTVHJ1puDB3QO4d/8gTh/oo6ySwt6+JjE0hzhxXttjNVg/t9ba+BHx6JkLOcyXdWRTlvYhhgc8dHQEh4aDTIfkjwraVHBuLBbxCjFyrqD16hGbKvq1x/bj+GARfe0lW5JiChHrKBwOY3R4AEcP7sKpgyNUoPqI6Vk8wLJ/gFdh/PG9fQg2K7g5s4SNUguFKhXWaBT9xNhsUmvOdeBGlcpZ3XbePLyn12HZgR7iT5Z1mMThobbVYTacx1BvHK12E7NL69gst2zGjFbbVcssR2Ll8EDWOpU1+yrK9iGcpK5nnaHH2DZO7u+lvNaDI6MRDERLSKoOWhWGQMxlJamm1IExRVx76dKanaFbDSStjlSDPqrdPeQkSp8+caTPWFvs686x5e610WwjV9KUyQLF7DAbiSZBbKA/tIih4Bz624u2bi+maQ0EPc1Dv7lax/dfuomfvLnslLwQmawOGGcUYioCWfe3jWgvkBGkSHHzpnl4Uz40zbLOAObWanj6hWt45XoRay130La2vRfgRps5pFsryLZXkGlrdJFpalZRLJWwli+bmiDQcpNNFLumK5gKaSMyUloUx9RSCS+8M0+ASKMQGCBI65y3oM3Z7wvnMBLbwBDzvyuZw9GxCFLhMpqM/+ZyCX/27DX88M0V3CS45EL9qAaplUiZaG+iJ7BOfxsYDq+hP7xMGF8mgKyzVAmW9K9CCIV1bhGVsLZWCiilvBLknXGp9spN7lxddXqK9YaKkrP36rPjjgCl8nW2/LX6DhGgQ7g0m8OfPXMJP3t7DdOlHuSCg1TMU+YvSiDPMN39oVUMBJdYtos27189hzrod4VK3gsEhn/HfL98vYz1dh8BW9NIVGcaPRWga3MWpUtAyStfuYkiisHtz2kKHo2DFdi5TDOs6x+8PEUFchFXNxLIB9mWCOKtVsPam0Yt+wMrGAyuoJdtMMUy1mHoamSbTNdrFCB+9PJV3Fiush6yLOU0Li9U8a1nruJn5/OYqfTawfw6Ql3pTAVLGIzkMcj6GQqtML/LyLSWEGusEhSLzE/N6kVt2AREK17Xjmx9p+XIqx2ffPLpo0jGD2XEojrPenBH5jhetM2V+XGk5y7nEqeSU++bd3a60VpvGXEEcUIZ8XK9Jx9mXCGLS9imHR4FjJ5/2Wn9t+IRZ4kgX4/hufOL+LPnbuKVW20sNgftAHZ1cQZaZeIx+WB4BUMRKnXhVQySV2ep4CU1iyVQR7DVpHIYQDjEmHQMkIXrMMVtWeJyZWWgMPWrtJnLDhnTUxodejrmJwxRAThjf517heWQXG7Mayc8cnjDHnNihhnmj0uPlOeVUgA/eWOG+Z3GW0shrLfE96n0MgQpxClsoje4ir7gIrKBJT6vkYOTP9N/qR3D5eUGvvfSNH74+jKm8glieBZ14rDisjpWmhV/J32Gsnyn0gBxIEKFcpzK13DKKe5uUy+VlBIMRJiFbKyJAWEFMXEoOI/hgDNDgQWMUDYYCBE7iJtx4pTiWym28ONXb+FPn1eeoqydYZRCfWgGo8QWIdM6/axTNmD9Mcxek6tWEAeVUe0ezToM2FEbaqeawCts1WHyQbx0cRHffXEKby8GsSqZSJu40YWWqiTbOfQGKG8II7FEPKOsRhflcsk6pmu2yU9nkxqrIVfvKicZR87ep7uD/BG9Txw5MdsYO79jjeAc29ePY5M9SAa19kqHgYZs7dkvXp8CkiMIxzMIhdxwvn4k7GtzlHIrjEXqK2/PlvHnry7g+68sYCqXJJOVIK1zX7QlfxNjfVE8cGQEwxlBWMUYe6EZwZW5Ml6+tIxiq3NIN8NVHGI73lUA0WwGkM8XbDeyWCKBWDyBYJiKHsMR9sidQq61YhT2I7g4XcCr5xdQaafQOzTKd5pWE0K5GcXl+RKee4fv1NtnU2vIwRlGvdlg+Hk7zy2dSiEWjREgHZOV0ciitp7WrpAza3W8c3MDm9ruuJ3A4kYVs6sbbuF1MIJgNI5AJM5wlQsyU+bLAIaKV5MgX2I65othvHWrgh+/toBfvr2CpbIOptdGLFpA7jFgBeGVhWf4xzIxlY0glwi3cXBXL84cGbWpquoxbDGtAs7Xrq0xvxXLq3dWoUiXaqOJtfU8llbzLLcI2pEk2uEUoHPirFCZZ61HY0w6uLzSDmODZXttuYlnzq/iOy9M4yUqeSuNHrc5ifXmojMFJ437j40hQ2VYvbgtpnejEsJbN3N4eyrP9Mi9xnU7+WEc+tWzADhfrmF+JY9CpYkW0xOMsC5CrG+mR3kwKGKYqjuBmw7svbXawvMXNvCdl2bwwtUSlusZlKnoaXpule1ndaPEvBZNyW2FEgiE42xDLGvWcTvYEUKYBo3/1hh2oRHGXD6A128U8PRr83j24joWyjFUQhm3VlTlY+WpsrJ/n3zy6SNMnpDvvlbyHH7DyXDLZqtoRkhvVLNFqsYDNqohvKKpm4tVIlbS+Jvs5TdEnjbRG8OZQ0PY0x8yRUT24jVv3VzDG8SGtVrMZjhoKr74m4T0RKCK+w6P4ejuLFJBLZFo0jaChY0mXr+yhOm1FnRmZ4Nxie9W6k0skUev5arkSeR/IeIK+VYgRF5LTFE2hCmalqmNyjReVKhHMbUGvHhxAz98eQbnbjXIo9Pk0VonFrBZJycPjuDIrhQydrB6nfGFsZQHXr64hJtrjDfQGdEzZUzTKGvYN5rF6YPDGElSRWhp6r6wMGpTVd+ZKWGjFrf8u41PVLpN9MTbOMP8HhhKMO+aptomxoUxtVK1Ecy5nOJS2aqrL2jn6i6u5lAoke8TB4WhwQhxizzaw0QZlY1qSkcNLJJHvzFVxHdfnscPXl/BlY0oVcIsqnZ4uVClgZ5YGw8dYTqG40gyHTqip0El8MZSGa9eXcEisZgAg2P7R3Bybw8GohU3+mjlGmX5aEmFMFxG8TOILYVIRNWebalCHL2xUMAb13PEX819SSJXaWNhOY8c86TpoSDGBom1UuA0Ukghw10pF6geVc+5WhjXVlr4BeWC71OZu7QIFFpSXBNWVpKfdGD/ssqKipvO341SJgpF2NYYnlsC49q4Ok+LxLwZtrFXLyxS7qL8lBk0PCUsss5YH0sFvHJptTOipzg0cqiy8+luIV/R+4SRY0+uRzHYaiAZbWGiP4H+VBSlQgEbuQqZJ5W3W2V895mrZDhNO4On3IqTAYWwSsVuqRTCPN2cny/ip2/M4gevzFP438R8KW1bz2u7YRdLi2yyib5ECLuGM9QQq9gsUODONzG7GcT5W0W8M7VBZYngphEWchbBlmPpYqdk1WZHAbxJxWQth7mFNazlawQ0AU3EpkisldpYLARxZaGG595extMvTuP1q5sIpMcQiPdgvVjFSr6NuU3gwkyRjHjNFn2rV8sJ69p1k8y0WMb8wjLWN4so17Wmj6BR1jRIKk7M79x609L74sVF3KAAUGxo1YXm94dti+ip2VXcYsEsbtSwQX9Kn/mnWWG5rTCc6bUmXr6yhh+/sUgFYhHPsdwWinHUOsqSY9KqJXdQQUdF3GZkrzJyPXzRUBPDfUmMDiRRylP5zFHJyTVsA5I3r63z2rB59wKIABVDtwOprgQnZl71PTW3humlnCmshRrBlwC6WWa9F9tYZrrncwGWW4Vlu4QfMc0/PreGCwvABsGnGkyZ0i/SZjRRKnpDvQlbh1Arufa0kmtherWNN6nkXVusGABKIHBKnvfnYJw/dkjuZpHlOb9Gs4H59QrrGdaxsFEB09Vy7bDQxs2Vik3//eErc3j69WW8OdPERlM7zGmtAYUj5tXql9nW+XnaQOfWAutonW2R9SJhYaPM8BjmCtvRUhFWdq+wjn76BtvSqwt4/nKOSp7WL6hzQFNrPQj00u5g1SeffPpoknUQ2XfrjHQY8dCo1kyRd2rjrVqFCku+hJVCE7fWGsSQFdwi/tWIT1o/LX9OraqjPxnELvoTv8vRz2q+YVMwz93YxIXZinUCNiXY049TERq21m43FaaedASlYhHr+Sp5dQvXiSVvXd+gfx1Yrg5PhwFStKpU9uZXcrg5u04eXcAqebs6LEtURDfJnzfIr1ZpFohvV+fLeOniCn78+qKNbL01QyWvlkEJEt6VjhbiDFM7NPamgsxvgXhRNT56famG14kXc3kdpKQNuoQ1GkESd29gqCeG0f4kMbzCdFeI4S1L7zvM71Xibp4KpjqAvZE6qUgpFplwPxVpo1hUGdUpN7Rxcb6KN2/ksFxkXFLo6MONJAVQrlI2WNwgjq5idqVAzGxYp/AmcWmV/Fk8eplmer2BN5jeX5xbwJ9TyXv+chGzpRSKtiTD7S4q3i+lPBNpYu9ID1jsKFLGWWW5LxUCtp/AuZublB8ke4StXAbSrN2Kq5tF5nG+AJOHlnPEhhwVUdaX8r7EfOi6rPsCy4JG8sVFyhfnb+WxXmGNG55HWIfAzOI6bhLPZpeLDKtJ5aubJ2GPcGeBcVycLVImWMYPX53DT84t4upyALmW8uRNqbRiIoUs3LmlDUyzIhbXishV28TIKDaqLtxlyhsz623WK+WN1+bx83PzqEWG0I71Ek+J75SjVpjuS7N5nJNyqs1w2FbcGnSvY99hsqOtG58+ZhQIHXpEX5hPnxiSOB2GDiGNBxvojdWxvz+CyQH1umn+dg0NouJKoYHzNxdt6mY2G8f+XQO21b0WhCsEHbq9srZB5WaJDIZQYCMdAjenhpArkXm6PrDeZAgHJnrQF6+43QvZ4hqtiAnbV+fyKLQzhBL1mnnkmLTAxhOj9azF3BG6FHBow5AJgkgiQiAKNlFvUaHaLOPW7AbWCVzhWArjY4MY7o0wnyWbFlNvBghOFVy4tekWvTNvHvgrzVKcIu0KkqEqw09hcrQPyYhGPvmWia6Ss86vrOHm0joKDaZEYVgPrIQAp3jprLdkuI7x/hj9Z5k+ghijUO9xiwpMuVwhY16m4kOFJ6DtswXCYdgOb5YWgbzBvOXaprBuJwNSl15dtWB9jIr6PRMZpNs52xFT0yfV03d9sYBbG0Ap5NbomSLFuy3fBq5OeQy2a0gT33eP9lBJY7lSgbTD6PlOwsbKah5zBKrNCsE5lDZhQGsrJEC40BxYawR3ROkZ70cqoA0HKha+ppvcWKmZYuYUT1dmIquBTloUmrtzgph6k5NMy0S/6iOLVDxk9SG/LbbBQqGImYVVLGh77nYadVM83fmNClnKp/LswlM8LeuBT4ebNlVngvlNUR7T1Bi5V7kXi6qjFSyt11Btp5he9c53es2Z5worq9pi6lhvauHy59Lvk08+fRRJbFRfqPippuxrLXGUN8loHXsHojgwGEHWRrg0DbyNUiOAa5TyZze0cEFYoS5L8QfhH3EzGcDBkRRG01SeIB7XpG0Qt5YruL5C5a9BnmF8yJF8kmPiwFgGexhfklirddHinYQtXGdc1ONQER4YapLDGdbSMM0Om0roTwWwb6wfg5kE4iFyH6ZVrKdGXri2SR69uGqKg0YGaxoBIs7qCB1x1SB5VjwYwt6xXkwMhNATKiHWmZq+Ua7j2kKRCotOjNNacSaA9uKcmnI6nI3aeubBhFbj1/iK8WpZBTWUm2ttbLbU6anRJjd9NURcSIW1XjuNXVkgHahZR2OdSqxki6sLVKhL2pEyzhJw+C7eq/+w/JNHRwJVDPdFMcn09qSiCLG+zB3TUynXMEe+v0gtt6jjc8j3tfmNcM7C6fwKK9Jk0YcZxnhWZ/JpWqUOVg9RcavjMjFyraaR1wAmRzKUgyJIhdzmZCpXHcMusuKwEN2zI5dud/yR1tCFsEyZRqN6mzXiRdDNzjEcl+tWnXmroT9DeWqiD73pICIhxUD/LPCmyVTrVHQ7OAute5SMIKyU4sVQmCiVcfdZI65aiFDBnuGUbUyXjKkjX1NSm6hQZjF8pLxRa4Wxe9cEhnrdBj9UQa18lnJlUzBXqzHk23HaxhlNR16wvPGqD0jx+fSxJF/R+4SRPtUQNY+hbAyfOnMIAzEqNk1twqKJKU6JU4OwLU/aEmbpQwvByVwk0moev3FAXmwOuXofPWHfGBDJLmJDTti2NRBkGGJdUihMCO9M12gQLDQVTopQxyNJ91I+xH5lq/h4b9F2/vSOLwNCbb63lCu9ujKltokL30vQ19EFJshbOjXFRWzQbQYiG4Undqa4jLltpddN71H4XtyKyf3pWWNsHcXWnsyp/QiYLSwzvGM4bmMZpYOgwPyr59aVNuNTmZpLGedTV2fjkVzzz/Lh4pZD5U1CS1gHiitegQFdS8XRAnn1LCocVzquhLy0yZ0Xs1Ufo1OeTTn13ChtNKp7K1um28CG8So9ClEl7crDKY6CCa2B87Zw1vQbratUJwKoNCkF3dFF5UE2Lk4Xppcu2VlNWOg6vF5BeGlSftoENHOvnsgOsFpZ004H+QfYfk1wYQiWTgop5k9PzIfl1fImvy5m9ye7SMfGRB7rNb0wtYR3plZQNOFGPfCM10usTz759JEk8Q2xLfHIgUwUJw7tonAfR4rCf7zlpjEaf9bHHHQY4RQH8lnjuXojfuOuEb1tS70jD5MlGYnrigwbboolOH5L98ZfxE1cqIFWhy8aP6NaYR1HdK2ZF3SvGLR+Tfe2/T/vAgEqBUqj2aoD0mGoqC1e3OG1tlaQ4SoPFjfjU/ywzTwitKY9w1F+VRZSCMQN1eGoI5F0dbM/HI9UfG4do3Kmg8mtAIxbqmyEMW5zLbohr7VpjcyLylr8PywFpxOW0qU8ykahKYFSJFWGtiZdXmVprsmBaedy78ihBH/5Wm5FblqnyrHD3xmW2ZtbTbXVZmNCfpUfDT3r6B6NkNVobCM4uta6uLDwwnwrb0IoF18nNfbGpcYZF5fSKJwRLjEnTJjrtJUTlxa1OqsD+lBalV8ZvVfYQje9calWaqTsq36VTuXXlafeyZVFZm1K6VJmlDp14XfalNyobu1OYbNsFIb9ya4j77Fc1O6qlMFy9SBeuTRLhb+KctN1OAjnLScuUv349DEkX9H7hJEYUyzUxNE9/fhHf+urmOytI9HegLZ61qiXR45tdMhjVrRwn/q7P3jHB5wPdxFD6diTHEPUU9fGu4q1dUP07ra73Uk7Y3duHFN0b7q+PNbsxS2iDf+9N85eFo6BWkq8VyTlRfy5kzVHfHCP8qfLNg8dd9tKb4vMacd+CwiM3JsPQx3fNDvd68nCdg5IvKGlq8eu29tj2XLeceU93+7OAYlsOznoOOj63+6Dbu2FrjT2yvO73Z3ovULYSdtbyLtJrgVw7klk8Riw7bQ3ui3wTo62EZ/l3W7l2RkJfQu5Fn7w7Nv47rPvYKWu3k/trEdB4V2R+OSTTx8d6nzHxDKtYz443ou/+uSDeOjooDtWqFUl/kkRcIJ3l+F733WXR+jO2YrLiMd1njtOPR7nufOQxcjcdl24EES04b/3xpF76s7qkEvn+nYyd513noutsOzCHyohnRD558LylCKPTDkSwzam7ULq8l49030nAo+vKxThmR715MXv+RJ2mCf3T/L82MOWO/PJ/y1/W9QN00uXl6Yt+46Ne7OjxLe9EekNjf3ThuFZWmjr3Tmli3edd1t+Om4cudDs2ay22Vvb8fx1X7uwtlPHj1m7VHoudobAa0c+2U7mlpbOD288B0GXShkvPJcj9+TC7SiY/JF6rLV6S8UW/vC7z+Nn55awUtNMljiVYCqlFq79+PQxJV/R+8RRm3yggZFsDI+fOoCBmM7FcWfceKNK76bb7T328QFEZx+ucXmudN0e9oeLxxjYu9K+7bkDQu8K7v0SJyb/nuUher93H0RKyPbEeFDj6INDvj0jHnV9Ohc73bm37xX6e4XZoS1v2/x/gJcdr98r2t8KvTshW3ntvPpw0W93tS1MEy5UQxrRC+DSrTWcv7Vu01xsehZB0lf0fPLpo078RinZalbJYDqMkwdHsW8oikRbU/s180MjIF3e0f2iZfPeHGQ773buHL/Ysla0dkOLbXZ62Mn570zOL2nL4ZbNFm232e7MU1T0u13QF22HN8+dLlusrHPd0nlvp85777XnTSQ7PXtX3Th3Wzd84flw5SC6vTSUZs/G8789HtFWcJ1fPe9w814e3oM0o8WVlRe3fj/AU4e8qG6/3i5KuBA9S7rSv+fYI772XLyXLCIvW946TmzTMne7g7wOA/1a3PYoRa6lsU7b9+D1y/O4vFRHvqmpsBrN1rThjnufPrbkK3qfMFJli2doOqPOEgs3i4gI4MTN37Ml3P5ii7VsI2e33aXd38npNvLAx/O5g/nZ784APFdbZMxLrtyUh/cm565L292+295+3y+4rZfv6+g9aOdklK75sCT/t9O7w/DASuTevF88Xbd3oi4IvV8Y24kePD/m/MP4+XVI4Xpp314uLp1b7Wkr/e9B5my7o9s8dHpptS5Pi/296UqahmOF04nGJ598+miSd1SNOjSDrTpxr4qopi/adEi90fsuiogDvKeSs0X0Y462OA39mU/3sI28kD2B2/mQf3s0eq/otpx08G6LjDF7vtzVe9rm6o73XueUc6/UdVJ4e37oTC7tmT8eFpirjuV2nPb8dWmnzZbbbeG4K+/43w1pm1tSN0W3keen89O979Dt3jwHyqfeyWx3T9Kj5+127x7d5sVohx096nl7WCLde893CsPIXrz77Z3cu/D42wnUSuBdDvXeWeq9ue+40bIJGzEMRg3XasG4LfewacS01yRSF4dPH1fyFb1PHEklCpJZ81e9mFKQNKWD3NtrCDt5xO0cw330Xeq899DqducfgrrxyrN76sbiAvzgYDvu6bAbynaSLY292PnWrcOj7R3e3Zmce0cfxv3ttN2/6NcJ4/3p9hg+iH6TFLxXXL/9XIluD9V79lLxq+b8/cgLS3G4eNwdvxVP2tHT7UnyySefPnLkKXr6rvX12jopMn3v+3XftbuKhIjOpfet34kUpvvbSe/nx5Hnoou8Cs2ZO1E3LZ6L9/f5/inoxr79anm3WxfWzhAdeT5E9l5luN2Wt+8uj98FuThVCobdfNyeti5tt/3gdDk5QFMb9ef53ZHDLZLdneMkMZw7vbPg9aLz/l0pIrbc7s+TUUR2R0+urXaNs3Tvb/e/k7y3zqe1c8s0vwjG43WZC+M0bVOufz/16dPvinxF7xNIVuFU9PQ5C+i0UNh2fZQ1v+qdTEJPOxmDd+eo+36nP492rgHYQZ04HXV88+LuHPPW+x3hbr3fSdvDUR4cs+7aOrqTT9I26zuz8/eiX8Wt6Pb03E4fFPsH+RdtD+G93O+Mxbl677C3v3E+353K220+TEp/dVKo7xXy7an0UvTutN6Z3i/FLgwDO3PWhf+OLenDxuOTTz79RZEJxwQHbchhWMePV8aJu86Brt4XLzfuyRzdkTzr7uvunQvHC42mo2zKRsYTpEX23t12yHvDO7v18KHrSqE5nOy6fV+iM7l0rrf/OnIhdxzteOOoywPfTduVEc/du0P41ek9ottKoy6dlZW/NdLGNrdTd61klz4of3d6f6eUenYuS3eIx72w++1k/mhtV7VrXtyaug5tC3i7tSPX6vXXbfVO0XNvvRj1+27fPn18yFf0Pqnk0K3zCbvP+denO/sXmL4nuehvow5b6aTtvXzfzgedUvduMrD5FehXU/JEv6r7D0rPB4X3Yfx7Ycjte7n33HwYt470tpu67t3vl+6URtpZcjopNCfb0/dh03qnsD3qhtERB7fZdGHSJ598+uiTk9c73zEvetyJgc6mS979djcfRHf2Y7YdXPTi9sjz0aWdfrvCftdlt0Nzp9v3pW1O74R53fVgHxDm9tfv4+UDQvlA6ubW3e+IqqPc6Mnsf9PItmh7rCQ+evH8LulOoW+l5D2i3lEeunbSelsO+LzdRi5cZ792pDa/5k82Xkg+3S3kK3o+fXTpTtzKp98SqWDvBoZu6NRpJ7q5PU+/3Qb0XjH8dmPxySefPink2FeHg3jMZYufvRftcPiJodsH1To6811Ft9f6r5NFhfFuf57N9hi6ip4ry9tj9+luoDvt6uCTTx8NuguZ+O+UrCuv5cz7Fp7cddx+7AuZwGTo7xmffPLJp48POQ7c4V/iZVv8zKfbyWBrm7kbSdnabn4derf/7TaebYBNrdvW3BvvnU93E/mKnk8fbfLx7sOTcWoW2AcKCh03H0uBwkvznYwHYtuNTz755NPdRh9x/iZ27NPvhbYjoEfbod2Deo3cmf2Wy7ZTmHlnxnvw6a4jX9Hz6aNNvqz+K9AWy7an96cP6+6jSNvzuT0f3rVDW92+v7tG5DdPn3zy6cPSdm71m9NHmPv4jPH3Srcj4A7Y21EXrgU6d86Rg0na0Jg/n+468hU9n3zy6WNEDpzebUTe9Xby4O83J8WgCa+e2R67Tz755NP7kc8vfPptk4dJt7ctp9J1jJS4rad3T9B0z957n+428hU9n3zy6WNGHqTdbm6jTi+lTz755NPdRz5v8+nDkyl7O2DSV+w+KeQrej755JNPPvnkk08++eSTT3cZ+YqeTz755JNPPvnkk08++eTTXUa+oueTTz755JNPPvnkk08++XSXka/o+eSTTz755JNPPvnkk08+3WXkK3o++XTXk7/g2ieffPLJJ5988umTRr6i55NPdz3dYUdKn3zyySeffPLJJ5/uavIVPZ98uqvpPY4e8Mknn3zyySeffPLpriZf0fPJJ5988sknn3zyySeffLrLyFf0fPo9Udv+RL+vYzpvj6f77I1ybTcB/nqudefMu93JbKeuvZc/R9tj/n2Ql4btKaIJMBdMSjuwM3U++eSTTz79rslxYoc9n0QOvIVE9vRxo7+o1O+UP26XWtxbR11bZ3zy6d3kK3o+/f6IyoaMAz2Pff1u2ZMXR5dperFtv+88USlqWcKUxpb50aOnLLlnuTRHnb9tYUuZUh63SG9/P7QVE2/agWDHKBdt5qllxpS931+SfPLJJ58+geRQweGFwxHhg4cf4svO1Xas+NXpo8DKXU53mh3UwcSPJu4wXfbnyKVfdeQSa1hO3DS55fdIij3Ydm3Hyo/PVn5WjkyhtZ9Oa+Ktu/Pa2a9KLixHFpO79emuIl/R8+l3Sh4bMdPhI2RfW8YxsN8de3FRen+MU8oPlSDPOGape8+N2KU+iyDTG+I1wgDCvOez/YnkaitXW34CzEygvZWzjvl9kdLCdCvNZlyhKodBpknAIQv7c5nwySeffPLpt0wODbr83+GDsyUn7lh7+PHrkwv9L5a8XG43W1i0le+PJiltMMWJ9zL2567urVOegnz8fQnKVnKMT1ev/OxOip8pf00+Sb4Q6X2IaZcbl2ZnfhXy3P+6/n36ONDvq/369AkksR9n9BciT6XCFAiZgtWkTUcXofndMBexRReyGHaDjb1Oo5hdww/TPkL7SLuGME2wrXdBBJlO/jLF7n24LX8KSaNkYV6o1DEPcuuYrYvL5bRr8/skCRFKn1IQbDcQbVeRQAUpVJHifZR5CFsqO8otTZd+v2n1ySeffLp7SdzV4QyIE2aM7+oqfNhp7j5yOTOMsV7Fj2oub8NBKUxWV7RX0s1Sv5oX8/vBSC8Wly7XeUxVDjHKIcmAw/QYSsTyKl1I4VMeXNv69VP4+8mbT39xFAgdesSvZZ9+JyS+KdUDbbEhMS6yy7Zjmmp0Gl0TQ9O9UwZ/u6TwwoEWUjGgJ95GJFBHo9nGRqGOSCiA8cEeDPbEUK0UMLucw1oRqAcSCIfDGOmJYmwgiXazgvmVdSxsNKgmpmiizBSZr0bIWq53zf2GGKEDcsc4Xa6c+V2T4pBq2ma66khHG9g7msSuwSSizHM+X8TV2Q0sl4KoBtKoMQ8qd/UQ7kyrTz755JNPvwk5AdzxVHUIis0a0hm/bTos5L+6HzXCt0PZ+NgTsV751QwZ5tcpTF7+PHz8aNAW6lFGsFqwetJdu1ODLt1tTd/kvWb1/D7ISUIsR14CzQb602EcHE9jOCuMb2B1cxM35jawUg6jTJmkRdXPkVqUyP3+6rRVIj7dZeQrencx3alinVrlPmebCtCZT2kX+8bponNvLsmpvTUFXZ87yTFEjy12STAWYcDpWAh9qSjCVDECrYaFV6oHqFjVUWoG0dRIn/19WHIpuVNaPNIbTZTJUC974OgoHj46jFQgj/zmOs5fnsLQ4ABOHpnEWH8E1fIGLlxfwfPnprGUBw4cOoAzR8exfySOdqOAS1ML+Olrc7g0U0Mt1IdUpgfJoEbIahZHnWW0UW5hswI0gnFT/AQXLpm/Wq48tddR10Z0p5C67wKIUA0dSgEPMq+fOTOGA0NBxNslbOSKeJZ5+/m5eUxtxpEP9NNl5LbwvJB88smnd38P7mtxX6T7KrvGkZvo1f1eu3SnL9en3z15ddGto24tem87dehVbMdWZFdpKp0OSUe63+7Cs99OzoUwIMLX2VQEqViAeFG32RaUulCsNrFO/Ku2ImhplshWOF7Ydwr3o0fbS0WKSSoRQU88gGigiUqtjs1SDeWmJAHNn9FSiO35/IvJY0D1KSW03UQ8EkJvOopEuIkw60Z11qRet1mssY5gHbtMPuuIHm35xq9GXi49f17tuqt72w2zWyZSKUNMT18C+NTpSTxBPN/T20AsUMbi+jqeff06fvbWKqYKaSp7PUxjxPwpiG4L/jC03e2vmjufPi4UCg7s/n907n2624jfrXBKQOWM7jWrmwoYmZymLCaDDfSnghjriWE4E0NfMoJ4iEy7WUGAxk1nDJCJO4YkBqler84EBwYr1kjTCbvLtsTW6+hPAo8eH8cT943jgX0xnN6fwOHdWcTCLSyvrqFC3GsFNRomn863xdO5caF5tiIxpi5D7F53kmylhPUmgmSUE/hrn96P+3YHcHCwjbF0C5+6bx9O7c1gX28V+/ubVOrSSAWrGGB6n/rMSTxyrB8H+/mur8F3KVOKb1y/iXgsjvtPHMKnTyk/vN+fxIk9GSqyAayvrqDW0KSd7YB25/S9m7ru7E71tcWEXWk7G/0KcDrvdbGyayHOujyyJ4u/+vmjePyeJCZTG9iVLGBXTxD9PQmsrecwvZBDrZ2k6zDL2IUrsmA6oTvj7P9iqZsaZzzaXv8++fTbJvfddb8H9+e1OeN45IvJYBN7BtPkmxE0a0U0murEct+mc7+dH3pXn34/pNpTTW2rOVZrSPhHXu6m5RP/wjViXhAj2ThGyCN7qajEQy3iXxXBVoVum6xruffqlDyTFydMu3Zye916cUqpG+0N4/GTE/jMyWHDi/v2p4h/PcSTGtY284Z/bSp+XuhuNNCjneF+tMil1r4Rlo9KOkFMP33PKL5w3wTOHurDUAbIbayiWK4zj1JE5EqkX+ffo51Pv2PqRCT5oCcZwsMn9+BTJ0Zw9kAC9+1L4fiuJBKBEoq5dVBXJZ53sLIjA30wOVfbW0eIAo35ZhhOtmE929VduuQsJW8FWzWc2D+Mv/yZI3hkfwj7UuvE8yIm+0IY7stiem6VSl8NlVbU8FwzihS2C88r4/cjL4Xe1aMP8vebkMvfu41Pv0vyFb27nhyD0ackxqY1Zz0RCij9EZza14cHjwzhsaPDeORwPxldDxWxXhwlozs4EsWuviCSoSpQLVHpI8ejf/J08irXs2WGPwZNpuR1oVWApV6yeyd78H954jg+dTiOUxMtHB4PUykK4sbsAq5Or6LSVo+ZejQZppibwiIZM7SwRO53J1ns7vY9SOmh7so0ZHGWCmYvFpEJ5pFOxJiPAIqFDaSjQFJr2SJtDBPoR4Z6kKKyW86tIhulfyp/We3HQkb6zuVpFGsBHL5nP5567B6c2hNinoBjExQSKOwtLSxgYSWHRoDhi6Fbbt4/jY5cXvSr8nNlKIHETSlRKHa1KSQqb6+URAKgkNkkKaAc29OHz52ZwERsAz3NZSRbBcToTzU/u1rGhal1FFtpljnBgf5EnnChOHeW6odJ+++S7hS/QMkDpr/o9Pl0d5L7FrvGu3PfYZjCf9p4Wy+eeuQg7t2TQb2whFxuE422VtRIMHTuRY4fdp99+t2S4w6Oc3rl7rhxC5pv0Ueev28ojtP7evHw4V7DvoePDOBBKien96VxbFcKB0biGO8NIR2sIVArO/wj+NmordWt49GObq9b4hh5dzxQxcPHR/FXPrUPn7rH4d/RiSiSsTZu3JrH9FIBpaYT0oV8CmVnmLeH+xdPljomSynTencpd5GA1rE3kI6oA3UvnnpgHPftTSCBPG5MTWMlxzIMRRANu6mHsOUbXbT5sCj52ybhaSxYx5lDo3jivjGc3RfDifEA8TyK/kQLS4uLWGPaa9Zq3DftpdOl/M60haKSAcyP61hQPrWTp1pmiCGqPUpuMqfmS39yxXIKaoZODWfv3YPH7x3CrvgGsm3ieTtno6WxZC/OX1/G9fkyis04ZY7IFs/ppquTjvek93r3fn5+E/pdhevTB5Gv6N3l5ACkbWu1emNNHJlI47MnyNjOjOKL94/h0/cO4IF9CTI44PAocISK2PFdMQO8k5MZAl4MEz0EPCqH9XIejXqVoVHZkJIgRmZPYmCKS/c0/A+TgY1kw/jSQ/vx+RO9GAkvoSewSUCo4ubsGp5+4SpmNkMoBzKdqSsOlD1W4B1T0GUN7tmRZ/t+jMNBSSoexLHJPpzZTwUOOTQbFVyZ2cQPnr+Oi9N5pHpH0JdNk/HWEY5QWduo4gcvXCQTXUMqPYDh/qyNfObLLZy7uoTrKw3UQ0ns392HvQMB9AeoUAXLBLw2iqUyrkwtoNCMoRnU1ifbR/bej+TGudOunSECUFKKZzqEgXgDfTEZCpesg0C7jqbmlmwxdQcOUpIjwRZ2DaRw3z1jGE40EKeSp1RI8dT6vDeurePtqSKK7R40ghETWqQ2OpC5nbbbvPvt7486bWrLeOSl6S8ybT7drdTlRd1fU/LIJ3rjLZw50I+/9PgBfO7kAO4ZBlLBPFZXV7BZqFOUjfKbk8InP86vQtveen36XZLK2sMTJ1iHWSt9cSrne3rwaeLfF4l/T9w3hM8c68X9+xM4PhHCkdE2jhIDT+yO4eTeNI5Tgd8/ksAoFb4oKqhXiH+NOkNjjWr0hDFtCfXbSLGGKYxPDiXw1Yf34ZEDMYxFVokTm9Aa6tcv3MIz52Ywu6ktNVKdaXfdluKQy4W5M+QueW3pvd7fie7U/n5V/6ZM8EYK20A6iAeODOMgZYRwfR3RRh4n9g3gxGQCg4kyNlbmcenKLZvlcvjABI7vG0SYbsqloi138KZyur+/CGpTHmANsPiP7unF3r42+lhH2XAJfakY1tfzuLWYR64eRZ0yilPaXErfP716S8mog9FSiPuSIZoAeojl/VEa4nkyXEerWUWL5alWKn+u7p3SL5lkcrSH5TaAoWQNMRRp36S8FMFqKYxn3pzD5aUGCu0k+U20I4O5UBy5J6c8bqfbW0K37TnzuyIvbHUsW2vaZrbT7zINn0zyFb27mPS56BOOB+vY0x/AY8eH8I1HJvHkmSGcmQxjb08F/eGcKWCpYBEJKSyBMpK8ZkJVDKTamBxO4J49WewbzSBLAadZKaBAhaZBrqKROG/MyVhg5/sUo0lEWmSePfjLjx/C/iwVqsYKIoS1XLmBX56bxy/eWcVGux+VQLqj6DkWusUKjKl6DKhz6fR+uYh2Gv1uER/EOpSyVIyKHpn4mf29SAYK2NjI4TvPXML3X16gohlB/8g4lbYBKnNlrK4X8L1nLti7W5tRDAyN4fDeYcTaeWwUanj18iKuLLexVosgTnC4d98wy66IGBWqEJWsdjCImeU8ZjcazGncGLJL3weTy4VjeslYCMf29uOphw/g0UNZPHQgjfsP9GLfcBLVUgFrubIrdyuHLpOUkhihwjnYm8JgTxLhMOGYSt5qOYw3buTxizfncX01iFIwy7pzZeuVcFdg8cw2skfP7vb325l013677Xba7vPDkAtHv168txvv1yeffnvkWhe/yE7T07epzZwGyRMfPDyIbzy6F4/ek8JYbIM8tIChbMg6aFbIQ8Tj6m0JhpqS54XmfWM+/a7JQxLxNk29jIeldMVs+uTXH9mFz5/qx6ndIezJCP+KSIdKDvcCvBL7UrxmwlXWNbB3JImDuzPYPRxHMtJEg/hXrVTRbAUNtzwBfTuprWh067ETu/HE6WHsS+eRbm3YbJrljQqefvkmXr1ZxXqrD7VAysJQM3PGhWe8/Q4455nue2fzQSQlQOa2YIw6lw9HipMfhWbr3HdoCN/81AE8fiSNXZkqsoE8DoylcGA0hjTLb3NtBYVCGUcO7MEXH74HDx0ZRKC8gsXFZRRrVLIM93/V9fk7yeHDh6M7xaEO5WazgckRKnpsI9lQAfFW2dbuNdpBXJlewXwexHPN0nFyiuj90qt33ntdo9RnHzu5D587PYGHD6Xw8IEU8bwH4wNxyiNryFfYrqCRXa9zQn/MWauFQKuO4cEM8Txuo3xaW79ZDePli8v42ZuLuJWPosw21NyanbP9Z7tRWXVa2Q45Su2t24bfuybMwx3Mr0lMg6cI307vnQaffl3yFb27mPS5RINtMrAwnnpwN77+0Dge3BvCWHwTPe11JJp5RNsVspg63brpe0F+gFp/oh47sjqylSZS0RZGemPYO5pFbzqCYrmINQo0TfVc04UEGGNMFqM7lqAvHcSnT+/CZ471YQAriLeLNl1yaqWGb/3yOi6vRVEICujiHf/69j1RiL/8l3vvXgyqq5Z4xtm6O0d237EQfKZjwLHJHhvRS1IpW1nP4c9fnGL8cdRjg9i1e5QKW5bpK2BuYRXf+eUlXMllUeO7vZPjOHWwD0lsYL1QwcsXFnF1LYhcK2nrL47uHcFIJoBoq4hwsIlwNIJcFbg0nUO+oSmpKhulWeSVz7tJtjLeKGY6HsaDR0fx1z9zCA/vDeLM7iDu3ZOy3bduzS3ixkIeVZabmLs74N2p26rBUq2BzVwJxWINq4U2bixRQb26SlCYwxu3alhrMm/BBN1uLzfVnpcKmS7j75L3fKd3Lm8u9Z13vKj67lRn7ve9yIWy5YoXJ9Q4EJSFdxi8s3dudPF8irzUdEkufPLpw9FWa7EOEX7F/DZHyQM/fXICX314Emf3hjESWUWytWnbnaejAetgkfOl1U2slyTIajc8fZnb257fDn/35PBImGbrlicy+OpDu/GNs8M4M9HESFTT4DY7Mx6qVNDdJhzOjzi2JuoJ2WqIBarIUMEb749T2csgmwygkM8hV6ii1iY6mrK3s0415X6iL44vPLAX909G0B9YN5zVWvQ3ry7hJ28s4NpGHIVAP2OhAkH/tima8X/H18xO4Zow7DjfFm17cG+7dBv3JHVsOhbuqfv2dv/vT0qnWnQLA5QDvvDgQTxGJe9wfxn3DAewdzCCPYNRjKZBxbnGcmhgfLgH9x8Zwz0jEQynG2g3y7hG5Wkpp12s1RnqFL1fnVxZKUEOB5Q2d7XgZIw6du5uBznll5JOs42+ZJRKag8Gkm2bcquR10g8gVsLG7i1XEWppQMO3Mwj0e1hbSfVnnen22ioja9+6hi+cnYUZycDuH93CEd3p5FKhHH5+gzmN5rEc2JyR5FUW9TOpfJeKFdQLpdRqjawkmvi5nIdr1xaxdOvzuD8QgsbrQxlqIQrAyNdaTrl4FlbiqyN2b8eaLrY3Ilu6525N1LtONsPIi+MD6ZOnSl+u3brUGZ7GN10yJVPvy65VuvTx562fxBOYdDMfzLa3hC+dJZKHpnMieEK+tuLVPDWEWmV+N03CFRUXBoRLBdDWCxGsViKY7XmTmBrBZMMJ4hgq05lp4Td2QY+d6IPf+Wx3TaXPd3eYBzujDnHDtxfmF/kcE8MJ/YPoi9UNCVPLKxUbePCzTVcmCPjCmRQN0GIPshxpeR1VrfQNAmyVF4ImMa8GYPCVTwC0bCmN5oy2uT7JvOrPLcs396RDZr4YM2bRSG/ulHvfKsVJkDHUGXeyoy/0maoks7or0GtqdaUihtjrqT+akdQjS4qbMWjK/g+gMVcDRdm1pFnydSo0CmZ/ckQju3uxURPm8BetvSrJlzduDrxnnaSUqgyUDpJzFuoXUUyWECmvYJe1lkvlpBqryFChVQp1Lo8LXBvs6TkX3nXdLFcNYg3bm7gT565hv/1h1fxv/zwJv7o57N49koFi7UsKsEM3WkklmIQC6Sz6sSAReVvhvZeiYtsexm2lchW2Xvv5VM5UvwqQ1eOymeAeTDDtKrjQPVm/syD3Djj/Cse1yPZCc2ME3hYP2of/NMCdWKmpUHtQybcUrj05rllGlx72EqZme0h++TTB1G3XbrWEwoFsW9yHJ8+exQnJ7MYCOeoKGySV1VsfRI5Cnb3BvDk6RE8dXoAB3vK/F4LbJvkG367+z0TS1u8ihx8ciiOp87uwlfv68e9A3kMBhaRaa0j1i6xdhvGy3O1EJaKQSwUiH/FONbr2skwSz4ZZzggVhINWZfamOtLrNtvPDiEY8N1usjxnXfGapenaWR393Aa+0ZiyEbK1kbEkwr1AN4mb76+0kSRuGHTAele/q1zle1I0/WCVDKEzTqKSKDlzuRzna9BKp9yE9K5r60a3TneZu3UeJ8bSZYvtTqFbZhq/JdhtBwvtiMQzKsb5/HSLn9eiCLde0a/DqeJHUza4moOM0tFlGtBZBIxKi99ODQURjZUYflWMNYbJR6mMd5TRZTfytrqGhbXSijX3W4BTvx08e00LjblQOSeVUYOm9xGcsqHMEbumCIWsPIkzJWbcMu5VVotrxZSNw79uk1kgqg2gjh/cxnXqETlWyk0gjHCSRsDmSBOHhzAeKbF/BDPmWrzt2Xeg1xROmJbEA5q6UwSBbaZVfS0F3hdNvkp2mQ7ZGG6mhKmq0wUC5E5GEapGcGb19bwJz+7jP/th1fwL/78Ov7wZ9N48WYTS/VeOy7JFETzxxJTnqx+WT7WgcEWTtnFYFnv+efKyWG6OvNd+1J+5KgjBVjb1JVvWBbd9qf2rjaqeyc72FEaMpZur3y75OzceyeTKSbl2NWh5FSte3bp7pQrHVvoFr+MvOmde29ufPrQ5I/o3S2kj8B9zfZJ6QPSVvtP3L8b33x8Nw71kMm01siwNHoHKjshLJeAc1MF/PKdNTx/aRMvXyvitZtlXJytEPjCCEZ7EYsS7Mis7KPkBxmPNDHQk0A0EsP8yiY2ik2+ceCij1gfYioawOkDg3jyvglMRNeRbOf5LoDZtSq+89wVnJsNoBgaILsQQw0gFgpgIBW0dWh90YbNY0+F+ZlrATyZoBhBJtrEcCaEUZrhdJBKlabHkNk0K4DcSQkTE2EqXTq0QYlG9II4PtmPM/syBOs8cvkynn9nCTc3qJzFMjiydxBn92eR4LvVtRyef2sW8+U0wokeHJkcwP0HM0hSMV7P1/DSxUVcWw2YsiTGqjP4TuwfQg+VWfXYhpmXWhO4Mr2Km0s11IIEjUCUbgXmAgmPRd3GphwXs1GDeLCFbFi90AnG3Yve4CYSFDtEq4UGzl1Zxo3FOppUVAPBkOXWgb2YYZACaQDJaBAxhlOvVVGr1qnQkU1TKaw1VYOqK6WHYBliXAmWZbzNcm+ihyatxfVsI0GWqRaMp2JtjLDMx7Is92QQA4kAErlDUEYAAO7gSURBVCEqms0q9VEBBNNuIKOpa1RwWasZ1sswQXKkJ8w2GMAgTZp5ilBgQpN+zRf9MB2O+etZZeLKSO+sLvmvMCMElVS4iUGmdTTLcDMBtgNgMAlkGG6YAk9b4RIo5F/FKVLb0q17VFxKp/fsk0/vR92WozYapHTUn43h0EQWk/3apKNAUVVCvHijc6nvNx2P0l0CjVoFK2sbKNW0a5+20Pdc+fTbJK+Wthun3DQw1h/FVx7ahy+f7seBbI7C9Rr5E3kQqdYOU7Fr49UbBfziwrrh3yvEv3NTZVxdqGO9EkU7kkWE+Ecdn7yEtUjBOU1+ONRH4ZqKxMJqHvly23iq6tdxYRCX2nj0+BgePpLBWGIDcap1Ek9vLhTwg1dm8M5CEPlgn2GDeLfWiPWTr/bGiX1RKpCxlu38GWhVbffPGJUEvR/NhslXAxhKB9CXIK8VP21Q2VO8jD9gwjkxgHwwiirxtIUR8u1R8mL5cbybiiLD1Pls2zvIHGaKnDDtcuIuW/zU3ok7U91sNKx9r67lUa0QNxIJYkmI6WaaWSIKx3aOJEAVKnW8Sdx6+qVp/Oj1FWJoiCqPOnoT1tHswnbxyEhxcF+Li1jPGYbdH6eMEG2hl2XUQ1lBo7XtFmUAGnXN9iewJSMId/riQIJuAg2WE924OKikqqwUrikVrDfa1Sol7BruwcHxDMMv84stGfYEwlFcvrWCmfUGKu24rb2XX5dqkUvjdhLutKVoEoOjajPBOh49NoYjoxH0qoOI7UEZXdlo4PXz85jPE2kDbGdMl/iJcNDKnDKVwkpQntJRTo1qmXhOhsI4NVug0nLjzkq/6oaiDnqTLKcE5ajOuv5MhPyJdR1oKi1tZCmOaO+EkSzYJkC5K2BtRWXkOnBVHmpLCpOhB2rWHk3uygYM17UzeYq4GyLuSvZSy1caXKlYwu13Oyk/KnUpc9qnIUn/kgtGGKbwfIR4rvYp+SPUUPvU5n/0Z35dyxMpBlf2t8fg0/uRr+jdJeSavWPSQTIZrRE4ta8Xf/1zh3FksIJerCNOZUSfSbkZxvXFKp5+bQ5/+sIifvx2AS9eq+LVqRremKrizekyzlPZW6R+FoqlkcxkbMcsTWdQL2kiEkQ224NKrYWp2WWUGmTtBBmJPPqYBzIxfOrELjxyKMt4l42RVJsBXCHQfe+FG5guZclGM6Y6RoMB7BlM4fP377W1aPftpvK0L4u9w+Ta5XWE6wUcHu/Bg4cH8OkTY/jU8RE8fKgHZw704ciuFJWPFpIMv05G3WqYimt5dMxGa/SAY3v7qOhlrUctly/h+bfncGsjiEg8haOTUvSozLVypui9YIpeEqF42pTAM1S2ND1La/Sk6F3vKHrKaW8ijGN7BjCWphDQKpugV28FMLNSwps3NlAJaPSsMzWnk6L3YlA6wH1iOINTB4dxeDiMU3sSODIedQIlGaMWbGsr7k0qezHWya7RfuwZTtsi70qpgDrzrrB7U1Hcf2TcNtw5tSeJE5NpHN3dwzqJIreZsykgAjpNyR0nEn761CQePdSL+ycTOEm3+4Zitqg+Us9RqGW5HxnBZ0+O4jPHh/HgoX7cR4V5/3DElELUy2hSmWS2EZYgTEVQm/08eE8fPnXvED597zAeYtiqq6MTSYykWjYVqlYuUd8joBmYKNnGzvknEmywDmkXpoCTpdK4bzCGB/b34bEjCnMQjxzOMi09uP9AFkfHElRCg0gRTNu1AttA1UKR4inYur3M71z6Pvl0O3nthl8vLxpdKRY20aqVKOinjMdJ0NR3pE4cd6gyWy/dZpJR9GUSKPO7XF7bJL+lPN4Rwv0W+Nslr5a2G9VHhkLuoycm8LVH9uDoQAXZ9iqi5KOqgwLxSrNKfvjaIr710iJ+9E4eL92o4bVbdbxB89atEq7MU1EvUOgU/qXTtt45yrqOUuBOxELIZLLEhCLmlvMoMrw6eao6O8W9pGxo2cLpyZht7hEh7tabQbx+eQHPvLOM2WLCsEHqqJZWHN7Vj8eZ1geJl/dNxnFiT5Y8jehVXDbF79iefjxyjDyYfPixI/3GX0/t7bWds9NRKjtsky2dA0BBXYrFaKaNk+T9jx0dwOdODePxIwPkw324/2AfDoxEMUhFINKsoFUlH6YCYO2S6Re5URqVY4c3d8hDVPuV4E1m3ajX0KxUKfQDu4cyGOgJIRIUDnY686xMWN78ADRl9fm3iZ/LbVv6oOmG3k6RXr25H0+k94gKDBXnUwdH8fi9o7h/XwKn9yZwYm8Plbk2msUV6xw+yfJ4lBj1qZMjLKMBnCXunN7fg8kh7aDJb7RRtM6XJoHURqoUiz5s3etKxaKPyuSRPX02xTSKMt9QKYkmMEW55dpCyZZjaKaPEupKS7QztSLJHdqMzjZS2U3sG4vjIcoRe/tbSIeKVHRqLL8gWHQolJpIZViXI33YR21HilmZsky96fCcrAQPHt/FvA/j/v1ZYnQfju/tRyrOcszlUKYMJrlLo4YTAym2u714lPh4xvA8g4MjSbajVSqXZbYzh+efOz2OR22XWeK+1v4PhE0pDNaLbEdlBFpuUY4UwXvZFh++R+1o1Pw8ck8/09FD2UQ7jWvZSoUKqGSvbZ20ah9mWHs0KiFJZfp+pKAfGNYxI72UEUYozw3ZzrcPH+7HA2yfh1lWo+kAMmHhueQEfbNqoxqb1Z+TEhTm7S3Fp/cmX9G7q8h9CjGCx0Rv1DbzePxw2pSthKaqkDtXW1Tylur4zvNT+M7LS3hzIYal+gA221kUAkkU2zECoaayNDG9XMRqvolYIo2h/l7EQwQIgqVGeiJhfnihEG7OL2N+nUBGhaYZjID6Csa0PoFAd3yMjKq5QvcNlBsBvD21gZ+9uYzlZh+qwQQ/1CDiBInje6iQfv4IHjsQw5ndIZzYncBuMp9wdQ33jGXwpbPa3W4ID1IRPDkRwfHRAI6MhvkuRpOgcpK0bZ5L+RwqFYKPxC8BF5mtRhe1sYltxkL1clOK3juzmN4MIBJLmTInBqrppSvreTz71gwVvRSCBPgj+4ZwmkpKAjmsFep4+fwibkjRC2QZdJBxBrBvrAd7qYgkGLZGydQLt5yv4dWL8yzLFIEhaWkRg1Ld3InUY5lOBHH2+Cj+2ueO4OF9YeaxjZF42UbzFK7gScKGhMxj+weogBLsme6BZBNzszPYLBHwWdJDfUk8+cB+fO3sCMsygFO7o1SIXflcn5rDCutTU5I0rePgaBrf/MxRfPZYGvfvIlOnkr2nn/miYqv1Fk88dJAK+xAV8CRO7QrhqJV7kGUeZr5TGOqNAFSuasUNjPfG8ZnTk/jy2V343Ile+onh1IT8BGnCZOCurvYMJRAL1VHIUwBmXVGUsnbQYnU50HcQqh7MEQL5w1TuvvLAbnzp9BAeuyeNM3tCuHccLtwxAvNYhGGzDYwmbBc4CeIlCmBN1o92hlXYDhAcNPjk04cj71tlm7GOCAq2FGZyuSJqtQZ6e3rQT2UuSmVPU+00bueROj1603FkU1HkCnksbxRRaUb43UlI7IqIPv3m5H3Z20nTyvaStz354D48MBnGQICCLvm7RnAqrQjemi7g2y/ewg9eX8Pby1GsNHqQJ/6VkEKpzTqrh7GYq+PWUg6bhRrS2V70ZNM228JGP1jfsRjrk+HdWtzAEnmqFBdNoRPG7qNw/ZmT4zg0SKWf2KFxl2INeOnCPF65XsZyLUv3xJh2CMlQGw8eG8NXH5nE44fiuH930PBvMF5FspUnjx/GF4l/nz4+gAf2uu3/xfuOjEZxz3gS+0eTdg5urbCGdmUDhyd68eSZ3XjqgTF85ngWD+6L4+S4+DB55XgYh0ZjODSexkR/nLy7iHwuj5o6SNVRa7NyRO8uVRvh6RhpeckY07GPitUpKiHHR4glESrXVRsBCgXUhUuuK0WP4QTDESRSWaSy/WhHUnZQvJZxeEcWWPjbfgwr+c3ZY7tlGP45YtqXz47j7L4QMS1C5TdF5UQbwFTwwOERfIEY8ehRKi4sI5ffIHGBMsJ4FIfGopRJKJ/UqazllV9YXWmukCm5JHXQRIJN3HtwDLuIgbFAiW+pQlEZXdyo4OL0JlbKIco52lPA4bkjpdJS2iFDM5v18vjJSXzt4Ul86kgKh4e022Ye8UCR7zUTpoUY8zVKberovkGcodJ1H5XxaKCAmYV55CrqCA3a8VBfefQePHVmCGf3RnBqT9w6uAP1Am5OL2C9rEPdYzaD6wgVub/ymSP43JEE7tsVwMndSTtzL1xbY3n14XP3T1pH6dn9LKOJoMlRR0dCuGc0joPjKcPPBpXCVmnTzg7+7KkJfPnBCXz2OBWx/dGOH+Iu/Rxh2R5kOxofSFDaqiG/maPi31CJWTvyltAYorO9SEUe74tQYR3Dlx6YwJOnBvHYoRTxnLLOWBDHKCNIpjs8EjEl8iDli/50CNXSBool7e8geU6qt0rYQnXF7dOHIl/Ru0vIfVKO6WgqyL17+/D1xw9hbzqPLDZtmF3C71K+he8Q5L77KpWWQhqbgX6UqeCpd02iir4nfaTa6KNSD1BIKaNAlBodGcQwlYhoq0SmQrDTLpNU9pZzZVy6tUaQVBhxm764iyCiKaOTWSoqrXVj2tqk5JXLK3jxah6brT5TDMXkBZ46s+jzJ4exJ7WJ/vAqesJlpCM1DGfCOHPPGI7tSmAsVUI2tIGkbSKj6Q8FPpcwnG5j9yDfD6bJyMtYXFq1NQBaryYM0a6bGrW7d/+gKZwrBO7n3lmgohdEiIreob3DfDfAPDWwQIb+y7fnMKcRPb47vHcMJw4M0V/ZFKRXLq5giopelSAthhOh4ruLSubR3RlkyKDVUxcIBpEv1/Hm1UUCQ7Szq6h6oxwcOIDYDgx8MjBrk9n34Uv3j2F/ah2jsYId2qr1ipYRlqGmWvYm3TSHsUwDQ8kWaqU83rk6jcV820CoL5vA2cODuG83MMyy7AsXKEzUsU5G/MalOZsmUrWpp22CfRSfOjmKQ70lDIZWrTy129xwNoh7qeQe3Z3CWLKE3uA6Uq01UwAT7QIykSoGe4LYTWFK4JAOlK2n8CuP7MO9E6z/JOsxtIY060ojpUn6yQbLGEy2rbzGhlIUlotYWFxhG6OIHHRn+rleO20gpIOoY/gitc9vPLIHj9+TwKGeIoYiG0hD0483EWWYCbaBVIjhJhrYNRjF5HgP+tJRlIt5bEggp/YoJbuzksBKXrSz9H3y6U7ktZKOotdm+6FgXqWQuLJRQoXC8cBAH3ozURN03FoX748tmXyth1JamgrfZr6I5c0Kqi0Km3Tpt8DfHqkkby9N7fh89sgoPndyDPsyVN9sLTnxj8L9zdUGvv3CFJ5+ax1TxQwKgV5TutwO0qw51rWuwo9SvcW6LqJOBX9kqB+DnbrWGiX1I4YiccytlnBzpYI861ajPeoEPUE80YyG3ekK+WbeBPu1YhPPvz2PN2da2GgL/xJMqabYU7nY14MHD6WxN5MjH153+BeuY9JmeIzinpEoRhJFKjVrRFniXztvG4v1RpsY7Y1gcpRKFPngULKBz53ZiyfOEDNHmrYjbA/9pMgvE0xHvJ0z3j2cDZMPk3f3UukiLqxuFmwph6b3u/E8kbuKZxrfFAZJuLbPoWkbg33psSNUKEdxnHFpumOrXkGzSRHcOjYDVKhabPP0Q0Uvm4ljYrQf8UQMN2aWKTdUWV7qkHXfg8W2VZGduHiVqpiISBkexZnJCHbF12x9bCZUsWn7B0Z7cOrAAPYPBTEcK1Kx3iTeSE7IGVb1RCvES+2qmUUf07C2toJNYkO9pZqScuvicWcD13Hs4Dj2DkdZvpqWrZFJYIPyz9s314mdQar5SeKV3Dpy6uhWwo3UoRBDBY8yzZ891ovD/UXKNRvWGRyhEmxuWNJR4rkO6x/OEs+zdco7bayuLuD8jQXbKbtFGSkZbuOxE6M4PdHCGPGvN0TMC9cwt7Rko6RLpaht5BIkv9k3nLCD37VMZ4DtqDdMPA9VMZSlgnhoxDrGXTtaMTxPEc8Nm6OUtbIh7GEZ9cTbtuvsZx/Yhy/cP24dzhPJHPoCq8RztqMm2x79pIMlpr2F8UHheRblQhErazlUWP91yZL8nrz2Eg4Qn/vCeOrh/fj6I7vx4L4ADmULGGKZ6NvURniSK2Mt7YBLPE81MDEQw17ieTYVwub6GnIl7XRrY6ydOlO7sZbp04cglZhPdwU5YVaNPx4NYHKsB2N9ETKcok251KtKM4iLtzbx41encCsfIcil+FFKwJba0mHxxtnJyCjYaFLSBhW0N8jkfvbmLFYa/KBDGWPOAq9eMql79ggANbdcawVatgVwJhmmwB1GsKnpD3UKSC2b5imlsdzSbpRRRiMm4NKs0SpvoW8ooOmhNfTE2ji8uwd7Bqi4BnN8p3UOmnbIjz1EJdGYrebmF9ET3MA9w00CnKY3JOy8Ik1VkIhfa7ZxbW4DP319Bk+/sYhnLuWxUNbUmaQtjr/Cdz95YwY/PLeC569VsNrIGOMsN0K4Pp/DT16bxg9eW8azF3KYLxDmyXxNEWZqctRSdJxCsUFIsHKkMkaGO5iNkmmmTfETa/JgQO/fizUJHNTzpSkfWszvev3cSN5WL5YCssBcf5Z6IT27lgQUE1Log1f59xZOOyG0QXudwaPdAK2mzMi73Ar21OumM8K0RfaeoQiZedGmWuqdQrTtpZlP5VSgNZIo45F70vgbn92Lr9yfxaG+DfQFl41xO7FJzDhsbUkbVmh0si+UB2UwfOH0MO7bp+2sczZKrPxrVCQcqGGsJ8C63IVvPjaJM+MtDIeWCa8bDK1OgSSCjVocK1WKPPUUym0q3UxTLFjFRE+dAlY//tJje3ByPIiMFrurB97KxJWTGZ8+RmQMyX63k7N1b97rT9+CZ7y/X4s6jUfT0CTMa+OOX7y9iG+9MINzC2GK3kPkC5TWKLh2U9YyAfXkgX4brTk7GUZ/SNP41NaVom76ffr1qVuOzmi0KUv82TeWxWg2QF5EDCL+STgsNEN4+dIinntnFXMFze/IWoej+KDq12qZgYhf6F8T+FbLEbx4YRmvXN3EUiVJ3NAsDVfPA9k49o9n0Z+i2KlOPvFRBqU17D0JTfV0vFPculisYz3fRKWhDlXbaoxGyhW5KfmxOLJGZWR0busIhfPDExmM92h0qECXFfJ68XghihPbQm1tmVagQlnGF08N4t///D58/lgck+l1ZIKrjL9kedEaQik1oDIXbjVNoO6PlnDmUBafP0PFpr9lSqDUGBWAleNtpA2x2sajnWnU6ibcg+HpTLybi0X84o1pvHWrjM1aEtV2gthYxnNvzeLNW1Ws1RJoErcLpTxlgTLTo7xY0CrwrTjdl0baYtgurwHbdEtTpVn6LB9NoR3t0WhdAiOpGmWEkm14EhK2UdGQS/nXevMkcWeISuBDhzL44n3D2NdL91QIIypTlqaiEsYWyg0srBVRqqludNwBQyBm9mXCyCaI7Qzf3NNeab+TkifybB36tUy503o/4XX3bafNyZ53HRWGRt2dkr+It1YGvKcbh9iejKTOBuuWtz/JI05GYMpYRg7zKXuwfaRjDRzclaYi2aACt8lcFS1PWjypzdxATFfrSNJ+NFnFp08M4q8/cQBPnO7B/r4iFUutMVXnvsLWVFttoBexvMVawvMC7p2I4Mmzu3BgqI1kME+3WkdIYvp1uPvugSi+TB741YdGce9IBaORFSqL65R36qjym1wtRbBSSWCzmWaNuONG4sEKdmWrrK8RfPPx/TaSqOM7tOmV5A/l1qcPT/6I3l1CXrNXD9hgJoTHT47j1GQMmZY7v05dkGvFNn78yg1TdjYxYKBl000ca6Fx7MdNuFCIEm4oXjetjxNH9o/Z4tlom8ojWYt6wYqNAN666s6aqZFdaC3fkYmkjdD1B9f5YZYYUhDLuSaefXsBFxcDKAV7bARRsUTofs9QEo8cG8FgvEzA0RRIpxzJNMngi1TIlogpMxtUFovawyyNhpS9kEaAtGNTwxhpMhFHvdXG5akF5Ovqe41bT+X6Rg7Xby0wnYu269lsjummglDhu41cCdemFvHmtSWcn8pjkeEXqZJosb5Gha5NzeHtK/K3iWnGn28xjqA2WGHiCMoD6RjOHt6F/ljFNmQJUkmrt8K4uVLDOzfzhJiMAbuBCdMof06k6JKUtXg0iN0jPZgcH7C1ZmjVrGxUFzKqvzq5+Xo5QNCMU9lJkjlGcHWpilevbWCuGLMR1Z5UDPcdHMTRsTASBG8pzdpdc3a9RCFnBTMFjTKmGKZbo/fI8XFMZHTqn3ZGpWJIxixg0X5ceQLecqGFuY0GBZ4gKqEUmuGEjVoqn5qiQ5nKenfTcfqlEFtj+a8V2phfb2OJbUKKWDvM+EJqZ+ohpTs2smiMkFNt4PrcOgUDwjcBxEA10WRbGMJfeng3jg/W0NtetR3Pyo02ptZaeP1GES9dK+AchYeptSDyjTQCiSxCEbVirR9lerJJtBoNTM+tIK/9Cmy6jdsZ1crbXXz6GNCWvKfKc//GN9yDjL4N9115Rn66/rp2rgHc/vV9WJIvxxklWJWr5EXrGhkIYKB3AD3JmAmC6lRxRPdMV4QSUV8mye+bfGgtj418HQ0KTBLyW9ZT47n+9VL1SSeh1Jbhj3Bpoj9mU8SOjYaoym2wXqrWuTWzVsWfv3ATr07VkSP+1QJp+tPIg8M71YDqwWEg74gBEoRr5FM6V23veJ9tSBEWnyf/DBJ/1lmfl25tYjEXYHhJ8p8wHjo6ijP7kugL58i7iL1M1dRyBc9fWMXV9RBKNoIofkRlMNS2dWGnJjMYjokPl8lH1UlHsZ3tp0qM2qwGsLipGScNbFTJK8NpahDaEZRKAYVq8e1MLIi+VAjJiDr1qIQRLJZyLcxuACtUVk2AjtAf45QiIDehUAvJeAzzy2u4pQ5LYpubXixc9UrDu+pXRiVNlZb8tVEj4icSWKRy9LNXr+GZc9OIZ0exZ3zYOptvzK7he89dt3X/uVYPlkth/PL1KbwzXeJziuUVZ1gqbckZLnyR8rVVH6y3RLiN+w4N49hEzGaoRJlnqyP5IWZItbEyYn7nc8xvxY1yBSJaoqDuRnUgtimbhJBOJTGzsGrr6IsaYSfu2E6XzJZ2Md0zlMGJyR6bOqt1eqqHSr1to2c3VzqHk6vNUC5yLcWVijMip7hFgm0c2DWMcYYHtoEw20qECda0YteBG6CSA2xUAlivJrFZT2CD5tJMGW/cKGOpHDUZKcHqOHtsFw6NaAMoyV3kL8zLjbk8Xru6gYWSOq2JgUz/nsEEHjw6hAkq/pqqbIohEyOjJXQ6u3A538TcZovxUl4IZw2bA0yX5Ch1iGgEcSAb4dV1NGsGg/B8gXi+Ugo5PI9IbnTlr/IJB1vIpFOYW17F1MIGCs0Y8Vzts4WBRANP3r+LeD6BQ71FG2GOszVq0OHGahOv3izhhatFnJuuYWpdnTFJ2wgvRtlH7ToWbmGon/JivYGZxRUUqEOqs01qr8rQK3Wf3p98Re+uIcdspPAMZcN4/NRuHB4C0q1169US+1ncrOPpl6/h0nIExYCmj5DRSmjnn3G624z7jNTzA8QISPvHe2yapXbRVM+aBKdcpY3XL5MJUggXcEbDYRzdk7GpKzqIXbucNckV5tZqeO6tRVxbi6Dc2eJf6Y2GApgcSphwPxQrExiLtJWiRygiyC3kGnjx/Ap+/tYygXIDb1wv4upCjQJ+GNneXsTDVBaZFimHYcYtwevCjSXMUymrBgkmBOtKrYH1IpUVKi1rlaCdiaO8axyrUmva1AwpweslCnBtvguqR5D3fLdZqGOdjG6N70ptKnk2oteZiklG1p+K4uzRcYyma6bUasczKXYzaw28cmlZE0wtPOXVbQ+sO/12icVIpsn3Tca3UcCt6SW0mm0MD/TYGiApVGKpqxQqnqey/PO3NvHajZopPeemSri8SH8ECSnt/emIKXrHRiNkqHkySyl62vG0jJcuEeCo6Gnqqcproo/lTkVvPE0BowMMSouAbHa9hWfOL+Onb7LcL67h3M0cpjfZLmIZ24ggQkXPeiAplGiKi7AyVyUgXl/Dj1+bw7Pn1wlEm7i+XDcBIt3Ti2iErZAgrXWcwTAVPQojl6fXMEdwlpAkwUPrR77+2AE8sDeMvoBbW9posk5nCvjO87fw/VcX8cvLRbwyVcbb02XcWK7Zes++/l5buK6ND3TuYyIWwdJGxdbZaLqNW/ivsnfGp48+WX+1GuTWV+N9OV27nUbkuXN23p8J7p2/nX4+jHGkO+OMvFG/uwTANX6v9VoLfdke9KZjFHrURSLuoY4w10mjXfMGs0nEIhE7f3ST3/HWtDWG5aXKp1+DVHBe4fGq8t49nMTDx0dwYKBl0xYlMIpLaYnBL95awNQGMSGgzsbtG2XtNEJE/dqsBPJ0KfH3TPbZodpaZ6VOJSkhWkv1ztQ6bpFfis9kEq7z7MSuKLKBHPljlS0hhJsLRbx4aQ03c2FbKqFRJ5Gm7x2d7LUjO4biOtO2TFyhIsBGpmN71JH3DLHvl+eW8NLFDZynIrBKhSme6aeSFTPsU0en+LmM8rOYa+LFi6v4+ZsreO7iJnl3ETNMXyjVj0QqbW00TOVX/D5CzFzNV3GVisNaWTNT1Cm2U4np/onsq1TrRrHSwPJ6CW9dXcC5a6tYKQax78AhHNozgFSMmLNawDPvLNm6xGvLLVyaK1ORKZniaefAWtkyVPvGO7F1lLxuvLB1/DqcXYpeb7hoeZYbfV2VZgiXWLa/pGzxi7fX8NLlnG2mI/ySwpBMJqyM3chqC/F4AiubVVyZ3aSCJXQUbjK/TIN27xztieG+A30YTVGd6BypUJWid20FV4k1OSoibidtr2vcUt0xIqZd+VGvA2ltI4ebxPN0UmcQJ6zTwWY50f88FfdfnpvHMxfLeO16Feeo4J27UcK1lQDyTZVP0JZ0PET54p5hbThG+YJ+FdV11terHUWvCip6jNcpesPYldbxFp0Oc6alxfTeWGU7eofY+faytYm3blUoWwURzQ5YmahMu21J8kaAMg8oMyzhF28u4bkLxPPrebbHChrRLJLZrCljGp+WfKJ2lCs3cGlqme1IM59S/OKatknOX3psH06MNNBPJU8jsWpjb97K489enMb3NFvqShmv3CzjnekKbqxUEIil0a89IVjMYdZBknJDLBrDzbkVLGxUbVaYZCrbHdRK2acPIsfPfPr4Ez9oTygKBbUlb5gfoBicPlwyT/Id7cyYLwp4onSrYfsOozWmKeYt46YxOBtjW+RZQedX86SNpbjPS4xECqB24dRZMHqj3iP1Xqsn24VERkP/pUodBfoXiMjudpJftz2+HsSSg2Q0TTz71hz+5Y8v44+fW8Z33yjTFPBvnp3Hn/xyDq9NNalI9ZOpJNDWUQMaEUqFMd5PMBMYkGkpB1KAamR2laCm3nR2+2J0ghHFo4kgVTJ8KQx1upOdSNN9NFVT0zxr9GuCQUdBVRlIgarUGyjpCAO6deXfRphlkknFqNjIqUuDTJDuVQ/vItoLTK7ObOIHz1/F91+aZd7UCyqFmIFYuaj8m3jt8jL+3bNT+NfPzeLfvLiAn17Ik9nHWctuzYdSHlI8CvfDEB06t6pv9eFFTOF94fwS/s+f38Qfv7SGP3uzgj99o8hyX8SPzq1hvphgmaWZf5WF5QxlKt5Sxr71zA382+cWrZ6++2YR//r5BfwbpvX1mQZy6GGtxCy/6vHUzoVDWQrHAi/mMcl2dGC8F/fu6UFPkEoqwarNtryUFyDO4OlXpnFupo7rmwncyKdwfjmIX15cx3dfnKHSW0Wh3cs0RajsVbF7MIozh0cwlNZYnpuio5R6ufXpo072gZL0Q0C3b8e+Oj6J19DoI6a9LSy2q/u+PMMmtmWcf13FC38VoxS4P/u2mC7jYIxOa54XKaz95PUZfOv5W3h9Dlht9hm/UColsJsw3a5jhO3wM8cH8dX7h3FksO6mIWkmgtKlbPr0G5HK0GqJFROnUBgX/pEPa+2ScXOWc4HYp12HpWCoBdGyY96DWPmGigyzrKmKVGzUaamYXFsgz4pR6YpqNgFxlvWp+xQ1E2GApqKrWQonqrWm2/RErYe462JV43I4q3vXEmiIJa1QBIuFJn782jT+zc9u4tuv5PD9t2r401fy+Fc/ncbPzpPvV7TMIG08WzxYymO+BvLKOfzRT67jT15YxXfPVfDt1/P4o2dmGcYSrpF3loK9hmXKQyLcwC7tmElerM472SkVt1MH8XhHQwcSshXX+ekc3p6tYamaQTHYh1UqT/P5AObyIaxUY8TnNPKtJC4v1vDqtU3M5kKotojXbRMQ3pe210ynZEi0VbEpNcTiG8tlfOe5G/jDn9/Cv315A98+V8KfvrrB/FKJeHUZNzajKLYzpsYIY7T+WzNnJCfouAx1xlg96Y950mZt5brqTfWkGDUSyDpNEFdCrHdauTKSv+0p7BD9yFYziS5Or+PPX76JP31+FhcWqby13EiuSO1vlfX7zJsL+LfP3sL/+ewc/s0zc3j2chHLFXVEEycZlit3xfc+xJdbbceS5PzoWW1C8fzwxSn80U9v4t+9tInvv1nHt18r4V/+bBo/fHMNs5U0ZaNt7Yj+Kq0QXr+6gj/5xXXi/gLbUBHfJqb/EWWAf0u548p6EnnibT3oRmXVNb53pBcDSTcVVB3eKSpqxw+MYFJnKxLPdbaivprp1Tq+xzr74atzlAuE5zHcyidwYTmAn59fx7+lDPEG5YWNRtrknzCls12DYRzenUVPtMa43JEiojvUgE93IOOBPn38yWvwAhZ9BBohsitfOMbknpu2bW/XZmefCN85acjCEXVCMWs01FvthCxjVbTUCGJYPFHMhYKR1igkCH5SMiXoeAyxVquhQrD0WNBO8tiL3Lq82DEFy0X89LWbeGsemK31Y7k1iJVWH+bJmN6eq+M1AsdGI0UlTOfxaGoglc5wAP1ZbQrDuKUguSDt4on6W7HwvfFyAav5lum827qj8kOmb2splHZauzJx5aJjDyQECCTsvcCScceotAgYLA32xuXc+d1JiqnBAtcxFSuVIJZrMaw3pXhKYBQgKh8SOUIo1sm4a1Es1ZM0CWw01UcmBq24FL4Uzu2l+f5kaaJH5zqARjOE+dUKXr64iEuLbSzUerHS7sdSsx83clG8eauMqbUmVScqzMbSWVcMZCVfp58lvHS1gJlKH+tqAMv0N1tO4c3ZCs5NaWqQ1reoF10TpigksXwy6hRgGQkYsoko9o71YTDVRqxVoqLXsoN5Nwpl6xlNJ6O2icDeoTj2D0Xt2IWx3ggC1QKWl1ZRr6tdu53v1Au4Wxu/9LItUPGzXkra+/TxIMd/3BfDRunOyqJgFmddat1VvFW2qdKaxnUnE2u9l6l8SFPdZuSPLZfXOJW2uO6bdUR1hpSmKm9W8cwbFKJ+fgkvXSlgiW2+qilO/F6txbHdaTqeNlH67KkRfPmBERzqryHd1vpUjf757fI3Ja8EbWQmSLwiD9RxNzJuZJVuxEz4b2oa3Uln83Du3aQQpeSpo1B34vW0o9H6KcNEGpsaJxCRc/KrCPl+NKKZNVLyxYUd7lSoPOiMVfFwTf1VuM6TLh1lj/aGD9QmNEflrSsU/N+aw+WVEBYafeTDfVisp3FpqWEbm81utA0jtNu18KnF69xqEc+/PYtzMzVMlzNYbPTSbw+ubkbw0zfncWG2ioI6EDsdbmHiVTYRtk3LbF21S4h+dlA3tUyh8qvyYxo1Y0ZT6STwl1rEh2tL+NYvLuIPf3wZT7+xjNm8TptMEi94bUlkF2Y4rLTOFwvzvcmtC1R0irP7LNJGXucuzeO586u4vJbAXIOY0+pnnjO4thHG85fXcHWl0dkoR2dZKs46eqiMaJRd3ZpOljE1j8VBDK7WUK0Td7bwvgXqeSbT2NRLupZPpd0SdDsxeXqvDuEisVSK7zIV3nybeB7QAQMuBLlTB0C+1qZCHDYsX6rHifuaF6Q5Mi5NnSA7d+9F7q0rIpcu2aj1qVPj2syKHRt1ZZnYXhugDDWIJbaJK+tB/PKdeVuSUtUZgSwjyVFqSxulNl69tIR3ZutsRz3E/z4z0+UkXriyicsLNeQaKlftt6ByaaCHml2U8pdiV7lqo6p94712dEPUdn1vEs8DmJ1bwsrqJtKJGHYP6kinKA4MhbCXytxYXxSVUg7zC6u2r4MUQ31H6VjL1sP2xtvkmTWG5drqHWrApzuQWp1PdwU5tiA+KOWjyW+k3fKUF316UkA0pU0gqGknEtHNBz8Y50qNQR+QBGWNPrnPyDE3KXTyK7buTYMQSamoE0AdeGk0MYh4NEI/hDTGJ3bT5gfeaKo31PWOWtA7yFl4TFd3VSqkc6s6v6aMYrAH5WCaoBa3ETaNvOWaYcytV2y6oFIknwL0SIhCPpm4GI8Ly5HLE587VpZzRmtXs3HkUuLZ6EmKk8ubnu2X4XgMVXpzjYKoQbqs6HdLAWbBqeRdeM59x9EOMrbIchSD1ZTWOo16sjQ5UrXifOlXtUQA0qhjIN4xcsP3Fqxic25UHzvp3fFuJ/mUC53fo4OAry/kbMqlprja6YlMT7kVwTIBYJFKnSagmADEfKoMVjYKuHhjyaZt6IxEjZxqFLXK+srVCGSbDSqy8hNmhlUXhBX61WH5Kiv1lIrxD/Vn3HRVCtUSonWmT28qhEdO7cZf/8IR/O0v7MN/9Lkx/MHnhvH3Pj+K/+jzu/DvPTaO07uiFCfcGgblQ2sysvEgBtIa4fMWr/v0cSNWowmjOiPq4eO78IX7xvDk6WF8+fQQnrpvmGYIX+H9V2kn85WO0buvdIznTubLvH9/Q0XMjHfP6ymZIXyJ4X5JitqpMTx1ahRPnR7j8xieOL0LZw4OI8G2vLySx3qOQr2t/4kyB8ZVzajzaaIvaBtgfO5EH/akC7brnNqneN/7f6E+3ZE89mrkhOMalapGg4hHhUwsX/biL5rlEidTFjZ5bre82l3XuDed9/QbZgB2lizvHU93vFY7cmp3ySbBRFgY0swSuhUiGZbSVYvXKvGvQX62fUaMC0ex6NnZufiBUq2By1OrmF1rohTKEP+kKESMDwsDteX/RolhkjdbLPQmPrxIAXq5ULV1gJWQMDOGGhXACq/TK2XMrpbJh50CoJjUwRajcK7z/Lq4rje3G/0qN2rLQiNiLDFGCpjhF025EcT5qTX8+UvT+JNnZvCTt3KYyzP+AJVRUyJstRwxQHG7cLr5fn9SHFvl5ioVxXINN+bWsVQIMr8ZN+smqLVtLs6lXMNmg+hgcddRy6+QuKPlHjF1TiscC4uGjEY51xpzNh+ToVT7ilXtRUtMtJOu20hJ5aC0dPya6ZL5Umer8muKk/Bc+C57+XOdBCJhqEb5lGbNJhL2mzsL3xlPXuraeOTc3Z4CZ0dXDEdy4MzCGpZZDkUp3CwjtYca4xE+z6wUbSqrznl0rVWhh7C2UcbcUhG5eqzTjuKmqGrK7VKhgbm1ojvDzyJmibBc9H04acWlQGuTRwfSSEVc25IsKBzWLqBffOgA/uYXjuLvfH4v/u7nxg3P/+BzI4bnf/1Tk3YcSDpYRpiKueQ2jTYP9cSRZljaNE5TTF3Offow5FqbT3cFGQMgV6jVWyiUtC5BSoE+O/7xQ4nFAhgaiJPVah1AjR4cK5M/fTQCQ7FDjSE5Vq6rFLY6UvEWRodSZHZ12moHR8cY9bHnSgQ62yI/TN4SIlMMGUNVb6rFzg+1JSVPTJUMzzETktK2DSicvdw7hUNnwxVqVNnIBMU0Hbl4GwRxLRSuiUHZ1C36JrORchkOK166svhF3tWi7DzyRxHx3/XOOWsrD4bnjEuPC9u9dS6c0ZN65ajn8d7ly3qUae96kxUfXW3Ps/m6A21Lg9PaXA0oNNeD3PGvPDlH5sf1ilosW2Vp93JCciEpPfy1fz2JvDeOvFw1WIa5ctU2GWi0rY+X2XfvVM51lnm5LoFFbcrFpF+B7upGiSw4xtahtiAkpR+aOv1JCNBxBwJARasS0eivBCjlSbUaIQAnY+okcL3haotS2IZ6Ynjo+Bi+eHYCT53px9fPpPGX70vim/el8Jfuy1Dg7sHpyRAyoRyDVrt3SnMoHEJ8a3RZOejm16ePNqlpyZhgFmriyO4s/spnDuA//PJ+/P0vj+EfPTWE/+TLA/gnX+qnGcB/amaQ9zSyp/nH7zL95qdrBm8zCrNzz3D+McP8J0/289pHwyvvLb4n+xgXzZf7GA/fMdz/+MvD+FufGcZDh+LoT2gdqtvt1fLRyZN4UiRQwZ6BNr50dhRfPN1ryl7SjgvRGI7aqE+/ChmvpfHKTfy4WKnTNE14NQVMDIplP9iXsS32XWeQlBqS8TaSVdT2ER75IMcg/xIfGuxJ2PTGmJ2bSCbIdqkAcoWKbf2uVWN2ditJE9oFQQ5HXUitVpNpk5KgWI2rW9jGw+1P5Nwq9grBLVdskm9qUpzDVmGM6wyk4sa8aYRQPpRmdeKKlJYSoV2dDK0g/QTFc5kK+tPumEUpwZK56cvDi7Appy7t3RaokO9k+MvL1g6czJOuhvG805S/9XoCy/Us1hsZFLV5CdNrW+IzflEX692z9613gt9B3ZJx7t2vy6tGfPLlJqothe928lbZWVDKL7Woal2dsaoJKiGMX7mM8Ee442GiR8IqzayRwqzRWwtJTph2jRLr2IjtHlzdbjciZ9u1UppInUxaEWxFq1w5h/r1ds6WGxmVk7VBeeV7GaXApqLLjXxaHTr33tWR4yYNlkGu2KCsRFWrrRV1QlbnTm2qUlVb8zoqnGe1+ALxPMdvqEo/GrXzZElbzkLFuViV7OXllb80IQK6tekOxaIR4nkUUev4cOmXwjc5msHjp/fgSw+M46v39+MbZzLEcuF5gniexFfv68HJPWEqdRXmXVOt1e4jiCUSCFPh3j5LyqcPR2o3Pt0FpI/IYwhaD7CwmkOZH6kWdDfEDPgykwrh2P4hCiL8dANlAyx9LupVMibR+XC6n496YKjkRerYP5bB3pEMwi3tIuYAq8oPfXmzipV8lXGI0fJzJjdQOnY2rA4j6wTcDd+R+2QdILlnKhLWs6bRIr0Tm5CvDhCLGcqGzFz+xP71J2ZjcEPQ05EO28ncm7GS6vzuvOvauDA96t450jvvr+uvQ4zEnhQZb8Qcu++9VOwkvVUu3XX7M405d/6VO6di0XSYnSMxdcfYHbl4LBzVB5mzGLCll/+dkC1tXT+ycz4FdDYibO/tlbky/1I6t4rW3trF1ZdeuTpxr9x7/TrQ6tSxgnEBdhqK6sylSqN7YuQuhZ080p2AVopbkIxeR3gY8BLxzKh9M95SM4LNZhJrrR6st3qRt7UZcZaV6tNLv+Lz6eNCrmYb6EsC+4fDODrasi26Tw4VcWooj5PDOZweyeHUcN6ZEXc9eUdT4DvP0P+O5zsZF57CPz2yaebUMM3IhjPDGzitZ15P8d2J0QIOD1cxminb9uBuhz2XB11dC29T8KnZIc5PPTiBTx3LYDxVtHPRNGHLb6C/GamMJaSuE5MqDQm1UpD45ZOnjA334uDuAfSzLUmx1jI6E/3JH62GxCt1tXAcz1J9JaMtHN03hD1DMYq8xE1yFeFMnXizvFHCekFHDFCxMt4nzx4qKVTHwzTLoxO0vTFJ3bs3Rks3Hb6nfx3O3zD8c+zWm7Io/qlONMXlwpC9pd74oDribHSGyo11gJpvhetcGd/tkD0rpYYPciuzzcEHkNKkPwtJfFu4y7gkb+i4IRkhtvIgZ+8Xst6993v3plMCHePCldIqXHFulBqnKLt72Xbz5eKgjWFN18YZR65MXAxb1lbOnTjs3t26GFS+dyIvjo6xHwvV+bM08Kpb/bCkJLd03XTSIX8kXSwn5t5Rty7djWtpzjhiO6Cl2oR2j7VufHPQTbOrQ/lRGF6sLFs60U6dqj+vo1fkykzfi1OejSwA4TBtzFnHbedZvrf+1JlCr4bjhuXEcY2WUknUbKxokF8sy0HKXYEK/Ho7jRVi+Xq7DwXiedVGhhW+S7VPH446NeXTx53EH9T8ZbRb5M35DayWAG2lb1s5kw2ko8CJA6N48MgQ+sJF2+HSm+JoUy95p15Jp07xw1VvOj+tPQMhPHpiAqOpBhJtHSSqTzaCQi2M6/N5O0xcvUViHy3+6TgGAZF6Vy1F+heY8KPe/mmK6XSfnVs9O17KOKg8dN14Lu3lTtqyusM7j1zw7+vkw5NLp9KkD8h6suzRRSCFVmXhmKhjc3eirq3HRh3Jn3uWC927cN0T/1jZBvj2LGGmA0LbyJ6YHvPr1cOWcaHujHUneWlzCqLI2bg0eKF0Q7N6MsNwrTFat/FtJJ/er7sqaapv5aDJdmPrHdlO1B69clzaKOOXr93Et3553Ras/9Gzq/iXz67hXz63hn/17LKZP3zGmT/i/R89u4I/4v33X1vF5WXthqcF414p+vRxILVvM+6JbcRN35GA7tbhVd0VOquyRoGiakb76Gl6ue0g1zHejnI7jVvUv9NIjOgYhhUJMKwAw9hu6M4L15nus8LQLsMatQvZJkyOvDxstXfexRjWwfEEvvDgXjxweBD9MSoerZrxcfdt+vTrUq5YwfTSJtaLWj+cIJ6FWK6ayh3A2aNjOLU3S/wrQ2sxrbPTylyKk5DNKVE2AsWnKNvB4T09eODoMEayTWiDKEPHYBib5RamlktYKxFF226DEdWyeFaT9ez4M3kbgxJGqINqi/9YnM54fEm1boYPCkfvHOnOC61DFtBWaKRuKI6bShCXD/lzCtiWfzrZCkmRbSO1z22xfEhyntR2pYi4Katu7MiZ90OaD08uDP260lG9GUbwxls/6aXe3XW+I8tUJwXudYdk54z+TH1hJmykr0MWDn9cPB0LjzzvOwN1Vu8izzFTxQBdypy/rnt351rJzjDvTF6YruXcTmbDYKyTQHnaUdcufL3bGr3cCk+e9O/cyG67zy3qONXVUqB4zMqlp1proFyt25RlPetPMqF2z/zJS5fwp89oo5d5/Gti+R8Sy/+QV2H7vzYMXzIs/0M+/yvZPbOEP399BbNFHc7Ab83a9x1T5dMdSBzBp7uA9GmJUelb0xk6N+fWcfnWJj+KDFkuBd221oi0sGsggScfPIBTu2PoDax1jkrQ7m/6UBmK9QLqUOwA4sEmlbwIvnBmDx66pweZ9iqiLXeGns6CWso18fb1VWxWowxBB89qqoCEdbezmVODmDYymFBYu6CF3/1tdpiM96f3HnvxnoW5Xbs7k00ZkN/3cvBbI5aRpdEBaIjI5uamex+TY2bWG0sG5/FWJUvMzhLpkcLZerTcds0W0yTRjReOesC2iJbe2Jdz7ZEcd5mzd93pRuS9eR+6rUCtlkyR2+6bd5aRrRLg722CyRbtTK93JwVRU65WNoo2NcS2H7dM077UwGvn5/DHP3wH/8fT1/G/PD2L/++PFvDPn6b50Tz+xY9n8C9+dAv/649u4v/3tMwt/O9PT+Fbz8/h4mLbjvPw1mj49NEn1ZPryFB7cq1Mox3ib87w3gQytf7tba1r1K667n8947VU1wo7hj9u9MIzbPX8kZjofunXeKn8bfepXyf8euFqvdiukX7sGRu0zSFsOmDHrU8fnuy77haz7fB8ZWoFN5eqKLaSVPa0W7KmU9ZwZFcWX7hvF+4dD6EvtOHwrLMOSDzIxr4IOHpOBmu4ZzSGJx7YhWO7osgEiJWakstmqTVnU4slXJ4tYF1n2wV0LAHVG/J9rVlXTdoaZtU120ckEnbT1DukFiDFYSfXd+TsPP7t+em+N6vOY7eNiXglfjsM9+zpUPzao223O6nD10VecB+KvHgUp74B9x14tp75bZCFy8DEG0RKrZlOsreyZq+3x+pcOkyl2XIokjsFqm9Wa/EoJ0kp17cte1a2Rg7rjYZNv90R7BZ5lnSoUblOBF1sJ8lKFmapB/EwOpexP5Yf37k45YHkXd+XnJ87O1VYeqN0ORf6Fe/x0qNc6p2usvLI2qC5oXFe30XO2nNE03Gn1Ohb2MiXsLhWsGUbmtBsU2fZNgvFOp595Sr+5EfE8x9ew794egb/84+J5T9Zwj//8RKxfQ7/K/H7fyeO/x/EdZn/je7+7IVFzBTTqAWyxHNt6qZwffow5JfUXUX64MiUiDCzKwW8cO4GFgoRVINZ6OwSMZN0pIXTezP4q586gM8ezWJ3Mm/n/STbJbfDHMFQo3j91A2P7srgG48dxFfu34U9qQpSrU0DSwFJoRbAxVvrOD+1gXJAxwC4OfJNMkydW+cBphEZSSQSQZRgtx1ztug2uw77MdMlz5Gudwrk90XbmSIVvRBsHZibUqH8UpRj+Wj6rI6kcNMeSDsz854kt+ph08Y1Kkvhgvnnvc6q0YYlUqtDrCsJKLaHmQmIbsqKS5doOwB0bbt32+gOlltWvNmR9DtWoFdjHbfmZLuvnUCke1cq20ExiFypjumFDeTKLMNAknZsL3SjA9D37xlHNBq1aVIL+RDm8nHM5pO8JrDENq5D9NMDuxHNjmCN/rXF90IxjBwFvVrQndnkyudO6ffpo0fdFuP1gLtRPqlSrhPJMw7GvNbunrfb/ybGxfxBxiMvThev7PXekUuR9Xrzo9amFNrcaHphE9dvLSJfbdqaKo1kd+P36Ventq2zuja3hnPXV7FQ0kYkbpt21Ug21sDDR/rxlx+bxCMHE9iTrqA3UESyRfzrjBLrZLLhRAtnD/bim5/aj08dzWAstkmM1Ll4DVZNCJtl4NyVZVyZLaPY0K7POlsthFq9YfinqW+O2AJYlZFwyK0L47Pq341W84UY/LuIdp61tYc7kWt1Xttz7WzLk7MXrzYrTwHrfg/eXzcE0a/DH+XeM96dy9vON78ZdXPn3bmnd9Pt77anoFMu22jrmd+lSidFfI3ruCjeW0jkN5rCWK3XDZeNvDoxcPbi8uLxQuymQTYNzXLa1h+lHWAjVCgVlya4ql3pGBZdtUGO0rNFd2wDO+30ZIbe7uTaUad+twUt19Z2tsex9X67wx2ejGTjbL137upCClDRq+Dm/JodCq91frLTmvt9E6O4Z99eyk4x291Tm+nMFqOYLsZ4DWOpGIDO+u0f24dgoh/r5RDxPEj7MEotfcva3MetWfXpw5FfUncR2YfHr0z9xpsV4NUrS3j2/ApWmj2oBLIUmcPGSAYTNXz6WB/+zhf3429/ZgxfPZXEZw+F8fiBCD5zKIYn703j33tsGP/hE7vxzbO9uKc3j57Wim1tLjArNOO4OFvCz9+YobAdhQ5Kdx+e5na3UarVqWwqHRTTmZ4QTTIeQYom2NKmA91ebTEFZzp/JtS5551vRepRc0qN5pl7o14iD6KMX5nx/Px2yWNlgk1NHmCWmC8Bg5sCK+ajdQO5Ug0VWtlais4bz7fLuSMvuR7pnXqFS5Wa7TyqqbTCB4WkbaGPTg7i+AQVn94mjg6FcGw8wfp008Y0wqEVfFojYVOHrHfxTqMe3p2XCuVGv4xdZWovde28t4tLqUZ93aJ2+uHVA5bbBQlby2fPzt7e0c7VqQJkekxp7KSP1sVaG9dm8rg6UyFDzxIc4oyrjYEk8NiJcXzzM/fgsaMDuGckgt09QZooDg4mcfbAAP7yI3vwH37pMP7K47tZPiGkQmWWPMNlGlutzuhyJ2k+fbTJqon17loLjabyagt5aCdL7aynXt006sEU7/UcN2M7xNrudc5od0Jn9wGG7czMNjttAKVZCjIW7weYhvnXTrNJfomaLuiOPFELt8/HSDxJbTGMajuGq3Nl/PjlKbx2ZR2bVa09kR812Z2+fHpvur2UVObCv7VSAy9emMPrN0pYqfegpPbCcg9SkRtO1/G5k33Et0n8B8S/b5zO4POHIvjUvjA+fTCGL5/M4t//9Bj+b0/sITamcE9mE33tVesIVR2W6mG8dX0NL11YwRzxrwJ3bqJIs1kK5XpnkzDWJ3me2rPOmtXB397ug452MiNht6aMKiytsVMnoTLoXHkIxztin/vrcnDn0DPipx18lAOlgeF1+bDj43pnTuhWPFgxd5HpVyGLpGN+R9TBIoc/nbjsn/kg3ik7HjkMc+75ZH+GbuZORnXlPFh52D0Nla/eTBJJOxeRZcEw9L02CKZFq1OHVg73On7MdKhz62zpt5MEjQjmimVUtRMs5SelR+EPZOI4uX8UR0cT2J9t4N6RKI7xfiBaIUfRTtEKwLVn1Y7l1UhpVp3yraXRkRdvl9TO1EqccaT3aje0YwDOtfIjRFf7cH9WoMqnvVccKg/n1hWv/Nuje2/ylnPvpVSbAl24sYJbG0ChnUIzqDNz2xhOhfClh/bi65/aj0eO9uDQMLA708ZENogDg1E8fLifOD6Jv/Ple/CNR8ZxcLiJVLjCcHU8g1u36tOvRo47+fSxJ/f5eiZINhHB7GYLP3zpBp65sI7VhlP2tNWvRoF6yUzO7Inibzw+jr/3xd34gycn8Pe/OIZ/+OQ4/uGXxgiAvfjyvSHsS60i3V5GpF1muAQ5KXmLNXzvxRt4+VoJm+0BCjcJAyiR5mMXylWbPup2ymzb7orpZAQ96SgZnA4yd4CiqU+eMOfm9jtj00jp0zFTMTRd+ULg1QFKY2jGzPnOmJLuzBf/HMOydzsMSV5+I+oCboTAnWW+UjGxYe2y59bllKraDCdPRU3svDuX3Pu17GyRwnJl4K4B29RktVDBarFBIUJHSmjKaxs98TaZ4CD+zpOH8QdfmqTZg7/5+DBOjrWQam3YaKvc2eY6VjYKz5bDW5m7uPhrHFvvVI4qc4GnSlr58NyKnDtHXqJVzwIrB1j2ZxnSnVfuIiXCvXNvnE97NjtLqr1zfzqmI4KbC2U8+9Y8pjbCKAd6CQ5xxIIt7O0P4mtnx/F3n9yHf9Bpo//wS+N2/w/Ybv/2Y1l85UgDX2Wb/cbZPhwe1HrSPMLWseByK2Pp8ukjTybAqB2qPbOtrRVauDRdwNu3Knhzuolzs228MQ0zr9O8Nt3Gq9Otd5lXOtfXPsCYm1vu/nWza7v7Gd7TyO7ORu4Ufwtv3Grg/Gwd85sBVFudzanMiMs5Tqe81NjOr87k8f3nrpE3b2ChkrSzxiTQOd7mfX8+fWjaxqokyNepZF2eK+CHL0/jtZs1rOgge03hDkZs/eRgvIqHDsTxNx4bwt97gjzkSxPEvjH8x8ZXyE8+3Y/PHmhiX3wFva01O+xZ9VdoxnBuKocfvHQLb881kGt7s1kUecvWJW2WmsQ/jc7G6CNifE67CSd1PNGOnT3559gk7zwEoKGFZ4xHdni5CeZ069akCQs9H46rWQieW7NXPI67imzWiRnnxtk6UusU7sqNef0oEtPnpkszX17+lZ9ODlU2lnbLGN933HjZkSuvDN0zw1KYzgPDBQZ7s3amoDaAUnyaXlshnrudK50Cbm7NeCF3aOtRN55hSpjc6YU1rBWblBLiJoPpSx9IBfDFs3vxH3zxoOH536f525/dhWODFWQCOmNTU4oVgotN5EL1cuzIxeJy2s2tc+m88rqjzr2wnGsPj+3BfrqhONr5pA53k8NcY+K/kyMsVbRyijj4DYZx6dY6Xr60grlK2g7UV5d0qF3F3sE2vvHQKP7uF5nvL/L7e2KMZtTkz3/wxQn8rUezeOJAGX/l/iTxfBD30H06qA2rJGf9/9v7DzfLrvs6EF0358q5qzpWR6CRMwGCpEiKQSQlS7Zljz0efbZn7Hljjb/3/oH5A97nN++bN06y5LE1kq1kUhQzCZAAkVMD6G50jlXdlePN+a312/dUVTcaJAimRnGvqn3vuSfseM5v7bXPDp3647vi5fFe0P3mse2gRyFsC3CfnFrHV549g+fPrGOu3odCmMKMlQq18mk9koFkDUdGwnhoTwwfmYzi0T3AfWN17M2sowfLiLeL5ptayFcbSZyYLuFrL1zCMyeXMV/T+nbqFqoZnRQqDQStWqnSRL6it0sx26sBziK53u44YhFNRE3Lx33OnEi4yWnbmQvnHJxJkzHZ+lC7h1xnua6R2nIVKuec4Qo+nWWXc8d+GsgrF/MWErEIBnvSNsmNTQihgf08R2/zpmZWrLIRjA0LQt2aigDOYDmnP41znFsp48z0GooUO+WQuitEEAs3Md4dwifu7MbfeqgbX7wnjo8fDOOeiRCyoTUSgyaj6Ihm/gUCzGEz7QrPiTo6M9IufzfyOLgk+N7cMCi/bbKUwBcdtlPsiLkgpdqtszT+yEiAe2y5CGvpplgkGVhrM51awJeLbbx8eg7PnJjHlWIKa6E+pj9lfgykmrh/ZwSfvzeJv/MI3aNx/Ob9EXx0XwP7cmvoCy1iLNfEAwdHcMfuXiRCVd577t5SS+7N6fC4faG7x+4xVtorzRDOXF7AV55+G//x62/j33/jNP7dN87j337jIv7NNy5vum9eobuMf3uD074r+NfcDtwN13zDHde5ulb7/rX20f3rb1517htX8X/y+//85lTHBb957Fu89luX8AffPI//+vQ5vHZ2BWsVvbehPWLcgy567jmRAIng6mIV33vtKp5+ax5T63Hr+l4PSyw4i6XUO5vg8cHA3AvF7M3b6+cW8bWXLuPVS3XyX6/Z03pI/Bci/1UxmCzbTK4P7YngI/ujeGwvcPdIFRPJNXS3V5Bsl2hDWrY+22ojjWNXyvjqi1N4/lwRs9UcKsjQK1f5V7lpbPZqoYaCpvUnZ7bDWvCZ9jmZQFcyihjtkbrmmb2VQeQ17l53skzYsFT8sEa5znkG/eTXjdbc3S36djuD8/VDTkfke8C1LiTHZfqQPZZdlr+uSeL2gouP4qvYNxjRJp3bGzQiMiXK0xtyxvGQvfuUONRvXqTrtNe9Kwvyo2UL3Q/255BJ0j+KLF2vBtN1W2qghRr5SY3XndhscYLCVF66sB02Q7p8fQkXZ4tYb2RRYZ1J6+VFw3XsGQzh1+7J4jcf0TJBMXzm7jTunYigL1Zk3atijfIRcqdSJe9sCQZuuFBd2euAC4l/dq900mp7dU6nUZY/7bDBNcpavtl5uta9J1beNrVtJ7sLrPHYkubqDtYIp/oC3aacdml3e5r0I4wlittnjl3E99+ex6VCGitWn3GTAw5nmnhwVxyfvyeH33kkg7/zcBJfuDeKj+whn2dX0Y8F7Opq4om7duOOXQPIxmw1Rhvb6EJ0cfP48bD7x2M7QkQTwXo9gmOXVvFn3z+DL788g1MrGT5sgyhHZGw04UXLFuxNa5nrUB5ZrCHTLpDgnJFR61OJxDhdjOGZd1bwX75/Ad96YxlTxR4UQr3QGj8KS604cnr+i+UmlgsNexuj7qIyBikGNdKX5rfesEgQOUPkWiZpwGlUyI0mGtXFRt82PTMPmiFRRV1k1DFQMhS2K0xTzfN0rltoXGu/bRr7nz0UW0eGWSZqfLAHuShJouVGgemN5gJF2pXZguWNa9U3y8R/xenW8do4wg+Z9dnVCp5/awonrtWw0u5DieSgOf00Hi9N8d0bXqVbxmi6gkPjOQzkYkZOZnwtdpR84QTzJsE80TfjwrxRVyINiJbpV04qX+2dn/Ka94OcrdnEeMinLTGziokTbSxbhuMWgXX5b2OLeNzIUzMO8r4KiEFkKb9EeLof3CKyLhyl1aKscYa8F7QQ+6WlKv7m5Uv48ktTeHshjoX2EAqRbrtftaZjNlRAb2gZfSQCm1AonEc0VFNgtsbf3EoJS+tl3luO6l30LZCO8/hwwN03EkezqzW8fn7JbNBTJ/P4zjtFfOdUCd99p4zvnqrgu6cDV73R8dh3zFU33LfPbHWVjrtx37d47bfp7JrTNX7X7fu7Z+rmbJ+Ov1PB908VcfxaFfV4F4bHRtHTq/VGFXNn44JHqMF0XFup4eljU/j+iWVcLWZRCPfYIsR60xdU2ux29fjACB53zQy9Wo7ihXcW8edPn8e3j63g3FoWq6EBVra7aZ/1xk2Cr45UqES7kqdsW0OqlbexepJo6m5W5N6r61E8fWIRf/aDy/gB77vpcjfyIdpk2lWVncyfQtb47MWVApaLDeuJIRmh+6ArE0dfLo50xI3HCvhSFsr1vqAdtPNlS/U2UDymKriY0tnSTSvKaxlgyGx2Z+5X2sa68aCTLpvQNe66oJavBodmWFwZNwHreFMNEXaULrjmdgDziGl1zOI4XguLu4XRXUdYnePyk3miBkRxHM8P/vSGV2Uk7jH+4baNf7e0uvQ6Po9goCeOTFTL0GsohM4IYTFfBukY1XbcuE7n64jLoZuf1uC3YuzOkO/X5wt49eQMLi5FeIcNks97GP8Ej9SRIX91kce62ksYTJLPd/ahNx1yPXQsfvxk2izeSsMGRzsBJ7gaDzmd+/VLfGzn87eWqLK7RuVvHN2JI+sqIb1utLxQHUD3Ba/pONc4qtjbqrn2Zz7Z/eripJxSPUdjYJU3baowLaHgel+FrM5yfqaMLz97Bn/z2ixOrWawhCHWKXssLXq7pzd1feF1ujV0h1j/DBf45DLDmy2rS05TJC+tFtBsurJU6C4tFg2P9wEv9LYxJHj0qny9Fscblwr4s2cu4Y+fnmblqIITi2lcr/ZgpZXlQ5dCTYYzTANiBOAmClitxjC1GsZL54v4i+eu4j8/fdEqVtMlijyKD9KjMyB0ZmQUKI1AoVTD3JKETlCBaSNB+zPcm0Y2RpLj428ERydyqfFjpRbGUjWOxWoCS7WEfRcaEimMF69wpkXPtjM28lPjAAu1NtbqUSzXkliupuhPEoW6yDfBs4OW1p8hjEzoM41gXy6NnSO9yETcIGqRTa3WwOxyAYvrLRpLCT3liou9Yh6k40bIYgXilLlCY5avhnHs/DK+8sw5vHKhiiv5bizUe7COHMoU0Fojscg8KzWYG9EEYimVhVqUG6jWtdB8CKvMx+VayuVLJYFyUzOjujwReTaZ74VKi+XMygnPXeB5S9Uk1pXvDEMVpcCaunzXPdVGpdHEerVN/2P0P4EVlluhIUPPPBcRMo9cWulE0kyPyniN1yxXoyxfhlNLW1mVWiJPpt0Ev1oTQyg2Yzg9U8FXX7jCe/YqnjpVw4mlHK7V+7DUzPGaBCokc/lZbkawyvK+Xk7gxGwL33r9Ov7yB2fw+oU1FNsppkOEqDITQclZcjxud1hBuUpOiJWOFp+lMu1NkZXrQrgXeVaU1iNdyEe6+bub+zddfqvjMR3fcDxf+36c03kSYflOWPkIbZ79Do67Y+VoN3L9I3jo/rvw2Y/eg3v2s5KWdMszuPut8+zzmVhYr+PZt2fxnWMLOLuSsuvres7s/pelcNbUPXPuufP4YLAuesxDVXSXK2G8fE6NlJfwJz+4jqdpT04tpzFX7cZaK4cK+U/CoRWW2FLlNUz+i9C2RVkxB547ncef0w798VMUeRT302U1cvZQXGl8phPoKt+g3BaW81igMig3yaW2v4F0MoTBvhiySTVtuW7+7o2e66qfr5MDqxHaX2dTV+sJlGjjJWbs/jBYiuw6cXspuIbnL9GWLtIOrzWTqJr4ZLjynxVua33l7xBtYZU2c70Woe3VNSnaffEDn62WxrnKhvOps3jdPlAOanzbGnlKcV2pZshZFOxMsxb0DkSJ6gVqJrVnSBxEjqgwj/IViqsK81V1CzrNkqop+tVLyRoa6ZSn/d1p9GfDFP018rmGmKjhNsS6TBFrZdY3yIduOIrCcbbJQTG8Ee45Dhw5jXn+yjuz+OZLl/HyxTou53M2dlRrvdZsnDD5uRElr9KvWJaCiWHxWnXTrTDteeNz3suMv+o64uha+0Y+1/IeJV6vWdBXyOXL1TRdCgVNSCZx2MkhxSnoySO+rtbpP+8jqy+Q/3Vv5Osx+k/u5Fmua6brcqw80cLxGre4zvqH4rJYy2GpTsfrKpZH1oRseaq8rZKvz83W8NfPXcJfPDuNp0838M5yF6Yr/eTzbpSQYVhxnqe1cHVvks8LSeue//WXr+Evnj6Fty6tYY1prlI4Stxb/Du21ePHIxTZ/6jPrW0K4xhCD4X632t8QC7Rwt7BJPaNZjHRH8VoTxsDXXEKMM2IpO51LdRYkV8pVLG4VsO1lTof0iLOzxQxX6ThDOXQIimIQN3Crc50uEqK6KeJkVwYf+uJ3fiHn9iJHeHLSLfXSGZRHLtcwr/68zfwyrwqSf320EYjbewZzOBjd49hJJG3mT1Fnfl6BCeu5PH8O8tYDVFUqsIuo2PhaH2jJiZHuvDRo7wumUeiWbYWuEK1ieOXlvH86XWsM4yKxIfiaOTFDAky5QNCoQvZeBtPHBnEP//iEdzTs2CT1UTaFcwwz/6Ugvg/fn8RK7GdrBxqXKRaGXWVmT9H8B0j5fYEW5skK/pRN5/+VAtHduRwx3gOYz1hEpEmf2mj2aghny9hgeG9c62MFynGFyh2srkuPHR4DHfviDIv16H1xsgTuLRQwTMnFigYaVAjWZljTPQmmO87sDNXtjUVlbeaQOad6VX88OQKVps9qIQ1dkgxdJJ9MBvFA6zM3j3BSgvU8la1t66XZwt49q15Cq4sipGctbxafvOaVLiFQ+MZPM78Gohp/caS7V8ttvDauQW8ebWEPNSlyrWY6qpIS900auhhBWnXUBp7db8OxDGUamAg3UIqThpkHpYlVEtNLBYamFos4yzjfnWJedMUuaWtpdHI2bJVHy63PW5vuC5I7olXmekv4HVVH1xXLHfEvnkweLQ7p/1I/PhzXLjOBeg8q4oIN/Q8TLDy/ul7d+Bz9w/hyGAV3aFl3rdurVHr4cA/2UqtNfr0sRl85aU5HJ+NYgm0f6zgOR/16SyLbbHSpsRYWB4fAMG902k8470ke6rKe0+yhT1DSRwYzWBXXxwj3WH0snKfpj2P0U6pZ0Gp2iD/1bC4Tv5bruHiTAkX5ipYKGncsMbkSSCoF4p8l0h3Jaeg9M5oJNvCP/jUYfzmA93YmZhBmtZNleYfvHUd/+Hbl/HaTAb5yIDZpngkhDt39eGhyS6MJgtItArm5wpN5PMnpqzxKk9RqQZP4wZxOUMf7Yri8TtGMTkIpHiN3lPpPjt+cZ6idh2zFXUR1CQxlnzzU2+pHj40hgf3UtDE8syPKmOtWQ/beOH4HM7MNxlWjv5oXOEv7+4TE7rnwp56pKNNctoI7ppIoje6hqTedFHULBWaeI55dGYxTCYi5/DJUznoSZI96Iq18PCRURwlF/ZG8ohpnCW9XSi28YO3mV5ep668TdZDYuS/Tz8wjn/86Uk8OLCKbszz+W1imQLxD79+HP/t9Tyu1AZRYv4EdmizcTbIK3ffObcJpULx0f031BXGIfL5wbEkbUcYAxnWJchxrUYD63neY0XgLdZ7Xjm/hkWGHY/F8cRde8CiRi6cZx2DBB0J4/QU60anVzBdzLCOk+E90cI+1usev3MYE7lKZ8gN7L579Z2r5NgyhWWO90SK0bMY8bttjdSfuHcCd4yEkTX/60xWGBdY53vunXlMs75QDml4jkur3ppGmS8PHOjHvXuzGEhUkWypYYt1Noq0b798FmcXYQ0hmmkzeAqVl+o5pjeV40MpTI52YbwvAVb9mAcq4zrFY83mN1grtbGUJ5/Pu+Er06sNFNsZWlVNeKUJq+Sn8niz9uTxo+GF3jaGexTcVvA4iCREU4mIFlBvoycNdKdjSMW0dp5owQm9QqWOfIUPXZkPbS3E6ry6hqgirjFV7qHfvHHkv65139lYGx850o9//pt34c6eefS05ultG1NLLfznb53CX7yWx2J4B8rhLK8II8m49KcpCEJlxFoVxkPtnRHka6wglcOoRdybQ1cZEgk4IZSJhtCXjrhF3FuuhVRdMoq0VYvlCKqakS9ogeMxF18Z3Q9uHFyetjHEyoFmevzHv74HExSzKQpUEcApVgr+zVdP4jungLXoGCtz6U64mwhCD/za3KN9m7+VHhF4MlRHdzyErqQjBXWDbdFwlstVFEp1rFfDWFULH8MKRyLoorbtjtHM2hIMTSO3MmslSyzLYlszCmpANMUSRXZfSi2Y6qbL/GOYyuHClvyzt23KP8ZL+RbjSd2JEONTswkKrFsH9zEaWCqGLb3qsmRZzAxxlMKy4r2mJTts3AHJSvvUWkqdam9k1Tqus+0NoNLuPLB70vIg0rR09cQZvvyhjlSsKrWWift8leVOvypN9xbbBF6HDhzkn8eHC0Hpvbvs3BH3ufXoZnn/tLjF/aIas93TrtFsiJXtT923A7/9yCiODFSt+1WU97fslBsnq7fzESyWwnjm7Vn85XPTOHY9irV2j3u2eHe7GMtPC6ATf3+v/vRQTt6Yj8pdDRtQZ8dMtE07FkYP7V+O9kzT3Gv5A03gUVGPiDLtaqVBu0Kb2aAttLdrMSszJxs7sCCCcFw5ZiI1fOGRPfgHH9uJO3uXbP1ZGnNcZMX13/3NSXz7ZA0LGKGt1Pi+MDK0531J2kjINkrEqIJOsVduuzc3Ya0DqNjrjxaaxxNhNQKGkFVvEi20r2P0q8j4rtRiKCFllXM13JqH3G63mhS6THO8waNlEw1qU9DEbUusXOfrcVuKxlntjRT+wqE8DJ4IfYUY716mtTtGzlEjCtOkMqi3olgu0/43xX0SwjrdMaiuV1NjdyrC6ygRxFUSSUovxc8iBdV6k8JBwoc7++IV/KPP3onfebAX+1JzyGKVZR3Cyeky/s8vH8czl6JYCg0xHOaPcVMnfrfEzXnnclNlobWMk+EGuuIt9LLMtYi/ZmRttdRNkWJPw15YhoWW5t0k2dHe9KailnY1qqrRHmGtVUw+r0RQVDnziFha3YKVT6mwW3pJd6nuCc0ZsNrQ7LCaDVi1K3XFNPlledKXDqM7qqVFOv7rPiKPLrO+UNIbNGss76SYaW83W46Lk6xDsG4S6/C5ugPP51lvZNwlyDb5191PEruhkGp2TQo7ClfWadSQm6NfcdYBNYynWiOPk88LFfF5G2UKeuNzxkNvCl3ZOh893j+80PsVgx4PW6hTDx1FgFpa7G2c9vERMirhMetrbaTGqjYfNrUym8wy8tgwwxsIhJ6cHsv9Iwn80y/dg08djKC/fc2MSImC5IfHl/D/+fI7OF8ewHqoj0ZE3UwkaBq29IKMYVD90Qxp1l0i7IyT60KgcMxs2J8JARpJxUd7daVaWiVIZdRkHNSdQ/vdje5apT44GCbjsbc/in/yG3fgC/emMNi6bK1VpWYUz51ewf/x5RM4saQuX70kW41h/GBQNBVTV2kUwatTkZWCHbP0WFpYfWF63Ts3/dI4EJWtcsnlid6QWJ5IhLkLzV8dt3vA/HPmUyFYy5nlnfYq/+wKfmj8A+8KEonyXucLKhWLg97yMoAwyUjh89SOPwyL4ehNncLSfn3ZOAtdYzuC+4qfDCdIo5W27gs6pVIlqzjYPcnzFDvLFfPHEZiuc1cHTj473z08fnJs3ktaC2qsJ44n7xnBlx4cxj1DVRsr6t4YOPtkQ/T4vVaL4LlTy/jzZ6/glavAUqvPKovBs+rOCuDvz583XJ47uygroYquKreuv4g7rhI0i0u75WyTncmydVd3vjpwFnZr2aknwgOTfbbcy0f31jCAecRYIS5RMP7Xp8/iT56dxflCH4o2Tosqj3ZSlV/ZbN0VzmzStmkYhVlZ+m6BSubpWzYYtIe8xrhP3OZiIRuobqiykOaLxI1BaZB9lx1Vmp0NtVh30tk0ntfezVT9MmExUMWEG7L5eiMmDghipzIxRjTeUUpcXghOGKsLIctDosfEiK4VF8o31VKYXpJMnHl7184M/unnj+Cje5oYisxQUJYodqL46+cu4I+/fw3vrInP+3lN0FPFcu4ngkuPKwmVgfEYy89KyrjMuY1xcjq5pboRz6ddcfUu+eL4WGPcxLmq7yiljiOVauWDnKAr6OfGfazjEnrar5qW3o65e0J5q2uC8xV+M6zYaa+LJyNq96e7j2TF9G0HrM7YEB9b3UH73JPUucs60MX0iddaTzOGovi4OoZC6NRwjP91VEFayNra8h3s83g/iIT7J/63zrbHrxDsQdfDT0NRN0EVDOh2Y/XsQe9U3M00yZCaMdVDfuOju4nOXj2H1goXw5HdQ8hEKiS6BuJ8NsOxOC7NruPqYoXhpSxsPcjyX+E1ZOA64eptksZNCIHhElW5uDsDYGaN5zqDp4Hauk50qfPkr67WLxlCfTo/Pih0bYK1uEM7UvjcIzuxI72GtN7m8djceptCds7GNK613BiOTSP1AUACUpwVexssL2pgGUk8WjnZtiMsS6cqA8oXfoiwlSdOfDkil2HXMee3zlP+uDy2c2V2lX/87QjffKJB7hhYXWPO9tq5Lg6u3HSNq5QEJttB1xjJWDx0b8kFJNUh6S21p83y0Xew3YlrJ0ylP3hzp3hYfOk2zxdcftzgzQ3HPTx+MugO18RHTx4dxZceHsFdwxR57SV7Ux1MGuHu3wiK9Qhev7COL78wjZevtLFAkaeuU7Jr7nmV4wfd5j3v8fNDxz7Sma2ik/3RWGqzJ3TiQGc3XZdvs1tmyVz56HOr02dQepv7CPLf+FA39gxl0BXTu5kaovSm3gjh4vU1zK7Wab90L7jeD7Jd1n+jYxNd+LpPeFA8oLgTJgK1T3v47c4N7KjS4qrNSqu7G4MKv0kBnuO4QW9fnB12vXRM6pq/Vs3mt7vqlwWXJ9razF3F29l+8bzS7fjAxfumOHOf/pQDJiWMN1y+BmUrwSGxkou18cTRcTxxpAfj6XWk2gVmVwjXVhv4xkuX8Nb1ENZAUY4kPda9oLBcedwQ5o+AS0EHLCNxsSZVUTdg3R0aL6h4qXHbxoraiZ0wVGbGzS7urrx1b6huJn+doNJWUKfbvI/07epw7gy35eLiYmV3ieVtkD9b/ZefnbMYHVcfcWWzcQ3vpTr5P2i0dfey4PwPyi/407bd251vxbPGdFvY9gy4snJluxnvoH7T+aEPj/cJl4sev5JQRV5/aiVUt4fAuNqDzAdJTjvcQxs8Y7b3FgjMhzO+hWoIpy8v4/J8HbWIW78vFG6iLxfC3QcG0ZPQsN1yp6VNsXBhy/i26ZXb1l4RDw2Z7ZBxUDh6qyjHTaLTTtf5djEMYuneXMopdoGh+eCgKbOK3n2HxjDeF0G8pem327ZA7pXZPI6dnkW+qsHVMUvLTwOXPpcHcjbBQCf6lp7A2e9OGvm9ESoPiASDyop8cv7pa0vcVHtQGCGFobtBuRcQvoMLgzmvVj8650/nus62Wp1VEda58sG8NRLW9baHP/lp8XLOztwoH+e2Qtc4SpATXDmrTVJrHFlcOxeZP3ZeEKfOl7lb+e7h8f6htyDqbvXYoSF87sEduHOogZ7QKkVemfdek/eYu0dVedGEQm9eLuCvX5rCK5dqto5pVeuN3nAPbt6TnbvV4+cGl8NbbcSmTZF54B6zTc4FB1wJufMD9gnwXmWms5YLNZy8tICp5SbFY45Xx01U7B7J4eCODPpiFSTEHW036Yfsk0JwTiFyV+fDHdf2VgaT5bOdSpQO2S/BpY3OPJBfTuQ5OPuuI+J8c9x2ewgZ4mD7lwhrlN1IVCe+TIe9+7F4uzqL4MpH3+6XeFfvqTZyKyhXbrtv+ag80ns9jZuL4dCuHgxmW0iE+CyHWGbtGE5fWcX5uTrWG2n+1sQnrvT1Ked8ev9Q/Oy6zmWulJQWfvOgkqtzrOeS3riy/FyItteFZmWtLceKgZ+B2yxN5Y871xz/HLTl8iL47ZwL3+VrcEYQQ27rPuSWueDDNjo+cNOlQeG54RzBFVuupOvsURrtiK5WGJ3jKh+VH7/N6YLgmHkqZzs9fgK4e8PjVwqbz4l7yOwhNuceKcE9nJtwx27eezOcYZV50mLhVxaKeOmd61iqB2vHxBGLxzC5cxB7x3psnTN1V3GE1LmeD7LCcMZM4boH2+292Qk6KOPifgXnORPiPt2+AFu3fzLIr2QsxPj348Gje5GJMaX0TjNmLZSieOv8Mi7MlFFpaxB80BnoZ4EgHc7wiqCcU047MlAaXcpdmLbtsmbjSGAnHbThHn+7ludZV07lvzltO+fSEfgSfAtb48TtgAz4oXDM8PNP0HGruWzca8H5nWt1jk4NnGARIAmo28oNB9x30J3JVbCD4+6Yg/l6k/Pw+Enh7i+N93n44Ah+45FduGdHGL2RNfcmb+OeU0OJxsNG8c50EX/z8hSe03prtaytBam7eBPufgz2+Dvz540grzfz3XVdF5zd2LBfwa4t2NjfwU2Hb4DxXx04ceE63rq0jIVKGhWQ/yj2ctk07tg/gZ1DWSRDFdet0HzbGpMOOnbNhe2Oy7YGlXozfzp7w5Y62PeGJ+5q9zPwy/mrLXfdprsdcGNJBfHajJvRQsfZ745z4BYfQibLnC5z53G/nbSZVjUyq0vt3ok+7BrrRkpD4nhEb9eurTXx2tkFfkfI5xmy7VY+3wzNAngf6ETFsJkeiW7HbyZ2rAFVbjMkB/fLXed4P/DR8atybPMKl77gKvfttnWuC2GDUTsn2TncEZzr/NAZOlNXOOh8C1HnbjlfO2/4rWuCdLmQNv60T80Zbp8733V11x53tYP75Z4PIfA9cB7vF77r5q88nIkITIV7fNwvt+cDPlK8qNGoo1avYbC/D5lMGvVGGxUKwHIrQ2EUgRYQLTaCsWBb5UqAoFXuR0FHb46pMwyb+wL3waF1iyL0oi+XxENHWdGbHEa8VUCzXsVqJYTj01V865UruLgSs7F56mZhLcM/FYLrg1y4OS82f2817Td+BmcIm/4Exx2CbXf8xjO2/nJ7NnGrfYL2MUZWDLc6LgTGO0Bw3o1+uq2bj7k4Btga460l/+5vD4/3D6uG2K3TRiwCHJ0cwRefOIQH96QwGFmwCZjsjYwaIuz206RVcZybq+FrFHlPn1zHtYqm789iY71Recfv4Dlzvzx+MbBC2sj54NfmtnNC8H0r3Gi5tl4VwP2uVjVZFTDY14tkMol6k/zXilgPl+urdUwtl1BqqIuaZovsVGetYWszBL3V2MSN2+6XPgO3CXf0Vvs3j737aID3PvKLxs2xCGKm2LsUbOLGchGCPZtn2rX80B6JjZ5sDI/cM4lDOyn0KLzrrLOsVkN46fQ8nn5rFpdXEyiF1COJfO6u7jj5vrn9QbH16q3bN4cV4MY9wdbW7/c++u7z3O/N47faG+RzRxhu7L8RwXWbV934/W5svcKdFZSS2+NC2yzDrXDnebx/eKH3K43gIbvxwXn3np8c9ojyo1xrIF+oYq1Qw/npJZydWsOFmQpJroWppRqKdT7SIdcXfDNUfTvh90Hx08b/Zjj/NK1/hOQQR2F1CVevXsOFqWUcv1LAc6dWcexyEattTWGcJnm7rhU/PeSHc4HB3XQ/GX70FR/Mz/eC8ynwc6v7UbjxHLcV7Nvc/6Pxk57v4fEjIDNEOyaht3u0B3fvG8BETwvZ0Dqi0FT4FHpqnWbtUd29LizU8Q2KvO++vYYrhSzKyFlF3t6S2y3pnmN/l/5ysVkC7y6Hn6xMbr5atwv/uEvvLYrlGsrVFhbXyrgwvUL+W8eF+QouLmrphjoK9U2hZ+iIPLtHNrzdGsattoPfws2/b4Y7/t5n/bjrP7xwqeJnJ2PVfbA7lURPLonS6gqmpmetfvLW5QKefXsOp2ebWGtoqaCUNUbfKDl+dvn0bp+CPbfy/+ZjN/++Ee/ee+O5t74qQHDuVvfj8ePP3nrGVrd1y+NnCT/rpsfPDaoAaS24XNRN4x9ra0xenXv1Vi+OpXIbpZabmOPdLVj6Dl77//JhMWu1kGBaetNhZMLqdlO22bAarShWtChrjZW9kBae1cxcBKMepMbDw+PDBldhV+uypkUf6YrgwX29+NxD43hobxx9kXkkW3nEaKdUWb9Ikfc3L03jm68v4vxahjKw2yYVCKnHAj2SJXOzA3qrsH3w7vJ0HdIcb+ne6E2G0J1ouuVo2g3yQ4gCT8snABXyoHtb1GkYtO5u/NKN5/EzQpCXnbpE56f4PBuN2BJT4nOtK6hztGzDaqnhltUgn1u3TV7TudrD40MHL/Q8fm5Q1UbdIyLkLkdjIjFHZJrVSZNJ2+xOPLJJa1sJ7va5NRWrYDxDmGQcbtcsbYLeSGrRVZcmncH02LkeHh4fXsj+OBtkEzeEGuiOtfDA/gF84SN78MDuGIYTecRpCxZWy/jWK1fxlZdmcW41hXWKPM26q7cHgR1w1sMsiduxBQrF24sPI25Vnpv3jSt1N428LXnD3zriRj65WQpt70YDQOcOCS73+BkgKJ8bM1V7NeGJLS3AZ9sN6mO5aLZHfYvhO/UTV2qBPx4eHy74rpsePzcYYdGZ3KPx1BS8blrkzhS+mkaYJ2hSDTd6Zashvb2YztJCMhYhB0tAaJkDNz21m65Zsk+EEKTbw8Nje0DPs6Yt1xjjpfUKVtbLiMdT6OnuQ6kWwfNvX8U3X5nCmaUE1tBrEzq4LmKB0Assgtu3FWbpOrtuPOJx++PWJWaywMbbaYIeiQctYSDec8s4BJwhbtR9ItZwdwY/ebG/D36WUG6+uz7h8ljry2r5Ijelv2bLFre75QWCMwL4UvH4cMILPY+fG5x5deJIgs4JIXfEfbtPNzohMKLvNsi3A7bGzpx1xdLeIC2C26N9wfkeHh4fVgRPsXvOZan0FqbaClHslbGwUqLwi+PSXAk/eOMKTs7UsdruRjWsMT2Rjav0GdiNTb82sfXXjUc8PszYZIagzPV2aOvv4NMh2Lt1n8fPF9ZDtiO0jb0t89+rFG61z8Pj9ofvuunxS8FWCvyw4cMcdw8Pj58WqhI2kYq0MNKdRDzcwvLqGgoaoxtOQj0WZCRutg+blXwPDw8PD49fDLzQ8/Dw8PDweF+QUOu0/3NTI3k0HlckanttTI9+eEHn4eHh4fHLR2dOXw8PDw8PD4/3A4m6FsVcEzEbj+fGXbllYtzqnx4eHh4eHr98eKHn4eHh4eHxE0ATM9nkTJqpz2bYlZPMc+/2PDw8PDw8bgd4oefh4eHh4fG+4EScOmu6GXbt3Z5bTkVdOJ3us2MeHh4eHh6/bHih5+Hh4eHh8ZNAOu4mLRfIPjk3ls/Dw8PDw+OXCy/0PDw8PDw8PDw8PDw8thm80PPw8PDw8PDw8PDw8Nhm8ELPw8PDw8PDw8PDw8Njm8ELPQ8PQste3ew8PDw8PDw2IWLY6t4/bFinZmrdcG6/h4eHx88TXuh5eBDBLHrBn+3xROzh4eHhYdgq8La6Hw+bt0fijuff6Dw8PDx+vvBCz+NXHo5snbgL3OY+Dw8PD49fbbx/UXdLdESeh4eHxy8aXuh5eBgCIv8pCd3Dw8PDw+NDA899Hh7bGV7oeXgYRHB6HALnSc/Dw8PD48cjYIv3dLdt55BbxpbOw8Nju8ALvV9BuMlG3Bi09zMOzc7Tt/v5PhGMQmjxJmvad+AC31wcfnkMGISsLAi1w0bGYXPtje+toyg2tzw8PDw8bleo873xi21vOod37wkQcN27sfX8G88w/tjiAgSj8MJtx4Hhthw5kLwSnHHjFbcO+ReFrXwdvgVf3+iCTw8Pj9sdocj+R/3zus2hGb42yQVombiSI8mEnMDZoBtTfsG57tudz/08pqNbxU8AUYSR2sbvJiJoINohuDbDMRoJcS9FVYtHbeaxzpWh96M4f4bYCE5pZ95E+DsWIsm169xJguPvFk+qtRjXcKITd5duiUAPDw8Pj9sPTuS5LdeWvWnstzbeiX/sRPupa3jETnV8FJwXfAf+OPmobWMu/um3BJEgaaTfTUTJFzETdjrWcmeQB3kEdboWt22XzuE1cpJZts8+f/4QL5PoyH9txpcxa1ddfJU3PFbnZjMUM962VHfqEY4PlU+/uLh6eHh8MHiht43RkVD81pbb43hNgkbkImMORGxb+2XM7QQjId0YutaRn0BSMALUG7p3Q/sUmkgjHW9hz0gWO7pjiKNG3mihRoE3s1LDqalVVJFCIxTl2e6qXzRhuHxg6AxXsRjuiePAWDe6YhUKviraJLT1cgMXrq9jvhBBBQmLbxBXDw8PD4/bEeIsWXchEHqOzaynhu0R50mE8Tw7kcwlzqOgUSOkQ2Dog29dqe1NUad92uv26ZiIpYkU+W/3cBbjvQmkwnXubViIC2tVXJorYqkSIQeqATHCOEjeOT9N/G0RmT93MLoKf6AriX0jOQwk64i3y9J4qLVCuHhtCddWGyi1U6i3Yzxdae6k1uLqcsHDw+P2hRd62xhORImGAlJrUoQ1kIo10JOMoTsdRSoRQpwirNloolRtYb1UQ54Cp9yMUtgkrTWvaeQn4tTbv1sLPScGJZxaSEdbODSexW8+cRCHh0JIo8Q7rYmFfAPfeuUSvv3GPIqhHsq/RKdVU/4qtr+4W3Gr0FP694+m8JtPHsbd43FkscKDdSwX6njurav4zuvXMFfNoRLKMr6xILEeHh4eHrcdJPQ6mxtw/BfldyrcAnUNelJhZBIRxCKUWeSBSq2JfKmBtTK5sAF769aE3mbpKnnoZI5rOnVhqMt/0CTq0Ea0VcP+sSw+/9g+3Lc7jWyU/EehV6qH8NRrF/HdN65jtphEhczYoP/y85cj9Fy8w+TmiYEMvvjRO/Dg7gx6wsuIUuxVmyE8/xb5+tUruLoeR4mc3TRx6uLm6hdyHh4etzMi4f6J/62z7bHNILoIUclESFmpaBM7emO4/8AAPvPABD5+tB8fPZzFEwfTeOxAGg9OpnH/vizu2duNAztyyERraNXKaNabaJMFTYaJhERuHRO/FU44kbBIov3ZKD553058/sExHOotYke2jL50G6tra3ju1dO4llfXlRQFZNT5qXjews+fKywwyyEj6kS4gcnRLD56dBQ7cwXGuY7xnjCy8TauzcxhbrWCekf4di728PDw8LjNoAZJ65ZJuAbEJuK070O5CPmtF5+4e4T814cnj3STA3N47GAGD+/P4IG9GR7P4vA4xU6qSaVXQLNWI/+5zpjqzrhp+Tf5aus+CcpMrIXH79yBzz+wA3ePNLCT/DeYbaOQX8UrJy7i/EwZ5VaGXBLnFe7tYSDsXLy3hvPzhDhd3wy7WcGu4RwePNCPgwNNjDPOY7k2cskw5uYWMLdcQqUl/nPDGIJY/qJi6uHh8cHhhd42hgRMOtLG3qEkHr9jAJ+7fwSfv68fHz9MUTcO3DHYxP7+Fvb2h+mi2D8Uw5EdKRydyODASAIT/XHkEuSAWgW1aoOEJx9vbditdZNHY5Em9o2k8aXH9+PIYB097Tkk2iXkS3W8dGIKz5xYxHJrADWKJusiExCyXf8LRCewsIUbQquptts6Du7qx3C6hlQ7j3SoimQshNViGWemVlBqpXhGUle5iz08PDw8bi+YbXcGPhFuYUdfEg8e7Mev3zeI37i/D5+8I40Hd0Vxx2gYBwaBfX0wDpwcjOHwWAJ3TqRxcDSFXQNx9KboT6NG/quh0RTDubHlgf+ugdKJNIcWdg9l8bmH9uD+iQgGwwtkjAKqNfLf25fJf0u4XsqiEuqS/KQH8mfTj1+k0FOI6qqq0OuNBqrlAsVeF3YzL3LhdSRQRCYZRZFpvzpXxHIlinooxWsc/wUx9/DwuL3hhd42gZvB0hldfUbadXTH6rh/cgC//fhefPbefjy6O4LJrhJ6QsvItNZJQBXEQxQ4GoStThnhBpLtCrLRBsa6I9g7ksG+0QwGuuKoFfJYX12DBmC78Xv6Jj0pMLowPzTurzsRwsMHB/Hp+0dJcktIMxy9EbwwX8HXXr6Cd5aSWA/12ts8XeXe53WIsuOX85Mf7n8DQVjumDbc1aIb1/VFeUC/QtoOjqt1d/PaG8KybTmmhXFs1Rvoycaxb0cv0uEyabiCWLiNaiuEc9PLWCiARKeWWAnUjheE8+FW2HpE3wrdfSu/NtJBF+y3bUtb0FoqJ7hv64JraQ3g9rs0uvS7bZc3wZ+2t4ahuHV+dY44Z3HmTsVhyxXmLC8tT7fudb4LCtf54fZrS5vBcQfbGxztbNG5S+iCMCKMpjtr88wAQZo24XxxHaw2z5S/HWf7gkqaO18+69fm2XLuiH4E+z08PG538Km1B9ZZhmi7iUyogaN7evEbD+/EF+7vx5OTURzpq2AoWkAWZfJfndxXR0QODePCBLczkbq9/ds1lCb/dWOsP41mtYD19QIaNL0B/wU2a3M8IBCPtPHY0XF88u4h7MyuIx1apUlrYXq5jqfeuI43roWw2u6zYQttsq6Du975SQ8DP+2bB7Y42fUNm2bndtIt5z46fjknBH666zed7dOG/OKPcrmC/p4s9o11ozdRZ35UWCdg/SCexNXZdVxjGsptvdXrjFXnp+HdG7eA4yaN1Rd05lYb7n4HWxo1Lw4I9rm8cNsEN1yagnzguTpou5Tqzg9zjq+CvLXrbH9whh3pbMu5Yw7BMcZ58wTzw521ZSfdpi/uq7PF/Yq/27HJ30HpuFDcuS6dSpeda2lxcVADgjsW/Kazi26KMX8E947zh8c796vgznY+aNPtDTomB7/dp8f2gRd62wT2YBOqHMf44PYlW3hwfx/+zscm8eShHHbniugJryHRLpIEGzqT18TRDJPu+E2a48MfTI5CU0uDrC4oA9kodgxk0ZdNWNeT1fW8Tapi4/YCwpNv/IhS6E30pfBbjx/CnSNAV3uJdFZFoQa8emEZ33xtFjP1flTVKkgDLBPszPnWCjqdDNTG9qapDoybC1PxF+k5I79hPM046hqZNHel+3f7O7HdzK/gGu7QOMUENdzhPSMYzDJHWmWbiTMUjWF+tYpzU6usHmTQYH5ZrDr+OvKwn7eEYhIYWLtCxlfbus7+Xdy2xl/GOUiFvq1czIDL4G/kuh2Vc+lx1zqS5LX033zQQfNXVyne7re71hGIXW6/9eGO6FMhawIDy0vbL78J+dc5TwjyUz+DWN24bwssLoL57lznBDf7Ku+NIO486tKlX0Lw6Y7pl9sTnOeu33AWFsvQTtrsJtXJ0c4vbvFf+xwU9+Coh4fHbY+OfZOLtFrIRRq4d28vfuuJPfjUnTkc7i1hKLKKNC24mz8yAs0LXSeP1UMx4z+NxbNZSMw+NJCMtNCbiZD/MujvJpNVilij2Ks22h3+kz1xFsJCp7gc7orj0w/sxoN7E+TbRXJxkXwZwfErq/jB8UWcX02iRA5RbxZZMGeHNuMepEMxENxenmNdUMVxHU7o2NDgap1l+20rOMvtCc7oGMHgl0GhaLecuqimSYAHdw5gtDuCVJv8164imUji+kIel2bWsVqPWX3BCRf65LwktLHx411w9l0hM8a2vXl+hwGcdzwY1EN0jcWdByzO9tt9B7BlkdxRQ5Bil7KAMwTznN+dY1bOnfSLHyxEbYetAVvYuNbCd3HoxKRzrq5xITpoiykJdvA6O48fSqG4baO8Ny5SXAJf6HtwTafLsRqwdb72B7BzO9fbuW6T57gYufDdOapHdO4YHVFohIuj++Xi5LAZhl3ssW3ghd42gTMVITORPUngoYOD+J2PH8JDe2IYjC7TaK/QaJd5ZotCJYYKUlhtpDFTiGGumEC+maYkS1P4JdAKq6It4dYmUbUp+MIY6OtCNpvE4vIqRU+Rvmh6aA1Sd6ZDxjITbeOefUP4W0/sxwBJLo017m9iLt/A08em8drFMtba/SRJNwBdhKuW1yhq9EU+uRELgWHSb+2PtTUs3rlgtlAd3zirI/bc9aIJXaNh7q47ZpTXR/hb1G5Glmc6Q+9IQka1Y43tDd6+HT3YM5RAolWyFt9oLGqT07x9bgZr9RTqFMcyqB2zakZTBKXYbIXt53GXQ0JwhsJzM63pTWqcZKppraOhGuOovFAVRH4L+uyEFO606mkPvzVFjkS7/IgwDU6QWerolBc8prxT+pV3PE/7nY8dkEBUfXDxd392Bn+bP/KXe+Si9C8sfyyeFTp9a9+WFkpFjM6RTmdXxwm2z85R3ruS1r0jf1RWrqxr5tT8EGm5Mg+aBQJ/5Zy/+nNwKdusQClvlG755fxVXulb+UuYXy515ltAsluch4fH7YuOtepAT34bKYq8u/f24YuP78PjBzMYT60h116jDaia/ZQ1LLeiyFO0LFaimC9FsVZLkv8y5L84zYx6E8jakEd4djLcQH9PBj09ORSLJSyv5lFpiNncsgNmKWg7ZF/u2D2AX7t3FAf6asi0V82urVXaeP7ta3jx7Dpma12ohhIWU2dTxX+byxDJpis9OiqrpN+Oy2gb5YwvadeMB2kFzYYpDrJ7+lSsLGbkFX07W+rstLOazn/F2dl495aNVpC7xJOTEwPYPZhCJlxCgnWGSCSE5UIDZ6aWMV8MMRbBJGryJ/gM3HuAh1RSZvONBLRL/NfhqM63BLbqKJq8TTnsOJsXq0DsmuBPVpvp27DrLn0uFi5dxo+MrZx4wLlOvtlZ/LNN91tXmw8WljseQH5HAs42XmGeMmzla1CvsPN5PzgRFcTFIfDN/Xaxl6/Bb/PfylZlrPJWuQX+u3vCXa2ydm88A/+c0yd96fCq+Wfpb/A+YB7w3pef7j7YvMecf+7aTei3x3aCn3Vz28CZKc0odnA0gf/+s3fj1+7owkB72kRemA95kxaoUIvg0lwNp6cruDBXx9y6plGOIhKPozeXsq6ah8aT2DcYRU+kZK16Eh01irO5cgTfPTaD//up8zi7HMd6uA/VSBptko6IZ0dXFH/vE0fw339sDH3Ni6TNFTRbbbx5pYD/46/exktTCSyHx9AIx2g0Q+iKRzDSnUA8RAFKQaHqfrXexvJ6GZV6E8lEDL1dKXSnw0hrsstWA6VaAyulFs+potggLYRSJB29YXOk1hVrYTCXQA+v0fi6MI14ndfky1WslqpYKbdQpsitU0aIRmTeRF36lKgdzUXwt5/ch7//sRGMhK8j01qlMA3jxLUG/ve/fBM/vBTFcmTExLIZaj49zqjfyji6R0thmEAxleaEaCLWRG9GY0DC1lU2wXiLcOvNFmrMA0YXq4zraqmJWpsUr1Zn84OmWXmXZN4xnQkacBGETHqpxnzJF9FgnqdTyrsYcjwvGVMlgOlmPqyX6sy7CgpV5gsrHEqH8kHxd2tMKa4u5o54asz7NnrTCXSl5BfFMAV9OMIwW4xrDSiyIrNYqCPPbyfPgnWXXPrlZ0DurU42hRmI5L7ISF2GezMhOuZFIkz/NflBE816C6VKg3mgMgfKDeUD/VdrunzVv/nbCYn5IsGrGHSngL5MFJlkCEneHrwV0GDelqt1FIp1rBaaWG/wfutMsGM+MP+Ngp1nLgwPD4/bFqrQuuffWWBVjidHUvjtjx7Ap+7qwURq2URevE1DRTtebIZwebGCU9NFnJutYXadNoF2IESB15tN2Ri1A+NZ7BuOoj9RsbHaqiRrPN1aI4uXTy/hz75/Fi9faWChTf4LZaxyrVk1s+EqfvtjB/EPntyBQ7kV5FrLtE8NnJsr44++8Q6+dbKJGYySS1MgTdNGJdCfjVCYBgKHXNxoYYncphmw43Ha8GwC3ZkIMgnaS4qfOu3XWrGKxfUa1uuyX2naxKRxS7RdQS7eoN2LkP9iSJNfYxHa+WYVhYrsPu1omb/bcWf7aYHN0tNf5aB4qSvexm8/eRC/+9gQDnYtobs9z3oDcHq2iX/718fx9NkGFjGECsO1dfQCG2nc9t720piF56vRTkIpGW0ar/ekI4wnjKslpBrklHI9TK5qo1iWra5QVCudjDPLSE3P1phN296TCiEdrtDmN8z/Eq9ZyVdZh2ghk0qiJ5tEjvyqmcVVP6jVG+SqJjmyhjVWOeot9xZX3CzG0Z3UkbyMqrhEca0yriGboTzH8JJx+kc+jLLIWy36yfKq0M9V8t9aBagwb51sp5/0I7gvxVMbeSXwtwSXiVUSTg/972WaNBssqZvhN1Bv1FFheeeLNSwXm6zvsIaj8pbQtjufvksQm9+MUNvtkwjNJNroy8V4j6mepS7FLTSb9I91gNVig3nAvKB/VeuKy3yQfxKyqmAoch7bCl7obRO4B7yJIVZwv/jYbvz9X9uP3Wka6uYM95dpHGJYKofx4vEZfP/tJZyZAa6thVHgwy6BJaMkYTXaHafQS+HJe3bgicN9GIgsId0umBFWm9Dl5RD+7AcX8FfPX8VsexjFSB+vbyPB44dHU/h//Nb9+Pi+JnraM4i1CihStDx9fJEi6QQulUeQDw/QsISQpWE/umsAn330APpi9J++N2lkZhbW8MJrx2nwI7j3nqOYGOlGHwkhQ2EUpkEv0vDN00idn1rDS8cvY3qV5NdOIUYDvGe0Gw8eGcfkUBoDWYpeCigZ0zpF4xor91MLebx6+hreuryOAnIkj6zMLHOPxpI2WCKhh0bxE/eM4Z996SD2pRfQ1Vrg8QauroTwx9+9gD97YRHz4Z2o2iLqTui9F8R9bjkKGXjJhgaFeAN7BtO49/AoKxMZDGbaNMQ03RROopsW4yChJ5JbInlcmsvjrQvzuDhPsm5njNQT8SjuOzCKzzw4iS6sM58rJBzg8rVFHDt5Bl09Pbjj0B6MDiSNTJMke/X3F2mskOSuzK7hjdMzFPtF5JsZ1CK5DWOvO0nnxlgx6o7XMDmaxt2TQ9jZn0IfKyW5eMhII0Ry0tjLWo2CqdzE1FIJxy8s4OSVFSyWRUiKq8S0/HR5EXxrCY44yzLD/BjtS+Leg8M4MpFjXpCUEjzGSoDyvMmvQqWFudUqTl1ZwrEz87ieZyUAWZvMx63D6CBKjZEce+JNHB7vxn0HBxlnkqcqEhSm6oosoaeGgmUy8oVra3jt7DwuLTeRbzEPWPFx6b+x8iifPTw8bk9sfTrV/JOh2Pr1h3fh739iH+7oL6Gb9luNYZp0ZLUaxuvnF/CDt2fw5tUqrqxFsVaNoNGO0h8KrlgEA11pTI5l8PhdQ3jsSC8msiVkW+oNUyc/xbBQjODLP7yAv3xxBucK3eSzfmssC/H4eG8U//jzd+BL96QxGp5BulWiFQvj6WNT+I/fOY/X57qwEh5mLClWWnXcd3gXPnrXKIazYtYyObaNxZUiXnj1Hdq9Bg4dPIi9E4Poz6lhr23LADVqrPTThp+j/XrpxFVcXGiaPQyHIxgbSJvdOzCew1AuSo5lBZ+KstFqmNCbWSzj9VPXcOLyGpYqKVTCOdo9LZ8km6/GN8WsiccPD+L3Pr0Hj05UMIBZ5g3FXTWN//SNE/jLlxZxtTaIEq9t2Nujjo38MUJPR1Q+4ipxyd0HhjG5I4ORLtl8Cr0oayG03y3GoUrBVq62sUb+u8b6wImLczgzW8VSM0vOzpnQe/TuvXjkyAiGEwVK8KLF49rcCl5+7R2E42nccXgS4yM9rDtQDJITJKhqrAcUSuSqxRKOif9Yh1iuJUy0qn4kBpbdlwtRxGWjajRI467JEexhnaKf/JRVYye5WovLW1wbzP9yC/NrNZy8NI+3yYGzBdW4xCkaFuMaEcUpllf0XqFICsaZF4Ms27vJ5Yd399m8CP1pNdY7/quRANV4u8byFl+9yjhfIV+ttbKMr5u1XMJU/qpx0vwMVXFogvx3eAQ7h5PoS7XQy7pTgvnbaDYo9FpYYv3p8uw63jgzh3MzFRTon4bT6N1hwKce2wu+6+Y2gmYY2z+aw+9++ij29VaRay/amDw9wIvVBJ57Zxl/9swFvHSpjWulLCVClsY+hRpFi1rMyu0wlosNTC/lbUxaPE3CGOxhxZ6GUt31aNwScSqhcBRnL16z1kFV6FVB1niG/RQFn7xvDOOpdSQpDiVu1mgEXzy1iBfPrCMf6qdAohKlYdJborv39eG3njyAO0cbODDYwuRACIMkvWx4HR+5awIfv28cR8ejODDQxp7eOvb0tbB3IEyBlKQAyaCbRqxRXGYaC7j/QD++8MR+fOq+Idw9HuI1DezmNbt6mtjVBxrqOPaRwEf6EmjWy1hfXaUhpcRjutsmGCKMlgxxi8Y8isN7BjGcY562SyYw6+0IBUcNb55ZIK10mZFVS6BZbfvSxiaMLuy4xIPeXjUoZIBHDvXjtx7fjV+/pw8P7QrjjuEG9g0wjr0t7OwJMa4RpjGK/cMxHN6RJGlnKLBiNhHASr5MQR5jGUTwIAn9bz2xF0eH6zg01MTuflDkFNGfKOETD+zBE3cO4I6RNvbT7z19PN6rb2ByMIqDzLux3jjCzQrKhTyFcEsU4Vo3GdsUi/jQji589oFxfOGhMXz8jhzu3xnH4ZEQr2de9raZryH6F8Ge/gj2DcZwYCyNXUNJVi4a9HMV5WLF4modSJgPgdCTmNUbvJGMxpD24HOP7cKnHxjEw3tiODTcxqTFtY2dfSGmKUZRHDexaZMCZcOoV/IoFougZlO1gf67t7ZJkuPO3hA+fs8IfvPxXfjYHd24a6yNg4Nt7ON9s6cH2N0XtvhOjsZtnatR3gvhZhmF9XV7k6yqSDALnYSjFaw5Dw+P2xHO7rpnVG+Kxvvj+PWHduOBPQn0hpbMfmucUr6RIAct4q+eu4xnz5RwaT2F1WaO/Kcx12o0SqLSilpvkdnlIuaW84gn0xjo60GGgsm6k1PMJSgGW+S/KzPLmF2pue6etJvixgPjvfjY0RHs76sj016nNaEIaETx3NvTeOlcHgvNHhMqsjORdg33HRrDZ2hf790JHKQN3z8SxlC6gVwoj/v3D+AT9+/EfXuSOEiO2NtHPiOXUQ9gz3Ace2hvhygMWtVVtCtLODyRwW98ZB8+ff8w7mfaDw/zPF3T2zD+20u7f4B2dOdggmFXUCqs2Uygevtk3U8tC2n1aFfDrSr2j3fZrKO5sBvTH4rGscK6wdlr61gsRaxhTD1d1Cy2yX3vZSvVcNhEX7KJ+yf78MXH9uAzjOdD+xI4Sk5hUp3Np9vdC/6OYP9QFIfGUjg4kWOZJpGnzddi81WWUZSq5tG79uBT94/j/vGW8d8kzx9IVMl/NTx65w589O5RHJ2IWb7uZR7s7mkY/+0bIleNppgPcQqqKgrMhxLzoUl+V4O3UpBkdmjm1I/dS/57ZBy/dncvHtwdI5+yXjEYon/k656WKwvWRybpl/hvL/O3l0KtXBRHVchRvAPIgW4ug0BCqcdJHT2JJu7e043PP7wTn3toGI/uT+LoKOtQrLfI/53kqwnVBeT3iKvvDHVHEWoWUaL/miVV72BVd1EZJCjwRrta+Mgdg/jtx3fiU3f34R7Wgw5pZnX6t5vxlZ+7+qPYN5Jg3maYrwmWSwUV8rXuBXG1+G+zHB0HBkzo8eGFF3rbBKpAdyVCeOyOCXzmwTH0Yc6NkSM5FUg2b0+V8BffP4PXp1pYbQ/b4t+uO6Drse1e3esbFEBhrBar9gZo545RDHTTIGgGSoq9KCvVYRLd9PwaLszmUQp30Z8oMvEQ7tzVgyfu6Ed/bJXGrGytWEvFFp5+fRrvzLZRDPda9wt1i9AbrEkaXAmSfsxbq2kqVKBQqGNiII1DO3vRn6Toa+eRoljVWIF4x6VDFfRQL44N5DDIuO0aTJu4uX+yC8OJNeSwYkLTXVOxuKiLRy7etDdIw31ZlCtlzC6uktzVFdC9nXPmrGXdM/aRtHfTyKYZJ5GUBjDobdjrp2ew2tCbQAkjGUHJAppCbt8s9tw+19I2mA3hY/eM4Xc+tg+PTcYwnlxGL5YszTEaaRs/oLzluepHn2Beq0tPJkFxw+BPXVrEtZU6SyGNWJwikALwI4d6MRCaZXqXbJbQLhLpTqrJ/WNd6ImVeCbzACVrOVSrdsKuZt6RZEb60tgx1McwgXnmQ7GmERESem2bgOCjd43jdx7fi3vHeG5sGV1h+hUqMS+Yp6zeuHEVdesSlQyVkY03MNQTxfhQFytDwOLiMtZLTRPSzbDEkyoEIvwGxroi+CRF/G99ZDceO5DC7mzezQTL+NpMsGqaYJ5HWjUjsFy0jgGK5J1DGfR38YyKxskUUSOR6p5NRtu2QP8XHt2Dzz04jPvGWhiJLkNNGTFW9KKMo4S2jXHhvZMmwfemgXF6umMwa0J+aWnFWjubYb3hDkpSnzeVqYeHx20G67jGZ7uOh+8Yw6fuG8XObAHp9ir3NfXUW/fJv3npCp4/W8JcrRflUBca1itDlWUJHbEVuZDbmmxsrVBBuVzD8EAv7VraltrRWCfZ6GQ2h5nlAi7OrFNASiTGrJH16N4BPHKwG+NZDXnQW6a2NXQ+d3wWb11rkHfJf7TACi9Mm3R4Vz8e3JfGWJKcFVql/Svyu4adtM0Hx3swmmvS7q7xirxxmSrlGs+ttzY52vqJwRwGcjGM9UXxxN1j+MjhfuzMVdEdWmfadQ1tP6+T3U/x2my0hsHeOG1eNxr1CuaXVpGvadS1azBThd7yoFHGJPnvAMVAb1RDN+rkP+VLDKevrGB6Wb17UrST6g0T2MitdnLzt/yU9de8AY8eHsVvPbEXHz2Swd6uPPrCKyYkZZfDzNsQ80Rhyf5r9tNkpGGNrhGGfebKIi7OVVBsJ0jFYdwzOYJ7dyWxIz6PXHsJmVARmXDNut7uG82iP1WlnXdLRMSMr6qWfwnWA7KxKkbIVcq/OEXj4vIaChUNf2B6WDZZivnHju7GFz8ySYEXwY7kCnoja+QT8pPKgflvnEJBrPIQR6UiNfTnIpgY6WLZRDE/v0j+azA1FMTKX/KU6hZRpku9eJ68awe+9PgePHkkh8nuAgYjK/Q/b+Ulv6NhSXBdzXSovpNskVvF2bxvq0XGmXWvusRpgtWMNiZ6I/jsw7vwpUfH8dAuMM5r6GL9L830J+Sf4qv5BiBOraA30cCOgRQm6F+MYS0sLaNU1YAJ8rWJR5adFSM/XFHeUMIeHy54obctIDPdwKBm/Hp4P+7eEaJwmmcFv2hHFoshPPvmdTx9bBbLzQFUw93W0uTesvAMe6Bdm5MGZIs2NY10o17HUC8Np5YbYGVeoilM4kQkipVKG2+cnUW+TaFH49CViuGBg8N4cDKHXhpYdf0TZlaq+PrzFzBdTKMUylm4Ck5vALXe3mN3DLGSv0JjVDQjRBuJrkyUBth1tzDQ+NqbFmtBFDVroLIbOzban8LesRxFWRS5iERZ0d7whGSsFJYZLV3Dij7JRN0uenLq6pnClevL1o1B4xUCoatBcDGS9gSN4J27u5EN5e06ZYzGy719cRHXCzTBoc46gIpe509bAWyL/qmbYibaxNFd3fjNJ/bjgZ1hirM5Cth1Gt+mdVFdKrQxv9bCSimE9YpGDMbIq458i9Umjp2atvJbrmn9pTTiJCIJm0cP9qGbJJfUOBLmV5JiO0diVHcddbVVnmkcQo3k2GYaVa6KTzTUQDzaQm9XGr3dWRRLZVxbXEe1KUrW9cBepv/+vb0YTJRIJQVLj+KliQXWym2UmySECNmb8dS9E2J5iEhUdvJ3rVjEhesrNh23ZrQT1H1yJBfFx++eIInuwl2jTfRHFq1CJuGoPGwxnrwLzLUibtICjcGQAMzFKJhZCYonYxTpBSysamwlRTPF2ucfncTnHhjGAZJmX3veKlqK1XoFmFtvYqnURqnB8qKfkUjEuk5JSA/2xNHXlUKxUMbcYh4V5oEaQNQK68rUw8PjdoU4S280NLZIPR/U4PfgJAUKK87WG4NH86wQv3iS/Pf2Eq7ksyiR/2phdVXX8y0r4SSO7JjjwYi94SmXqzZufRcr72ocS7JSr7F04XjCxk+fu7aKWXKrZmFO0/beMzmMB/blMJRU5bpkJLCwWsHzJ2Zwao7xQA/5TxVzdbWrU+gN4N69OQwmJQzViEYZGGmTS6NIRJ1Nlfx0IlSCVMIqbMJJYihFLhvqTpCfu7F3OIn+OAWHcTTTYHwpOxblb3VMFVtRPJAnujJJxONxTM0s4Ppqk1JC/KfzmRPiQNpGLbFwx0S3vSFTY54EoNaQPXlpCRfmaxRcaWvEU3xuDeWtLGiYMW9SuHbjCxROj+5PYCS2gEx7xTi83gxbY/CsbDR5RdxSbTGdUQqkMCUa7fHxczP44dvTmFoPU6CnzVd1p7xrZxpDMfUeIv8xbRpLlxH/qQcSfysH6+RXLWVh4/jDjCvzRuHGKai7eb8MDnShxnrO7NI6uVZ3Qdz8H+lN4OjuHkx0kXcomMRPbo6Dto0XL9SZqjDjYhylMnGT5Og+GOwhT5crmF5Ys67BevupuITJf5lIFR+5cwS//dF9uJ91gaHYojVMS9DpvmhyS+P8rH6hOIuHWpp0psJ6RAMD3UmkUglcX8pjYU3dOyMY6EnhMw/vxhceHsOdQ1UMhsR/6lEFFFkNW2TezhXDWKtFyalJ1i1UJrrXyKesMw70ZlCuN7GwUrQGX6sP2T3nSjF4yjwffnjhhd42gZYBGKdx+uyj+7ErV7BJRNSSJQFzbaWJ77x8Cadn+eCH+t2skR3RpHd4Ijon89x7FxkunoBmi4YpEcHRfYPojdNcGnHWaODDNt7h1VMzWKqm7Y2Yll/4yNFxHN0Rc+PGaEga1GkXrufxjZemsNTspkhxa9Bp3JqEnro6PHbHCLokDBlXdX9RXBRnzQp6jeLnjbPzOHklj9kCY5UdRjiR4dHObFTW6gcwaKaf8WIKVsokhktrePP8CqZX6FeiH/FML8MkfVPk2AQjFG1hGuiZpYKtjxd0v5EwszxpNTDSFcZDR0bRHXEtgowYRUMbZ6bzJLomjbeITiJS+ehIbSvMNJJURAAaY/jIkWE8edcQDbvWMFy1isn8egPPvnUN33xlBj94J48Xz+Xx6oV1vDNdJAFTTLFCslLP4LuvXcLbUzUUQnojmrQ3Zgcnumxm1Sz09rTC0F0c2hThIoorizU8d3waL55awvGrJczmme+pAcSSWZ4mUtI4Aw1ajyGdTmJuJc/8KLF0kyRHpqtJEUQCGB0bJLk1cOLKCp556zqeP7mIV86s4a3LRVxeaqMW60Gmq9+EpcpP6U3G6TvL+DyF9AJFrMYTiMRysRYePjCEv/XkfhwdbqA3tECSVst3iylI4Mpym/7PM87LePPyGq6vMReTfYils8xllguTGIoxfpGsjVm8eH0duWwWT9y7G599cBR7u4roai2xYlKnEI3hxLUKvvHKFL731iJeOJPHW1cKmC+FkewaJFmmN1o5s+kootE4Zij05tcqRnTBBDUeHh63L0yY0KlRcNdwDh+9Z9y6gOfay6oyo9UOY3atjh+8MYU3Ltew0lL3SVWiXUXW7D03nPV0TiwoodSiDdT4Xomese4orZjebjUYUhjFehinp1ZwZYlcwCPZZAz3H96Be3albcy5GkXFrlNzebzwzhzOL1E40p6rO7ug2YSP7B7Cvfu6KfTUi6FkNllNh/JfPV9maTvfvrSCty6sYXqVVjI5hHCq2+IoOysxE4+EkCb/2bhppinPyvzJK+s4dn4ZZ66XUY7Qfqb6eEy8K37VdW3EKPSuza/SjpatW6tr+BWXuZ4X6u1wdHcfRtKatZH8R2jStpOXl3F2toJ8U28yNTmKy7N3w+Wm6hUpxu2RO8fx5N3DtrZghmUj7tbkJS+RT7716jXy3zJePJvHS+fXcZx2+tJCHQXWJPLtHL7/xiW8cXEdyw2NzU5Tr7VxlELvjp059DOvExK3qseQ1zX+X91wp5bqePnUPF45vYy3LuXJhw1yST/zIsewOxOt8JpMKo5sVwZzCyuYWy5ZA6YmqykUC+jvSWPH6IDl3ekrS+TT63j2xDyeP7WK1y4VcWa2jmqkB8ks/Y1GXS8UCahYGOlMBpeuL2FmtYaqiWJyDI8d3d1LkTdpDb6DkWWkWxSp5M4mOe3aWggvnpzFS6dX8CbrMFcWqoixzhNRnCVSGd92mNyc7MEl8d+c1nVs4SN378IXH92JwwNV9EDDdUpMQ8zK6buvT+M7x+bxzOkCXr1YxEXmazw3hFS2m+FK9FZt3GGmK4vZhVXMr1RQbrm3erp/haCG814l7XH7wwu9bQA9fuqCMNGfxCfv34nR5Jp13VALU6MdoZGr46nXr2G6kEEp0k1DqNZBXekeZRGd1aL1yx2w39qdSUbxwOFRGvw6DUiBD32d5kZvoUChN4vZYsy6wPTn4rZQ7MEhkGQ1PqGBWoPCaGoVTx9bwHq4B5WwZuqS2QASeqM3mnFCL6QuC2otbZnf69UIXj23hq/88Dy+e2wOL5+j8Z8qY7maQK532N5aKW2O7ETLJCGm88IcK/YvX8XXXqYgeYfG8nLBBi9HSI4DPV0UbLqGBp8JlpicWSnhTQrJYkgDy0XALg/kpxbMfezOHeiNlRBrlbmnaa1j52dKODVdMtGqa9x0xp08uwmaYVKteMqbR+4Yxd27s6SuJetOobWY3jq/hL/47hkKvAKOz0XwzkIIp+eaOD1TtTDO8vskRd8xkv18ldUMCeVwDIloCIfGu/DwIQo9zShHYy3xrErEciWEl88s4svPXMC335jBSxdKOHaljDPXylgqRZDI9aIrm0Y81KDQaUAzfiUScayX6zh/dQGFBn2jmCzVaqg0myi3NcbkMr718mU8e5KkeZlxut7AyWt1nKaQWsi3kc71WPcmm76ZIitCP1WOVxdLuDhTMCGtHBrvS+DTD+7G4wez9lYzpfuE+bNWDeO182v46xcYzuvzeOEc03ylRP9LmC+GKfAl1rt5Xginrqzh2eMzdr5aVid3D+NzH5nE0dEGupm3ahkt1ejfhVX8xTO8f95ewRvTbbwzHzJivsD4aObZ/v5B9GRizIMqopEm4syDlUKT4nEVRYrErfeDh4fH7QcTasZb6h7fMKH3EG2ixmZrxmebQIV2aGqxjOdpM07TBmj4gHu21XBE7qDdDJ7ywDmhx/0UA+loC4d39mH3YAKpkCZMEf+FyFHA8YtLuLDQoMVJoSuVwAMHR3DXeBw9YXKverSQG85fW8GLp5dwNZ8iZ+RooyXl1OjYwJE9Q7h/bxeFXpF2S0MdNHBCMzfGcOJqHl9/8TK+8eosnj+9jrcvlzBXjLKS3mfLHKlLqoSeJZ/x1IQy11ZbePrN6/jqC5fwzPFFvHYxz/g1WTnoQVdXzt4SKl66LkIxsrhWxtnpPBZLrodKIHDVKKc3Wvfs7cd4Tp0DS0xxi0IvjHeuLOPU9RLWKA431pO9BawaEdQhYhJ6FMF7sxRmq6xH5G3/uWvr+OoPL+L7J1bw9nXQRlM8z4MCpYoz0wWcpVDV7KjHLizjej5i+SdBqolQnNCTf6o7qAFaaxtqVtUwhd0avvr8JQrIGbx8toBjl8s4ebWI2dU2eaQPXbksEhSFEnp605lm2WlW7iszFJNlSp8wubbG9Dbbdq8cO3Md3375In5wYoECr4zj15s4cb2Od8hPUwsVCr1u9PVkrbeQ9TZS75p0hiKfQpp8k6+7bq59mTB+47FD+PjhLuxIrFLw6j5p2RvM41NFfO3FKyzvGTx/pkzOL1Lw5nF1qYE2BWqqqxcVnneO/v2QYvDls6u4vtrAQG8On//IQTy4k5wW0ZjUIppt5iPz7ivPXcTXX5vHq1fbOMH6xdn5FvmvxHs3jL6BUeTSCealW3ZBjb0r+QouTK9gtWaDHKz8VIyCb/T8cOPWT6nHhw56ENXtMtLp8uja0oAm1Ual3kaJxKQ1gjSQ3C2+6d7iSepZq6g9yDKXEgyqqLtrNftVpa6OoVEaUnUa0RotYQrLMNLxKImSYbGyHouEkCJ56M2i84XXN1soMOAqr5dJtbC4/0Zwb9vtld/VVgQXNZ7iuXP41huLePV6Em8uduGFKyF89RWS3qlVrDa6bBIYa4U0PyNYKcK6N371hSm8dDmEkytdePVaHH/z+iK+8docRW6SQrPL8kBCT7NQqauP3iwqDYqzgXmhVuByVVPxaz5R94gojnEKrFwmbuJEsXX7f5QJVNx4nHkVj0asBS3SIhno7SKPJuNxZDIpRCIKXROisKwo21ZIDJdWKLBOreF7FMlX1ikNQ0qzGz8mf+3RNTYNHuE2hXWIhjqPrz5zBk+9tYRTyzlcLg3gYr4Hb1wL46+Zf197eRaX1yj4Qz0MzwnmnmTDBmiP9YQYultrcZ1l9joJ9k+/dwr/7flpvHipiSuFbszXurFcz2CpGjcR/eKJa3j2jQusLLC8O11UJMA1VfT4gMivznSTNiJt7BjK4uBOdYddQ6JZsFbtBvP64lwJf/0chemxZZxYZNpLvbhY7MabM1F87bUF/MVz1/Ctk2X86Q9n8AffPIsvP3edRMaciOewa3wQ+8ZS9HMV0RZvAmJ2tYRnXj9nraNzhShK7YxGaSLfTOHyYoPxvYo3KIaL7SzqYZIdhelgNoxJiueBXJjxqlglz8PD4/aFWUKaYdlmWVpNeU8Ksq6Lm6BNrZCDajXjIDntM8u8ReQFsCt5vf6sZwm5s9KANZhKSGi/Gu8UlpzEmS0ZoAYz1o1jG/zr/CpWaijTDy0J496YbXKHoHgYX3Y4UBx7bbmM7712GV97ZQYvXgnjbfLfy9MRfPXlGTxzcoWCL2X8p3dSgthkvRzCC29fo228iB+eq/GaLN5ayOK7xwv48otTODHbRMHeLMUs/hIlYwMZW95AjZ/2Rsw8Y7rpStU6qhQ6bpkcxZNsQRueSoT5rXNdHeNWUP1CRza5SvUS5ZWucddpbzwaRUZig9wozm20KDhbcXJPCtP5OF65UMD33lzA2UXua6u7rYYguPJzUCjySzztyujqfAHfeOEcvkPePD6fwoV8Hy4Weo1XvvXmCv4buUT+Of5L2t2QJUcdnujFRL/qAzVmgbqzxigy8/jL75/Gnz1zEc+dr+LCehaztR4sNrJYYhxnC2G8fnYOPzx2EdfXmF8UvprzgKXIulALo30pdMVb5FQ3bGRiMMtwKOxt2Y6CiUI1fE8vVVjfOWvl/eZcCucK/Thf7MeJ5Sy+fmwFf06+07IWf/7SPP79t87iT79/CW9O1Sn80ti7cxyTIzl0xzQWU92F2+TiJr770iX88K0ZTK9HmXdZ1ivSKDeTWCiE8Pybl1lXuoqZguY6zzC+ERtesn+iB0NdgOYH0JPiytc5V6IeH1borvTYBjBhZmThHlD3kMoEdoxiYBvt2862o3qIJezcY8yrjMz07XwwQ0pikPE2n0NRM4661gi1I+wk9BJkWTPmJD4RV5PfpWqNZk6hkUo6gtLRK6+1+DpD7faEUKy1cXpqFW9eWcdcowcroUGbwnodPZheC+GtSytYpMjQ1MWBeKxRkE4vV/HSqUVcyndhOTKKtfAgCpEBLNS78Q5FwfkFkpcmoOE1CkvEnI5LsJJoadgVF+kmxUixqZPkKjUN0FbqGGvGPU5mzyS1BuCG/LPw3xs6Hka9RuG0XkZdMzuquycDSpA0D+zswu988gD+0Wf24e9/dBBfvDeDXzuQwN2jEQymlGOwLogSKY1Qmn5RpJq4IxQp+m+/uK2SXGeNRF1rTkxXsdTuR4H5pvEolUgW+VCOYjeKl8+u4K0rRduvsWhqDU5SiA1R4Ix0R0lvVYu13n0uF9u4MlNmGaaQS/dgYngAh3cP4Z59fXjgQBddjuIoA62JVK9VOvnHyDA/NQawi5UICWqRht4Mj/bnbOYwEZK1eDOk1ULDuue+fr5gInI91GdvWDUWo0ASulaK4ofvLOFPvncBf/nCAn54MUTx2stjfYinujHS3w3yqbWIS1DalNd1hh+P4dDeYdx3cAAPM66PHkibe2iyB3uHkgg3iqhWq1Z5k8ROxjReT9Or6/5uWB78qJL18PD45aNjBjtbdLTN+mm7yE1qopT9oZnv7A/+BJ3LPxN8wVXuSPCpMzT5RzjsujQa7+lb3EWjq/4fenMXjWjNurBxg+NVJz5qjYZNpiUxpj1aqyw4tuFos2y6S/6wXjBXFvHmxTVcq+SwGh7GeoT8FyH/FaP2FmmuoPHSmgyMtou2Vkw+u1rB6+cWcHoxigUMk/+0lNEQllvdOD5dwLnZEvINdcnTUhCML+Pfm0nauqVq7AvqAvbdatuSRDazsXG22y+Bl4y7MewSbJYBloIbYflpThVMXs/tUrGKRq3BtDIXmVa90Zyg0Pzso/vwP3z2EP7hx0fwWw+k8OkjMTwwEcVYRssMsN5A/quTCzTOTXJUDbESJuZUR2EgylP9SZCfOL/AOkIRM9VurDHf8tFulMh/xXAX5mppvHBmGa+cy2Ox4saOq67C2gRGNUkNXZZcZtKWPK21ZqcWilgtNhGLpzE82IcDuwZx775+PHSgh/zXjaN7u5FLMF3NKq9iLBgflYkm+MokI0iR7q3nEYXeaL+bOToZLjH96iXUQCMcxVsXZ/HGhRXMlNJWzylGUihHkygz3ivNLF45n8efPn0Bf/oMBd87DZxf68N6qw+RWBa7x0YwmIshRXGmclSdQZPoqWx27RjA3QdG8MB+8t/+BB6bTOCRfVkcGs0gXMuT/2osY9VHwtZAMdKTxKDWdQzLH5Wv3Z10Hh926L7w+JBDj2KLxrlFI1pvio5kCGliaczV0zoV1XIGJCsaINf66QyxdVvRbxo7IzB+O5nnIDGUS7rFyl1XSYkiGlaeV9fCpjTcqsZrbEBEXSF4N5nQC6l7ZGdB7TqNII8ZYSg8+W7G2oUiAt40KCFUKa5mF9dttrIKjbvGKqiVU33GS7Rf8ysl60KpMWBtxkWo81sLqE/Nlyjm0jZGrdZmjHmNxltpLICmZtacUyYpadhEQI6YXUzoncFiwvhpkVitu2Yh8JiIXv3kdY1JP/4byet8+3w3rGLAuBVLFVyaXsTCOvMtqjdzCR4l0VKgPLC/B7/9kR34vU/swD/75Bj+xa+P4f/5+XH8yy/swt95tBf7c6vobi0hbbNxOUH6LjB+Std6uYbLc+tYqsQplLLWKunkvES2RlfGMLdex9lrqyg0VaLKD15OotSitTlr3ZUU1uBvLQBcweHRBH73E4fwv3zpCH7/C3vx+78xgX/x2XH8L58Zw//8mR34Hz8zgc89MIChVBmxZgnhlouj0h6nmI2R+CSlkgkN+s7aeEp1NdV9ovt0bqWME+dmsFpRlxm39p51h2WadN8oNouFFk5fK+KKWidDPRSp6jYbRopE2peN2wxtVlmxSlTDJmz59ccO4Pc+fxj/42f34J9/dgfzdRS//+kR/P7nxvA//foEnjiYQk9k3cbSRFq8t5VeVmK0wCzvuk7OvFfJenh4/LJhT6cq+rZNScdHVqJKb4dk491e2rYEK8JxNeDIGqrZsWPX9dmxp86PwDkykA3TDMyJmCy9LKw7onPEDRof5RiT9sr4ITjP2Q6dq14tPI0IqlouvAD2q7NL3FhnIq7Nrti6bJrISr04ZOv0RrBOt1SoIF9tWAOV+cn46/KltQLmyHFrDXXx1yLqjjdlP/PlBlYL6orvuEDnK9nJeAxxpk2iTb7oL+Cslt7miWNtjyLHVDJBMVYtohR6zhf6IzttWzdDV7o80/I907PLNnlWTW8VkVQhoSvWxD27svjSQ8P4R08Ok/+G8b/QTv/LL+zE//qlvfgHT47g7uEKBsIa7lAg/2lmToW2tZYShB5CoVzHlZlVLBVDzLsUqm2tEehKRHkh/tOkXGemVrBYbKOmGZZJNDojl4yhhySoHj7qlaS3cMlWGXv7o/jNx/fhn3/pKP7XLx7Ev/yNPfiXn5/AvySP/D558J99bg++9OgodvVoaIsaMCXqGDv6EZUWZQXHhC3zrL8rhW4mXbOmagiM6i911lPOT68yPhRoIcWZzGPiVaXB+5nx18R3b19ew6XlGIXgAM/rYeziiDGA4b4ceYtlQv7SOsA2KVEmRv6bxD/67B34p5/ZR66ewO+Tr3//MyPk7h34nz+7G5+/rw/jmTJLQpPg1REjB/awrqe1ApMUjRKqyluXz1Zr8/gQI7A+Hh9qOIOshUbXSyQgVlWbNBh6PDXQt4tKTdPpa2r8cEvGUkccUegvIuFDq2IPs6wLj0v0aSD6WH8KvUlW2FuanljSQG/qQiSPOtaouGQSJSc1s5e6hOjdnYjUyFStjc1gHIEzFrRf+uQ1HaLagDPY0gmVit7MyD+JSJ7dcTLYaiFtaiVtM/gO2tRiqOUq9/NEXmoBmRCkazaaJBsKTjvbDrp/i9jmt4uDo2nykDl3jZ1uREc+J3QgOHJr6HyjSMajzLDPTGkw9zVcWo1jJdRrrXUa4xClOu5KhjDeHcGRkSge2BnFJw4l8DsP5vBPfm2YImUCn78rhV0ZTZm9RtrWmzCFrRD03YkHv5T+PNWwlh0wWa50WTw75/N3jYlaK5H0WaFw3XJYLtyv7jMxsrjGb6jrxq7+GD7/8Dj+8Wcn8Q+f7MdvP5jCZ+5o42OTDTy+r43H9sbw6N44HtmTwJ1jIfTEKURbFE1WSu7+kr8a+K44aLC6xkLESX6uC4/aP0MoVhpYWSsxLiI4Fx8HkYxLm6oVbp5VjR1gCPIy1GClo2lr/mkQvMJQebdDmlUujAMTXbhvTxce3JPGw7uTeHR3HI/uiTG+MdxPNzmksSNV+qpGCYYdTthMp3EK+agJPxdHDw+P2x2yJUC+SBFUbrHy3JlcxPiFgiKXxFB/BtmEOjtqYhFyAblq0zlLY87Mj6xQmxVyLUOTQW8uRqujcdASRJJFERRqTXMNdwFtnYQQLRrtks7YsB20t85fnheYti1wu5zVkx8ShsVyzXoluCEVOqbUybax4k/+k8gMuDNCISAbK36TSDQJphONi+n4Lb6skwM1uZpsp+yu4qTGS5uh035ZDOzTfN4gP7ffAudvHQsoUPs37bWD+8W9lhc6SWIGOHN1AT98+xrOzFG4tPrJfz1o0ubq7WAuVsdIroWDwxHcNxHFR/dH8aUHsviHHx/AP6WY+uJ9ORzoLmlqFtrmmoXqIqDQgxiErZE4T27TEAaVvRqgdUyf+lZ+ttoUvuRILURe5xFN3qI3svGoRC/rMawIqbfJSDaET907ht/79CT+h0+M4e893IUv3hnFpw608cSeFh7bBTyyO4KH9sRxdDyG/qTm9tQYdRcfOQl/xUR/ymctyG8zYotzWApq6KxRfOuNYbmuRs1OfCyveSWTqFLkKTxG/mN9QQJe4lR3vIRkOhm1xlQngIU2sukIDox347693YxfkvEU90XNPUz34F5y9mgUg0kt1aFJg1RrcxOSaUbvaNhi4rwzBCny+LDCWQuPDz8o1oqVJqbnC6gFb0ZYvDE+n3rrcXjPALpZGddgXbVs2iVmhvQAq4Ktt2addksaDb3h6M0Ah3d1ozvJSjUr/yIw9d8v0qBOza7aVMiaYlmmi1aVTibDkZJzRGAf+G17gt+2IadbMNjuXClD1+rsNwOmWLpzjLy1i+G5fQ4ShuImg8XDvcuy6/nfoT2zoc4/Ojtv83ewveFR4D39CN4eBqcZOfJ6VRI2Y3EznJHXKnlTqw187aXz+C/fP4sfXqjhQrEHK5FhFCJ9KGsymLDWV6JqISRpsuES9ve18fkHRvB3n5zAI5Ma5O+mYb4RnfCV/9xSy7Jg8ROC/fatLREQKweRQEQH+ehaptUi2J+N4sl7d+JvPzlJ0ZnEnswiejCHpAnNKsJimEgS7Yiml06RHJMMN8bvKP1zb3idvx3zwqioTPXWWbGyuLjo8BqKQcZFb39dWbuScHeRO9+Vma5z326nionH3SWdnfSPJ1kFJkLhFs0yM3PUcV0Ix7oQomtyX40iu8btaqSbFY5+FKMsB7pyuIc5r4Hzrnuvh4fH7Yutz6is4MJKAdfJf8Wamm86M+fSPndnEziwawBjvTHu1aQnWi5AFW13neyefdN2BNZcM2D2ZyM4uLMXo71acqZCvyT0VBlP4LqWd1mrWoNqcI351g6Y5mY4+/RucD8vN1vHTfGM2TXzU42d+nTXKuxAyJnTOWYUzYPAq46dVBzE84xzx06aTVUYPG48b+dthePcgCuCONiXbbmYyG3s3IJgj4lefluucrsVjmBmvYnvvHYZf/aDC3j6nRLOrmuIheyuGj0zaERpd0PkD+ZfrFm25Yd2Zsr4xB1d5L+deOJgDsNJLfFUZgS2ipAOGLjGuovbFH3FpZMMwsXY9vJfnCNn+zt5Ezi1NKtnx+NHd+Dvfnw/PndPDge7V9GPWVvrV+sZqheQuLqt2cvJf/YNDasQb2zmn7goiIT8VrkKrhw6x5hRmryMe+wkdzp36qc2+al6jOut0jmv4+yP1+hPCLS57hFNzNbW8kfRNB0rcuTqNrdbzGvN8NkgDzbIjbVYH0rxIZQToyhFB9AgJ6ocAij0IESPDy86NTGPDzv0cOdLDZy+vIBSS1Mfy/io/30TPcmQ9dW+e3IA2ZC6QEi0uZZMGXxVbNW1wUhEwoUiT4OJD+zqw137eU20hGhIU/i78QCL61WcvHAdJU1FbF0rSX60MtZ9lMcDaLpjjV2QfTNjwUObZmmr8dA1Nztn7MwsGnkSFLPWLVWHheBb0HbHQ4kVnbkRMD+cUAvcVqMpGO11tgUnPow0uF9O3S9a6q7TUIstzzCL7K7RGbeC26tuI1HkWwmcnW/g66/N4g+/M4U/+PY1/OcfzOEvXlzEt08W8dLlps06NlPRnJw5E9CaJbQ3VsXhHXE8fLAHoxmtaVQxX7fGX5+KqZZK6MsmkQxrji+V5iYs/XTqwqR1flxXXitx08WNegvVGq+LRrFrtAcP3zmCg0MUfaElpJvrqNdqtm7U11+6hD99+iL++Kkr+M9PXcV//p5mCpvHtbWYdb3UO19nVnQvKQf4zYKv1eooFMuoNlp2r2m/uLab8R0b7uVVDcZH4xKVm8GfUsUzuV/v8tSlUovXRxjfECtYtXoYhbKbcU4lrnPbJNu5pTKeevEc/st3z+BPvnfJ4vlH35vCH35vGn/41HX8Ed3/xd//6XuM/3enmIZr+L/5+2svXWcZ1VHks1Nnmb1XuXp4eNweCJ5QPauFUh3nL85iZrGMWihFDpQtatHWtXBkzyCO7ulBX0KLjgczXMrauEbOwLFGbJYkTVF3eKIP9+zrx1CmAS2UbV3neXStUMPZS4tYXNGbQTXO0VaIm5yJVWQ2oMr+j6sqK+7OuV/Bua4hUnxpVpDfsqvBuXJO+DlLr3BkF3lkQ2wGbjP04Nv5644GQtDlJlNPPg9H1GgXMAj3my1nmDwxEBT6dDFxV2442ntF3YZ58E/1iwqSuLgCfOetRfynp8R/U/i/vj+L//LSIr7+9hqev1DDO3NRzJSzKLZzrGfoLWod2fA69g+H8dDBPox26Y2sq4c4OLZwcdHwgKite5jqdLV1ibLmXouH8kU9VrTunIakqIeSdefleZVawyagEcePD3bZLNlHRtsYiC5S4OUtPVfmi/jua1fxX39wGX/y/Wn88dPX8Mfkja88P4PLy0qjuqXqPmIuWKSUG51vcp78LzdCxleunqTlMZoY7E1a90vHbS418sNKmL+N/1hn0zISWtPQvTUM2zwC68WqvRUMJs1RChfXGnj61Yv4r0+dddzHeP6h3FPXbPuPnprGf3z6Kt1l/F9PyfE3y+S/PHsVb11vYL2ZdBytcuzExjLA40OLrXVBjw8x1CUjX23i1MV5nLy0gnJIs1RlaJQ1+LeFg2M5fPEjB3DfzhgGIOO1ikSr0qlg04DSabhzqlVDX7yG+/d340sfncS+fu6zBUMr1FlhGuEYzs9X8M7Uuk1u0pCkoA2osQJfUx8NGjGRpYybSE7T1jsT4cytg77db306OFKQoDLjYsRyI3TcPgNveKY7q0M3+pea7OzbPC7qdmTo3FbIM026sgkRrLpdqA+841oRnMZ/UAxVatSdNL7MCzu3424Ji4vOk5OQ1uygbbxxfpWiYpZiScJjBv/mO9fw//3aJfyrr56lCLyIV680UAj12YyQar3MRkk+fSkMZEl+rXpH6CgAF3sJKf31puO2MO1YtokUxZmWHdcsnyESgq5JhhvYNZjEXfv6kApr3SYtUq6uuGGsUzAtrZaRSqSxZ2wQe4dTyCJvLeCKw7XFIr76zFn80bcv4t8/NYt///Qc/v33Zhj/aXzt9UVMrydQbettmNLqIufi6EpN3ZFml9ZQoE6ViFV3FI2XGe7N4P5DOzHeG7aZyGxRfmV2i0Kb+ZxmHCeHkvjUvRO4dzyKocgSsu0VaO3AMsticb1i007b4rLMX5V/pdrA8XPX8FdPvU0Bd5oi7wr+HcXcv2W8/x3j/B++O02hd4Ui8CL+5KkL5v7vpy7arKSnF0MoRjSOUvfte5ash4fHbQI9pxI9qkCfmVokN63ZzMW1cNbeTqgyP96fwCfu3YFH9iUxGl9Fd1sLbZfJXqo4kwM1GzKdhih0hUq4Y0cSn7x3BEfHw+iNuOV/JBTUhe7kJXHsElarcf5OmdhrNlnxZiVeXQNN+DE+ilckpu75FI+qnJvrMIYjls1v2+u2jd86rrNnyw9n6x20Q3Dpl3O+b7VcwS8n4NRAqd9bu5LaZuenCwudLnw6U0Me3NvPJnlAXUfVoOvOZkwsPu5XAF0lFhcXiJvErSYOw1GslVlHubpGwTSLP6XY+ENy37/+9iz+929M41/9zUX8/75xET84W8VivYtCPWWsqUXG94ykMZhjfcIanBUnvV1VvFzoSr0mljm4awA7ukPWoK0F7q35mumOMoEqw139cdy1tx8Dab2DUxdFJ5LWinUsrVdRZ0VqfKQfO/pjyISLiLfKzJsWlsttfOvVKfyn714m55H/nprHHzw1hz8kr3zlpXlcXo2hGgqEnvLH5aOgIlcD+cJqyRbar7Y1OzWFNO83xenonkGMd4eRFv9p+APz2fKWfxHWxyb6Evjsw/vw6GSa9+4ycu1FnldEo1rF7PwyilXX2Kn7TuUR5j1/7socvvbMcfzpd97Bf/zeJeO9f/v0PP7N967jP1Cc/sfvXCLn0T19kWLwIsXeJfzpM1dw7FoLa60cc1jzCDB3mAzdMR4fbrjaqseHHjIuNT6PU6yQP/PaJVwvJG2BbVtglI9qX6yBRyje/rtPTOIL9/fivtE6JhLLJvq0yGZfaBljyYJVpr/08Bj+u4/txqN7whiILCLZWmcADZQpCK6sNvDi6UXMFJOUAFriQMacBEihV6o0SQZByyiNaySCbCbJb1FQZ5Cy/RnVWKxlSWQInfBzTm8VnaHUue4WVfqs37+d4yBy0ofO1LkBlF53a2/u07Z1l9jYx+NMj67WXzDzqMhY/enjcQrkRMyFbiwYYRrbyFOwSBgZUbrom3svyPDGmD898RaO7uqlgO7HSJZprBWxvFZieTVwYqqOl85X8IMTJMDXNQPXGlZrmrJEFQYRkuvfn4iGXc4yvJtTp325eAh37enDx44OYrK7jJ7WAnLNVQqjAvqjJdw1nsKvsfJyZIxpa66QUDTeL4xSPWRTPM+t1BCOptCTzqA7TqLXeAiSjkh6ea2M01cWcHmR91g+g6liBtd5D6zUSAjJHkQzXVYyyrsgl0W+VrnhdqXewtTcOq7Ml3gfUb6FtZZVy7rJKM6fum8HDvTX7V7MtFbo8ugn0d4xEsMXHtyBf/TJPfgnn9qNv/1oPx6YaGIwuU6iy+P6/Arm1kielKUaLyqR3t9NMXt4Ajt39KDBNCzly5jPtzGbh32vVykgs13Yf3ASYztGUao1sJBvYL4UQb6luGm9x07LrIeHx+0L2V/+2QLntClz+TqOXVrGxWWgQGtSD2n6+DDFQhP37erC7z6xG7/90BAeGm9jT3odA6FFir5F9IZWWYku4K6RMD533yD+u4/vwkcPJTBm652t0xJrApQI/W/itXOL9L/llryBm/25QSMpG1dv6W2NbJuz0MlkAomYxCZ5xXhC3OHYzTGPJWDD0mwc44Y5t5vYtKsBdNS9z5MwkE9mce3I5qfjKu2nbOAvcR730++tIs2F5JxinolH3SLs1vtH4wVhaSxX3SyiJuLM3Qj9NhZnmBI35hv5LxVt4A7y3wMH+rGzl5KkWcQqOWV6sYVT19p45WIDT50s4K9fuY4XzqxgtqjRlBLRbtxcNhmxOQNUDjahjsRQ0ChMKB+0ZMSdewfw0buHcXCgQf5YQk5c0lxHTyiPQ8MRfO6RCdy/J3nDova1dgxXF0rGgeVmFCn1iiGXar0+pUBpXy9XcG562dZNvJpP4CrrV1OFBGbJGaFUFyJx9aAK8jKAy0/9aRmh6YV1TC1VUWykmYIU48w8Jj/dyXz51H07cXQsgsHoCuNMzm7m0cU7eF9fG7/O9Pz9JyfwTz69C3//iQE8vg/YkS4g0iji4tXrFu9SS+NSEzY0sycVwX1HdlP0DrIMGygUS1guNsl9IM8BK9yOJtKY3LcPe3btVOmSI+tYLISRZ9zcm8nNhk67T24uaI8PFfyC6dsEMkYyMWptq1crGOjtxvhwHzSmK6rFsUlJCRrb4YEM9o71Ys9IF/aOZHF0bz/umRzAvZN9ePggRcLdoxQK/bhztI2+8LK1MmlGpwaN4XwpjGfenMG3X53DbKXL3ujZujw0CTkalzv3DODAcAwZdQ+lKdNMj5rl8fnjsyi0NPkIDbcMP+OaoFHeN5rGY3eMoju0ZkZXRnW93MbbZOmT1ys0c11Qhz0JLbVEqmV2pDuOjx4dxWiGNNAu2b5qK4xL8zUb7J2HxK36+4tgjOYoXKK4Z18PDu9I2hpumr1LYm16sYLn3r6O5WbGFnO3FjH+JaLAofEcPn73GPoiK4xbmaQrI9nES+/M49SslmrIWeuuEiNiVJpuhghW3SySJIy9gwl88fGD+LV7SELDYYx1RygAS2hRrCivkiSzVFjdRjJ4kCJl72gSaeaj5J6E1tRiDc+fnMX1fAyheMbe3D18qI/yRuMG1HJJeU1rnE7FWMZadiCHvlwcvekwyzmDx+8aw6fuH8MjB7LYkcoj21pj+HVrZZ1Zb+Hpt2fx+sUiGrE+7N05iqN7ulgu6/bWV3lfqIVwcSZv8VCZSMBp7Z0ju0lSD+/FneMxdEd4fqccK80ILswU8drZRSzXu+xtX7vVtMXjD+waYsVLLema3atOQR3BUD/jPNiDwa44+pKshA0l8NiRYXySAvCjd/Tg0EANe/ubmBzL8NycTQY0s5hHoxFCf08OE0NdzD/np6YB7+3NYHR4AH293E//US8gG63h8M4ePHnPTnz83gk8we/JsSzqpTXMLS4zXZqlTYPdrVpmRXqLYvXw8LhN4J7R4JPVfdqlarWMrmyadrDHZhOOk7/UDT5NuzDYnbSu6btHusmD3Ti8qw937xvCffv68ejBQeO/j9/Zh3smohhNFpHRBCC0KWq8zNdjeOn0PL53bA4XVlM8IiHp+Ckdb9MW9uHgaApd0TLP1oLpIVagazh+cQVTqyFUbe1X2iLul907snsQ9+7NYTBeMo4RV5UoFo+dXcCpmTrW2jlymVubVEwmnhnuTuDBgwNgUKyO55ku8gOPX5ov4PXzq7hGAaLG3WCZJCFO/r+HAuieXTn0xzTOTeO8Q1ivAC+TU85TbFXI5eoYqf1qXjxMNfbAZBd2ZIpItovWO6fYiOFVpv+tqSpWm1qDNMXznZ0MYNLGVAH38hr9id8m+mIUWZP49H2juHNHHLv4O6F8rWqmZk0K0kSCKmW4J4UHjuwg/2bRHZdFVj6GMbvWwvMnruPSsmbLTOGOyXEc3ZnDQFxvZrVcgURZCwmS90B/j3HEIPNKE8ntHEjioYND+PSDO/DEEZZ9lyZ20YL6FbP1y9UIvvfGFF48l8dSLYmdO8fIf70YSJTpd4Fpp7gNJ3D++gouz+Zt9m+lMBFukKfT+NRDe3DfnjTFI/MKqpPU6W8Ml+ZKeP3csjWIqutqtVZHlvHbN9bPeMHSFqMfmtl1sK8Xo4N91sOlh8d29Sfw0P4B5tc4nuT9eHigism+BiZHEhjnvSu/5lcp4Ao1prcXE8NdFOcUcExTjPHt7s5geHgQQ3oGkmFEmiXkWP/bM5zBI3eO4cn7d+ET9Puuvd1oFJextLSGakOzu2rOBYo81Z/UaLuh8LaWsseHDV7obRME1VK1tFXrDZTLFXRlkjbVfIwV3DBNjcgnyYd9MBPBRH8S+3ekcSeN/127s7hrV8be+BwaimAko3d1qrSXbaphdU1ZLscoNBbx1RencWoxQRGmddiSJmZEQOlYyITjnTS+2ZAmfNFsm2GslSiOTlJMVR0ByQDyEhN6k6NZCr0RCgp1EdTYMwk94C0S44lrFZpMiqkOkd4g9O4axVi66giI+zTL5EUKvWffumbT71dIBI7kXJujhN7dJvQSli6N9zKht0Sh99Z1LDUyjFuGZ0roAdlUGPcf6Kco6mYql3l+maFErTXu+8emcXk9acsXaOyd8lzGMDCHN4CeqVtsD5NwP4X0bzw8gbvHKI6GGjgyFsfh0Rju3p1iOF147GAOHznUhY8e6cP9e7MYTpWYvjzFm2Z3C+PNC6t4/p0FLNbSFHppHBjvMqEnwrLujgxO58YoGHszMexiWezf0Y07WB4P7O/GRw53gfYdw6q8kLw0Q5hawZeY3y+8M4dvvT6Hq3nmQ5gCsSeDQzu70Z+QpFOlhSScjKOrO2sLxg92hTE5HMejh3vx2Yd24MG9SQwl1pGiMNVYAuVhlULv/PUiXj+7ZEJP+auur41azcZRjPRlrSupzaUZqqNH9+RQDgd25BjnNB5knB871IOjO2Isa95toWWWHe+IJKsNzZCNRT0/W8BqNWTdbUaHeo3YY7yPYqzIZGNt3isJ7GM+HBpL4eh4HB85kMMnj/bi44dyuGdHCLu7q9jR3eT9EcLK6hoWVyh021tHNyolch4eHrcj3BMqay8L7N5vlas1FMl/yVQKg705ijA326bGZElMdPN530H+mxwh/9HO3b2nmyIog7snEjgyEsJ4toLuiGyk694uO7lOkfPKuSXy31Ucu9bGcrOblkZvUeydj61Dtm+8FwcnsuiNU7iowYu8UKo1KfSWcGWx2WkYdUJP/Hhk9xDu35PFEIWem+RDY8XaOHZuHu9cr2PdhJ7eFLlUbgq9QezpbyNFfpD9VKPmpTna2g2hpzdh7xZ6d+/KUhgVrfHQvaVq4cVTNws9N3ZNjb8P7c9hlHZd4kX712pR1gHmcfx6A3l17xM3d8IIEDQ4B065o+n679/Xh88+MIaHdoZw52CDXJTAHeTAozuTeHBfivyXxRPkKInsRyYz2JmrIhOSgGuRS+J489Iqnj25gOliwiYuO0qhd9cExVxM9RTVA1T+5PuwZhmPYucgOXJHBkfGySWTveSSXp4fJZeUkMUa0+TKp9yOWrl+49XrOLsURZFH1Uh4x+5eDGsIBOsyEk7RWAy5bArd5NbBrgj2DMbpbzc+wzQ9zrjvoL8Z1oq0Jp/NZcC6wWUKvdfo9/Viivmbtjeh6+QZjaMfHepCMqFaRc0a4nOJMHYMpLF/LIdDEynml+oDPbiP+bMzV0J/eMW6o2Yp2qg8cfrKPPmviJVKhPkTNv4b6Iqzfsd7j2lTY6d6tuyisDtAcXh0IomHyamqX3z0SC/u3xXFZHcRu7oqGMpFUCyUsLRWMrHnJthz9RonaYPy9PiwIqjReHzowQeT4kUP6HotQsO4jP/69Ck8faqA2UYf8jbuSP3Cac5brAiHSxhKljGWzGNHYhU7kmsYiWu5zlUkW2oprNsMjupPfn09jG+/Po2/+MEFnJgJo0AxFSxYbhOk0LqXanrDsoJSAyQA90ZE0z5rxrOJkR4aNHW5UJ96/W0xGlsUksSc0qG3Z1v33xJ2LrHlvKBrpl1vB9xvbbvJWHS7u98bF/Kn6Mi6RNoWhV5arWb9JEiNh3OGWy3Fa4Uq5pbLkibc44hUbrMz6RaYv3SsWPR0sQIxOUaSDtvMXUOxPA70N/ExCrvfeXgEv/voEH73kT78nUf68YkjaezKUjS1VygSKdhbcZyfK5OQZ0Bdw3x3Yx4doW5CXWUkeBqMjIYPdpNEJvtbeGh3GA/ubGAyt4LB8KLNZqaWRMV7lffJGxfX8M2Xp3FhIUI67+K9E6ZAW8ap6TVWNCj8IhTA9DAXb5N8evD3PrET/+NnxvHPPjOKf/RkP548EMJIgnFt5BmpFgW08kQISpm/mActkpME+dlrBXz12Qt4+WyZlaVBCuYeE/9RVgZ6YkVM9tbwEEnooYk29netYyi6hFRrFeFWxcp3cbWGN05exRkKvQrvzbV6DK+dX8LfvHgZx2falPG9VhHQG8c0RepoqmKi7jN3deE37qXg3Q3szy1jNDKHntY8+lih09vRO/eN2Rp/obbGbai6uNktyMPD4/aEs8H6FrfQTtMOVpoxnJku4svPnMO3jy3iUj5LVutFKZxEk3ZIIkvjvgYTZYyQ/8Zov3Ykl2jHltBra7apq6YWwG6jStu0UIni2ROz+EvarVcu17HY6Kbd0lqeWhKG9l8CrV6ztezWKy3bLzbRUIVcKmHrsyUiQUwdL2x+yz7K2VYHN1se9/vmvbrOpd3BMZG6cb6bkYLzdCRYp03fm3DbYsAYybA3F0eGNl+TuSkdir0m/ljJ10xYSLBaijrxNndTGoIuf5lEBPt3DWK0N2bjvnsieRMvD++N4ov3d+PvPjaAv0f3dx/tx2fvTOJATwFdoTWrg9TacVxdruPVM3OshwD1cJbhqGusYuryNMhXvXWl5Lb4ZqI17OxpUtDEyCchHOgtYDCybN1w9YZX9ZNiK4ZjF5fx9Rcv4J2ZOvLtLpZ3Cldn1nHxep7cQtEc7uLdogbEJo5QWP6tx3fiH//6HvzTT0/g9z4xhs8cSWJPtkC+LjIeahQPSmkzJ7QVCkdMQGn20W++cgHPn9WC+F1YI/9VWZfSusOZaBnjuRrum4jgQcb5YF8Rw/FF5ELu7aMmGivWYnj79HWcujCPfDmMcjOB45dX8VffP4U3rtSx3Bigf130L0rBV0d/ooo7RqOsV3Tjs3d34+P7Y7izr4Ad0QV0txeQ471+cEcX7jmww2aZjdti6R3uU8RVqBs/PD6s8EJv28AZXX2rP/hKlZX4y3n8yfcv4K9eWsCx6wnMNYZQCA8YSWmMlIySjJPe2LgFMkmUfKC1vk0tlMViJU3jUcVfPjeFP392Gm9cC1lLZjAuwVkACR63hs3CatHGP4noZH5lgLOJGPbtGEAyrBXQREIkGiMOmpM25R+NnN70qcVLrkYy1pnueneDOhf4KNklqZJCBRlridQgaInYphGXYkZDZf33+ZueGLlJajIsjdnQ+TLotqisTqDvwXgFTZ3cm41jYjC3EWd5W6k3sbhWwUqpzfhp6m7XhigD6Oj23bCxEXLRGMWHFm5nhUDhaopjfocjqgBEkGJWplk3SNJFWRHRgG6JmPlqCseY/19/5TpeuVDEaktdWUkKG1CMBY0BAJapsi/MVTBbSqIY7kEjomUPNBCduc081/TP6ntfYt5N5aP4wYklfOX5Kbw5DYq6XpcvPGdqoYjn3prG8Ws1zNW7baxnhXkXiUYw1J3AoXG1lKYw1sNyrpdx9foSLs4UUUQ3K1PdPFct0VriI8F8V+kpf3RvqQtoGMevrOPLz1/Bd4/ncXatG8vhEZQiajxIML8iVgbBdAZqrVZZLTdyeGe+jW++PotvvjaLq6t6d5e1e1GLzf7w+Cz+/AcX8Oy5Ki6X+rAWHkbF1mpSHkRsofsYPWb2mp+NcJwiOo2ZtRDevrCM01eWUaxrUWJ137Qh/O9Rqh4eHrcPOk+pmULZOEk+VuIbUZym2PvKDy/hL384gxcvR3C13IfV0ABtlCrXsv9uDLStYNbWeOU6r+Un95do7xZY0T8+08BXXrqGP3vmKl662MJ8rafTm0P86ZoHFbhmQJxfKWI530BNk0Nxv/gnQ/5TF/pUTIwhjlUUFU9xkvbELS4V2stKmNxEIWONqIwDA2C8ghCciLNZL63ZNEXbJy7L2LfsoBpY1ajmKupKV8eK8V+cIvuqMCrhnDlNVmPrsikEVR54nvKvOxOnnafQi7m6gRpgZTOnZpcxu1Kx9Llx+HYBHRFQUQcWPvfJhclx9VbEuormW0njbMVX4++0Uk8i2ib3tZEIM2V0Gg+vt5JL9TROzDbx9dev4cVz61ggH9rbSobt0ifnQlMDY6EKXJ4t4dp6FIV2jxOFrOdYXUDijjyoctMwjdlK0rpq/tVzl/HShYpN/iLO0vjKOabx2WNX8drFMq5X+7EeGmY+58gjUfTnktZz6RBF30S/FlhvG/9dW2mSQ7tQDKkRQGWooSqqJ7keTGp4VEk2wimcmangyz+8iG+8voSTixkstEaQD/dvNB4oT3VnaK3YBq+tsu6w2s7h3EoM33pjnkJxDhcXxeOsDzA/1upRvHRmAX/57EU8dbKE8+vdWMMgr+tieuMWb00ep94+enuo9R6VLxrXPse6wpvnV3GcwnGl1KKw1hhT3XGCy11Gx+NDDt91c9ug81DqW+KCD2udgm8xX8WV2TVcnc9jYa1Jw5BBNNlF60pDRANSb8e4j9+sEItwNEX+bIGV8cvr+P6bM/jGazN49lQB51cTyKOP57iJKraGZyYs1ERXMoKjkyPY0U3v22XSkVq4IiS/Ot48O4/1pvxX61UIyXgEO0f6cdfhScTjIq4Ej+WwUInjjfPLOEtjWGmrO2WswydMEQ31UF8O9925Dz0513VExLjeyuLUTBkvnbqOIq/RiAy7iFHUejndmQQO7xvH7vFhmwFN6dUSBhfnG3jx5DWsaLwB06U8S/HSO3Z241P3jmIksWbjIESWyxQTL55apOAqmVhubLQqipi42fkVwNGsKwctWFvIr2N+cckt6NpOohnvQSum9fMkPimsLf/VOTFjYyFPTOfx/bdm8e1Xr+Glc0Wb/KQc7qXh1uD+kI0hfOTgAE31KrQQvqoQM6sN/PDNa3h7imSc6Eck0492XISjAdYpppl+l6N48+Iavk3y/DZJ482pFpaavUZOquAozlqQd3Utj8XlNetKFEl124DzRiRl4TdJ0hUS9vVV5gkF1vNvz6AaGcDAxBFbo65Kv/LM0zPXKyzLRazW45ZGo2X+V5llC+tVTM2tMs4V5Cn+2syLULLX1vlpqPJCklSlZK2VwYWlFp47SYJ7+Sp+cHIFZ5ciJMZuE72qEOkeK1GIzy4XcHVhHXNrdZSbrEjEeSPyXpfgNZEfoZCN5FBopnFlCXjl3Cq++8Y1fOfYLN6arlFMqiKh/NIMnq565eHhcTtDdl4EoWfVWeDNBkHNpljDtYU8bU2BFfgq7VaCNqEH7QTtgvjPRFOU9kmCyzU2ykaeul7CD4/P4dvkvx+cWMXphShWWj123DVk6o2dC83+yU+SPwd29mP3YMK6/KlbnirZc2sVnL22hoUS91jlP0RBA0zuHMXBPSPIptxEGnp7tFLP4NilPE7P1JBvkCcoBC01TKNcf08GR/fvsvGHWre0QRup9T/PzjXw2vkVzOXJN+QSs7UMSUydjIVxaO8EJneNIpEQ31BYMqz5cgIvn17AhYU6K/0ab0dBwOsOTXTjY3cPY7K/joytnaqeJTE8/cZVvHC2iIWGhm248fadHNhwgm2T4105UJhSaBULeSwtL7MuUCYXJdCKdtHma11TNdJqIEEnXuSolWqc6anjmRPK/2k8984aLrH+sWbCJmldXO/aN4Q7d6XR35lURd1YVsttPP3aZRy7mKfg6kUoPYhQzIlZ9YRRI+tyLYZTUwU8dWwK3yS3vnq5gdlanzVQBna/1QphLc90ruRRkP6nHzHyiNbMc4Jab/pSWMi38PrZOXz3lYuop3YgM7iXvK56SZY83o1zTMMb55YwX1AOatyb6+mkmVmXWC+7Nr9OV8BalfkU70KY92WTHKXxgDU63WsF1mem18lVFGPffGWKfDWLd2ZDvBe7TbCqwVL+Nprk1LUS63lrmFkpMt4Mi9wf4X3eIv+pcVr3XpX+qx4wyzrG21eKzIdZfOu163jtAp+PSgolhmmNGDeWZsd5fFgRiux/VFbS40OPdz+M1loZatlkKqlIAwPZKHYPpLG7P4aR/iT6u2MUNmofVCshUKnWsbRawrXFEqYXKC6Wa5grhmjktSaRJjixd2XmcxCStRnS8MqU7ewN4fc+cxh/++FuDDRmbLKUGg3QKxeL+Fd/8TbeWKAsiQyRiGJIhNuY6I1bd8CesOsqKn/XK02cnFol+bRQartxcApNaZHgUj90jXcbSWoq7BL3NShWwbiW8RrFpN4+BW+91AqpeHYlIji8oxv7h+PIhtYRaWqhW+D6ivrQz9No9tEIZhh8iHkUxm8+vhu/98lxjEWmkW0vMYwQhWcT/8dX3sZ3zzSxHB43cnLQWyfFkH9G/A56qNxPja1Qa2XdZt4cyUUw1ptAfxfzPxdFd5riMqGB9m1Uaw2sl+o02EXMULRMLZYpiNr25qlMYrFZJeljb6qJ33xkFP/ii4cx0r6IdGuZeRBh5aRua8e9cbmGntEJ7BjuxnB3El0p5mGLfpO8ZqlYNcPYlcUqlkoafajWYNcnX92QgnzWBAS5aJ2iPYp9oxmM9ScwkIshk4iiWa9jNc/7ZKmEy7PrWKGQHxkaxs7xfpZj1e43EY/WHTpBRbVKYaVKlKsYdO4dZpDGjjB6tiCxBsyP9sUxxPLVNNma7bNYrWJxrcxyKuPqbAHXl+soUIzJrwYrOWa4+GH3B+Ou8RzxSB19qRDvrQTG++lfr9YWjNoYCHUtLVVrWKPInFvWfV7BNVb+litRkqreQKqjEgmy7eJpnnt4eNy+oO11RkBWJbC/7tu9rSND0ZZoTHh/Koyd5D3Zmh10Qz1x2jPyH+2Q3vrUai2bXfg6beT0UpWuhnna33xDQiFhAs/xnxMxLgzZHsqDdh3d0Rr+3q8dwu8+Pow96WVyxyrPCOOda2X8wddPkzuAeQyZ6IiSl/eNdOPwGO2qxuhR4ug9VbkZwjtX10wkrNNu6o1MW13f6YS+bAJHd/ZgZ3fbTZTGuOtdobjixFQe8yXFVWJSqVfsIrSzwAHy38HRJLrjFZuwg+YSeeqjY5eWcGkZ5AA3GVk8EsKXHtuLf/ixURzpWUZXa57CqoGplRb+9X87jm+erGMOo9Yg7JjiFjaSfit3rGTsTZZmjm6gi5w9kAtjrC+F4RzTnY2hm3ybTrjxh3XyX7Fcxcp6BbO0y1dYD5lbbzIfErT5rIO0lRchxrSGf/CZO/F3PzKEg+lZ5FpLFuA1CqI/+uqbeOl8Fek+8vfIALkljh7ygSZUyZdLWGT9Zpq8dGWuiLlCmEJK8wCocVFpcSWrby25kQ43yJ9R7B1inWnAjc1LJyXWWuTpMmaXCrg8s4rrzPuxHbuwY6gPafKPhGer1eL9U2JdZo1l4uJvjZJWyi5/1BCQIceqPrBzKMXvOAZZJ8hqjfNwC1XWx5bXS5hnPWVqoWwToa1RBKvRVmVsM56bX44vNV+B7sOeVBvjfbrPUxjpiVmeZ2xYQhP1OuNerDleZbynyIHzJdb9WMeT0A56Y3lsL3iht20QmI9NOFPPx5a75VQBdwPSGzaoN0uRoS4TZq55F9TrTeRLVRQqIVSsW6XexKh1RxVfGTj9OQQhOaEn/5voidXx6/eO4P/1O3dhR2QOGRngZsOmJP4P3zqDv3lzDQuRcRo9iSotEEqDHCoj0XIzjslvVbSrJFUZMyM57nOm133qPA3ujlOsyRir3Vbh69xSi3IxErQ0ujdtqrSH6SQk5as6/GkmTBlrGcpy271JlIhV99V9g3H8k8/fid+4K4ne9jXGIk/REsbzpwv4f//56ziVH8BaaIC0pTd6gt5aMqgbKhqWPO53JtOJQG5bq69SqO4TTSTpRToehpZN0NvKhibRoTIuaU1CxlmtgHK2/DnjKmhyl75ki0JvDP/iS4dM6GWaTuidnGngj75zHt85UbZulOpqKWGWiittLZQrFRSqTRt3qcqGJh5RFw5VXkQCiqx1NVWceb5mMtMMpZosRQ0CWQrmBP1sNtoUYTUUqbA1NbVNgc2rNNtYhOerOUCZoq5EVZKzWqtFcqqqBPlhFSb+K14qR42HTEabdl9SlxJtVBp1VkbqbjYw5gMplLnH/KC/yneVvfnHsBS6PFQxqLtRtFUnWWqmWXWf0ptaHmD+S0xrcdxaI8Q8U4u+8lhp4P3NMtB94fxUDLTl4eFx+0LWSgieVbNeHSeLExxX5V2WVLM7Nqzim0tHkIzTctAW63nX8jmFEsVGlbZSXGK2wb3xc7ZAfmlLf4LshbOXYi5V8J88Oop/8pkDuH9HDd2tBbNai6UI/vSpc/izF1ZwsaK3R1m7IsZw1fNFMxXLbioO6jZehetd42yds5aOr9SVk/xHgeCu0SRrOqYFB6K8xr0Vc5xMe27xo+1nNsjSuQlfambbFWvZ0RLPV1gajScLrYa2/4Ei6kv3ZrEjPot0a8X8e+HUAv7ga6fxyrW0NdZaN3tLRZDvW6CEGJw9NT6mYVYNQrwn/tPSBer2mIy7N46a1bPRIDfVahQ4aryNmn1Wz5l6WHZf9t35mWYO/YPPHMXf+cgwDqVnmM+L3BvCFIXeH/wNxejbdSzVuxGKxikieT7LWvkk4VSk39WmpthxvUw0DER5pHjKb0FrEitdWnvWDXaoIRWhKKMgTZBLJeI0J4Huk6p1ddSyFRHLP9WvVM9SmYkJNTWK6jMah755XzqnMnDvnd1gFC0PoTDiMd2Tbd6PrAuUxX8qX5ag4ive5lWOpdzdp3UCGSn+5pfVQ1SajlMTEfJ2Ut1jeQXj1bQ8bpFbNdxDKZMIVdx0j6uO4a732F7wXTe3DQIDchNUcTeRIJMg4x4y41Rg5Xm11MZioY2FAmyc03I5zP1OZKlbi3ub5gysM0rywf0KQtJe+1c4LRqtVgOTO/ox2qsBzOq+WefBMFbKLZy6PI98U10fXDc+xavZEZSu24z676ubgeuyIvNMb3UmnUJ0WyIoiQfrurlxDclA3Rh0jX06w23v0yQyGJbe2KglTP38K0yfEWMnnSK/RKSOA2NpfPbBCezMlpBqr5txXMw38PSbM3jh7DpWQ30yyS5u5r9Fq/NhGwa3i5/MMMt9bXOvjQ/jdo05U21FUaxFsEZhbeMXuF1qMi9MiG0lIV7b8VpfEkLquvnwoQFrNRaBa6KSBZblGxdWcWYeNitquU2Z2vF/rRJh2UrmqjKgNEvcKH8d4WjsWiBG9dvC4jGRmFr5ys2Y84v3yJrFs5N/nXhq/jBVNtRNxnUTcU5lq/zfvGNcqVgIJDMnLN211VbEunGuMgzNJqaxB+W2q/Sou4yNnetkhcv7zXia750gdET3iPzUYupaGsLyoMw8qMfNTxGc7h+7x5UPdrno0zkHt9fDw+N2RfCMOltw4+Pa2cedwSyUsiHqrllqRrBaEf+1aDdDmKeTIFuva65N9UBwb/Bs0hGzUc5Obgag7cAG6ZNWnoe08PrusT5MDKaRDrkZgLWe7HqphfPX14xr1Whl3MdrZDfVmKox57JzZdo5DW9wb/JcujROz4Kl03XOJps0oI1V10e94aEA6Nj0IEYWU/6WXHHhad5t2WXXw0KCUl0hlU6lTlZYsz7+2r1j2D9YZy6smmXX5DYvHJ/FS+fWMVfXhCUZ2lf6bgEIGxsO9pOx4H9wWodlzEk4aoFv2ftCPUzuc/ZZtr9AEVY1UePyQAJJ18gfpUufmgXz6OQQju7MYCCWt55D6ta6zvJ8neR3Zp7+tbpYjkmsN8Ul8p91HpatOFFpdxzoBLzLKytB818Nfi7WLr513gPi6kJd9wz5qSouVT1J9Q7FU/6oN4jjPvmtslRdQ9viIVeWQV4IQWokLNWQybqJ6mXMD+WFwlmvxVBqMb7QG0cXX+Wd88FJPQnkG8DfrtHSmjtNMGvsufFfNWxLhJRb4tTNeoCNB6Vv5p/S34mhx/aBu7c9tglkNjZdYMAELWpuRoV71FnTEYyMkgwSDR/NeoNGy71BomFqO4Oy6ZPzNdjSpxD4T8tixvv6chUvnZjCCivUFflFm5FOhjA53oO9Y1kkNXaPYlAtWapO18M07BqfZo7xCWsyDBlOF75MjuvYsRmWDKMRNo2UnAhOXfmc6duM2Y1dKZVuVf51jeSnjLJWV5KQlZzSGMMQDkz0Yqw3hLjWz+EZttDpYglvX1igSGU+UYTJbweXFz8ajDXjobXwrF2W5aB4yvDLaOutot58aTIZxcu6Bxm5yfgGAoSO15tzPvLzRiipwXl6cyXIf+VnTQOv6Wetk1fOsDuRp5Lc8I2/xRsuLO6X4275o2vsrZrdM3LuPnFxlD9Ki+4rhaFKh6t4SHA5/10JBPmlKwJhqb/N+1Llo3BcWPa2Tfcj/RdcdU3XMaJ2j6riwGsZac2653I58NPFXXnqKm16u6gWUZW73mTq+iBeTtwpLfrz8PD4kMEe2037EiCoZHesDq2EE1iqmGtIguNAVzGv0lbWTRQ5q7CJwF9BDaab/jvQb9q7udUyTl1dxnxR6+bprRy5JEzxN5LDrsEEshHN2ayBX+qOKdGnBbvVi4U2Osz4dBoeA0up8DZpTLHXp4u/7KuJRDrjv449d6nctMy6QvFwdjCw4a6iL07UufZmqVXF7uEsxvpCtlSOuhYiHMHCeh3nZwrWxb1OQSoRId83I+bCuMHZMTrZaNvmPtlos9OC9okbJCWdPZZTmTQplvRt9RBLBUMjTzjbbz7Zt5xDJ0w7TjZQ7xRuixccZ7FsGW+VsXGKcUHgW+Cju1q/3afzT/ENOCTgJBOgvE9AF2Ze6E/5ofPcG1mJVeWe0uQaCpR2Vy6bcZXPzn/dT2qEcOFojGUzzHvHvllGLFu9zVXNQXeMuiK7/AhA/ztlYeUfYsrtp0JT/xpdr3S7ITjWaMo81vttHWcU5EMnbsGd57GdsHmveHzIsWlANp3sCw1CiyaIPzcrx3qs9e1arORkaCSgZJQ2nJ3nsGmmnElw+9ynwpC4aNHv1Vobb19dwbnFBkohTU0cQyzSwlh/Ekf3DiIXVfdJzXIWXC3ScpV1iUtNISz/1ZXRreOyNcxOFdyCk0kzs+bOCYil40RgTmTod5PfgQFTPHW9Nukfv/U2TwuX7hzM4OEj4+iNaRxDyU7SAu7vXF3Hxbk6jXyOl7guGPJV32ZuN8K+EYEB3cSWtCitnd8mVCwPOvngTja47c0z1fYnJ2K2o/LKrLrzT/skWt05jB3TYNlocGWu+FreMd0at6Zrgjxx+Sjo2/m7SdYubhvebYB7RC727U7d8Mb2icgYXrBf402CzLHIybnPIKWWFp6sJUN03+o0TX4Q/HYXb81754KrBe1x3+6Y0qzU3ozNGARXu2di0wcPD4/bG3xW7UF2z6zZj44zU+Me8BsQ2JmtzhkpO7jFuaOC+5SfwTXax09eJuus2T5PXFqiMCqh0NIYuyT3NjHaE8PBHRkMpuvQ4uh6ryh77ryTrXF21uJg2PDZ9rm4BfZuc587Pzjmjjv7pQo+v7WvA8czW+JMOB/UdbWGod4E7tjTj+GsuiBq/F8d5VoLxy/N4cxsEasN9ybMhkPYtYLSfpMTbFvfW1wnTJfFjs2CuN7oXD7o7CAHBNn/CF3QP2TjGMMyP40H1Sws/mMdI+Ak+wzCcvkkHrH82rLfhenksflEf12Obeaac8Emj3fc5rGOeLM4ied47QY3at/W/e4a57fuBX139jBB6oa56bXCMS8Mip/bz3+St9vsxNu2FIYLyzVK6Mhmet22+dI5v+NxZ5/H9oJK22NbI3j43fbmgxxsu996zGVqnFnbana2Yuv1m9gwFDQo9WbIBvgeO7eMtaYWL++FZqHKZrtwcN+4demMk1REQ2pLlAB1IlT+BH8ulBtDcnvsb0vE3DlbrwhisxEruuDT/W1NmV3RbiKTDOPowZ3Yv3sYkUjTWkjLSOPKchuvnVvBYsW9/RQRuauEreH+CGw5rEXkN42si+PW7SDO70YQb2fArWtiKIpaJGkzaVXC6sajN1Y05EGG3uRTsMf2bjBI8LU1/CCOnZbbDRfENYDbtjQ4pr3BWZkGwfC3VTpuOsdcgOCCjjOiDX6bJzo3cAE64bitLZ/CjdsuKPnj4HwNzlC63e/NfR4eHh8ebD7LDu/9HLtnfdMJm1dv/m3dfyM2zzZnHok7o5iay+Pt80uYzceN/zTNfyKVwaHJCewcziAZrtj7Hr2ZcVc7cWGgP4E96/zsuE447wkd27TTzo4FNjvAu32VTdSZ6XgI996xF4f2DiIZlzgIWRfKqZU6Xj49j8vLLfKh3gZRiN0QDf7Qjls6HjZ38/5AVL3buTjKbWJr+vWp3HKj58TJWmJCyxloUjHFT+PhmG7zQldqU1e7Wk0g6QIX+Or+gnII4heEeyM2kkWnt7JOxgXnu6CDkjCnnRvn3Og2Qr8hf5w/ziedp0/FLfDR7ReMxm+A80P7g9pOAJc2d9174V3eeWwL+DF6v5L48Q/8Tw4JELfVbjbNdeeyaDTbWC01sVqJYLUWw9Ry1YSgupBsdv1zpizAzzpmsp3m6a0cEaYlHunL4N4ju9CbBkrFVawW67i61MTzJxfxw5PLmK9lUQ5r/TvXn/2XA2eq47EwhvpzGBvsQalUxArjqnEml5abePvyusVb4yyDri834ubfwpbM+Imx9dpg+4O494Mfdd2tjr1f5+Hh4fFB4GzIpjWhpGg2jP+y6TTCkSjWyg0slYFiO4Vrq3VM8UexoabOzvgz+/vFwyr1DFi9Zwa6U7j/jt325rFZWbfF0WfXgZdOLeEHx5cwLdEKzVAp/lMDYIDNlP/k7ifB5jVR8vX4cC8GesjH9RrWyH+LpTCurgDHLqzg4mLbxra5IRC6JpBUSvHNLsBmfKy+YHBX/Ti3tfSD3zf/ofO28VZus4dK4AJsbrsjW88JnBB8b8XWY8GVN5934zk3Oo/tBD/r5q8kbvUw32z4fhK49il1S9C2FubsjjexbyiF4WQd0XaBxzVDVQTTqw2cm+N2KGf9xtUa5q6VP/ygFz8rM2OpcV6+N9qk2nYL/ZkQJseS6I1rEpYS92l2RmB6sY7p9QhJOm1jKPQe0roQ6tKO+0VCeRULNzHaFcGh0QTjumpdgVQC69UwLi3UMJOPQIuW2+D8d+Vm0CIYvLOV+2lz/Ke9PsCPy02Fc3NYP2kp3OxHcO1P4oeHh8eHEZuVeAejrJ8KzkMnImRFNLtkE13kvz0DSYzlNF2H+K8OTbgxs97EpcUm1moaI6cxfOrX8svjEwu41UAP+W/vcBpDybJNQqZlG1rtKKYXKri80sJaU8vPuDXWrOsjL3Pvi35RMVaIrq6gJQR2DaWxuy+MrlAeWkdWXSHLjTAuzJZwvaBp4Nx6qGK5zSi6snpvBKXwi4GF9OOi1MHWt7xb4WpeQbw7cb/FicFbRYfOee+BH33U48MIL/R+JaEH/mZroNvgg94KztxoBJT6g2u63xDJI06DnGhrGYSKO0vdDcNRUErxzCR/642TYrLZxcBi9gGioetuvkykHuzbeuyGlFvf97at6aY2ywjjK+Gn0XLq6V/TFM8aGM24aq+u3nr9B4jqTwULj/HVOEctMxFplRlnxiykgeduRjmbUTIcLJp7cwy1T851AXWHb8iRDm6170fhp8mJIE4/zo/3ipOue7/hB2FtxU9yvYeHx4cRW/kgwHtVoN8vZGNdVdv5rIZL/WtpmjitcYzcFzZO0Zhq2mjyn+xzk/ynN06uoXMTv2grZHnSatpyBwlUESOfaEkd8Yn4WjN0V2xIgPgkyiQwvqaW1XSr2DqW+WB4/1e6UFznRS1vEA83bLbpqC3N5Majg3lbbWnyMU1i0pnMxTJU17q4/jIRxCJAELX3EytL/btOVBkFd54QbL3bR5XZ5p2m4+8+x2P7wgu9X1kED32An+42cGZ/y5s5OpsZykQTSU5jx3hQQlDjy4J++u+yXvx5c8w+KFxc3p2yrf7rmH7bpCWMpw2sVrQ6R9yYxeAt2NYrfzlwaRHhqdOPi53FjAd0zEYiKK83ute4K26ErtD+4Nit0vWTpPVWYfyk+Gny9icJ/1bh/Czi7+HhcTsj4IMbwEf/Z2F5gup2IHvUU88m6tiw0dzmKW5Ml/jEuV+25VGeKA5B46Y5U0cuRTYbpMXTdTF1Z+v75hS/H9x85vu5MghFCGIg/lM8NTGZm5TMfGJcNSGc4z/FT3lsB+jkg/PldsLWe/Lm2N2cO7eoKhE3n8W9N+8SbPfWAzeH5rGd4YWex88Qwa201aBsNS8yvjrndrzlNt8qCiJqg+28leW8HeBi/G7zfbvG18PDw+NXCR8mG/1u0ebiKvws4vtB/NiMwc0IpOZW3L556+Hxy0PQ5OHh8TOADOy7jayMb+BuX0iQbv65ps5bp+f2gYufa7107vaOr4eHh8evEj5MNvrGeG7G9WcV3601gffr3hs3x3Uzvh4eHlvhhZ7HzxlbjXYwAYiHh4eHh4eHh4eHx88Tocj+R3zN28PDw8PDw8PDw8PDYxvBv9Hz8PDw8PDw8PDw8PDYZvBCz8PDw8PDw8PDw8PDY5shFJn0XTc9PDw8PDw8PDw8PDy2E/wbPQ8PDw8PDw8PDw8Pj20GL/Q8PDw8PDw8PDw8PDy2GbzQ8/Dw8PDw8PDw8PDw2GbwQs/Dw8PDw8PDw8PDw2ObwQs9Dw8PDw8PDw8PDw+PbQYv9Dw8PDw8PDw8PDw8PLYZvNDz8PDw8PDw8PDw8PDYZvBCz8PDw8PDw8PDw8PDY5vBCz0PDw8PDw8PDw8PD49thlBk8uF2Z9vDw8PDw8PDw8PDw8NjG8C/0fPw8PDw8PDw8PDw8Nhm8ELPw8PDw8PDw8PDw8Njm8ELPQ8PDw8PDw8PDw8Pj20GL/Q8PDw8PDw8PDw8PDy2GbzQ8/Dw8PDw8PDw8PDw2GbwQs/Dw8PDw8PDw8PDw2ObwQs9Dw8PDw8PDw8PDw+PbQYv9Dw8PDw8PDw8PDw8PLYZvNDz8PDw8PDw8PDw8PDYZvBCz8PDw8PDw8PDw8PDY5vBCz0PDw8PDw8PDw8PD49thlBk38PtzraHh4eHh4eHh4eHh4fHNoB/o+fh4eHh4eHh4eHh4bHN4IWeh4eHh4eHh4eHh4fHNkMosu8h33XTw8PDw8PDw8PDw8NjG8G/0fPw8PDw8PDw8PDw8Nhm8ELPw8PDw8PDw8PDw8Njm8ELPQ8PDw8PDw8PDw8Pj20GL/Q8PDw8PDw8PDw8PDy2GbzQ8/Dw8PDw8PDw8PDw2GbwQs/Dw8PDw8PDw8PDw2ObwQs9Dw8PDw8PDw8PDw+PbQYv9Dw8PDw8PDw8PDw8PLYZvNDz8PDw8PDw8PDw8PDYZvBCz8PDw8PDw8PDw8PDY5vBCz0PDw8PDw8PDw8PD49tBi/0PDw8PDw8PDw8PDw8thlCkX0PtjvbHh4eHh4eHh4eHh4eHtsA/o2eh4eHh4eHh4eHh4fHNoMXeh4eHh4eHh4eHh4eHtsMXuh5eHh4eHh4eHh4eHhsM3ih5+Hh4eHh4eHh4eHhsc3ghZ6Hh4eHh4eHh4eHh8c2gxd6Hh4eHh4eHh4eHh4e2wyhyF6/vIKHh4eHh4eHh4eHh8d2gn+j5+Hh4eHh4eHh4eHhsa0A/P8BUfUSXm/OkiIAAAAASUVORK5CYII=;" vertex="1" parent="1">
                    <mxGeometry x="60" y="59.999999999999986" width="730" height="360.08" as="geometry"/>
                </mxCell>
            </root>
        </mxGraphModel>
    </diagram>
</mxfile>